<svg width="110" height="110" viewBox="0 0 110 110" fill="none" xmlns="http://www.w3.org/2000/svg">
<mask id="path-1-inside-1" fill="white">
<path d="M70.5581 21.8686H74.7231C76.3061 21.8686 77.5814 22.2389 78.5488 22.9795C79.5163 23.7201 80 24.9007 80 26.5212V32.94C80 33.3831 79.9969 33.7091 79.9906 33.918C79.9843 34.1269 79.9529 34.3833 79.8963 34.6872C79.8398 34.991 79.7581 35.2062 79.6513 35.3328C79.5445 35.4594 79.3875 35.5734 79.1802 35.6747C78.9729 35.7759 78.7122 35.8266 78.3981 35.8266H76.7396V49.8606C76.7396 50.1771 76.6485 50.4461 76.4663 50.6677C76.2842 50.8892 76.0674 51 75.8162 51H73.4981C73.3599 51 73.2531 50.9905 73.1777 50.9715C73.1023 50.9525 73.0395 50.9082 72.9892 50.8386C72.939 50.769 72.9044 50.7056 72.8856 50.6487C72.8667 50.5917 72.8353 50.4873 72.7913 50.3353C72.7474 50.1834 72.7003 50.0441 72.65 49.9175C72.6123 50.0062 72.5683 50.1233 72.5181 50.2689C72.4678 50.4145 72.4333 50.5126 72.4144 50.5632C72.3956 50.6139 72.3642 50.6772 72.3202 50.7531C72.2762 50.8291 72.2291 50.8797 72.1788 50.905C72.1286 50.9304 72.0658 50.9525 71.9904 50.9715C71.915 50.9905 71.8208 51 71.7077 51H69.5027C69.2263 51 68.997 50.8924 68.8148 50.6772C68.6326 50.4619 68.5415 50.1897 68.5415 49.8606V35.8266H66.8831C66.569 35.8266 66.3083 35.7759 66.101 35.6747C65.8937 35.5734 65.7366 35.4594 65.6298 35.3328C65.523 35.2062 65.4413 34.991 65.3848 34.6872C65.3283 34.3833 65.2969 34.1301 65.2906 33.9275C65.2843 33.725 65.2812 33.3958 65.2812 32.94V26.5212C65.2812 24.9007 65.7649 23.7201 66.7323 22.9795C67.6997 22.2389 68.975 21.8686 70.5581 21.8686ZM72.65 20.938C71.6449 20.938 70.7403 20.5424 69.9362 19.7511C69.132 18.9599 68.73 18.0262 68.73 16.95C68.73 15.8866 69.132 14.9624 69.9362 14.1774C70.7403 13.3925 71.6449 13 72.65 13C73.6551 13 74.5629 13.3925 75.3733 14.1774C76.1837 14.9624 76.5888 15.8866 76.5888 16.95C76.5888 18.0262 76.1837 18.9599 75.3733 19.7511C74.5629 20.5424 73.6551 20.938 72.65 20.938ZM53.4081 21.8686H57.5919C59.175 21.8686 60.4471 22.2389 61.4083 22.9795C62.3694 23.7201 62.85 24.9007 62.85 26.5212V33.6997L62.8217 34.2884L62.7275 34.8296L62.5579 35.2379L62.2846 35.5702L61.8606 35.7506L61.2669 35.8266H59.5896V49.8606C59.5896 50.1771 59.4985 50.4461 59.3163 50.6677C59.1342 50.8892 58.9174 51 58.6662 51H56.3669C56.2036 51 56.0748 50.9747 55.9806 50.924C55.8863 50.8734 55.8235 50.8259 55.7921 50.7816C55.7607 50.7373 55.7167 50.6107 55.6602 50.4018C55.6037 50.1929 55.5503 50.0315 55.5 49.9175C55.4623 50.0188 55.4152 50.1549 55.3587 50.3258C55.3021 50.4968 55.2613 50.6044 55.2362 50.6487C55.211 50.693 55.1702 50.7531 55.1137 50.8291C55.0571 50.905 54.988 50.9525 54.9063 50.9715C54.8247 50.9905 54.7147 51 54.5765 51H52.3527C52.0763 51 51.8501 50.8924 51.6742 50.6772C51.4983 50.4619 51.4104 50.1897 51.4104 49.8606V35.8266H49.7331C49.5069 35.8266 49.309 35.8013 49.1394 35.7506C48.9698 35.7 48.8285 35.6398 48.7154 35.5702C48.6023 35.5006 48.5112 35.3866 48.4421 35.2284C48.373 35.0701 48.3165 34.9372 48.2725 34.8296C48.2285 34.722 48.1971 34.5416 48.1783 34.2884C48.1594 34.0351 48.15 33.8389 48.15 33.6997V26.5212C48.15 24.9007 48.6306 23.7201 49.5917 22.9795C50.5529 22.2389 51.825 21.8686 53.4081 21.8686ZM55.5 20.938C54.4949 20.938 53.5903 20.5424 52.7862 19.7511C51.982 18.9599 51.58 18.0262 51.58 16.95C51.58 15.8866 51.982 14.9624 52.7862 14.1774C53.5903 13.3925 54.4949 13 55.5 13C56.5051 13 57.4129 13.3925 58.2233 14.1774C59.0337 14.9624 59.4388 15.8866 59.4388 16.95C59.4388 18.0262 59.0337 18.9599 58.2233 19.7511C57.4129 20.5424 56.5051 20.938 55.5 20.938ZM36.2769 21.8686H40.4419C42.025 21.8686 43.3003 22.2389 44.2677 22.9795C45.2351 23.7201 45.7188 24.9007 45.7188 26.5212V32.94C45.7188 33.3831 45.7157 33.7091 45.7094 33.918C45.7031 34.1269 45.6717 34.3833 45.6152 34.6872C45.5587 34.991 45.477 35.2062 45.3702 35.3328C45.2634 35.4594 45.1063 35.5734 44.899 35.6747C44.6917 35.7759 44.431 35.8266 44.1169 35.8266H42.4585V49.8606C42.4585 50.1771 42.3642 50.4461 42.1758 50.6677C41.9873 50.8892 41.7674 51 41.5162 51H39.2169C39.0536 51 38.9248 50.9747 38.8306 50.924C38.7363 50.8734 38.6735 50.8259 38.6421 50.7816C38.6107 50.7373 38.5667 50.6107 38.5102 50.4018C38.4537 50.1929 38.4003 50.0315 38.35 49.9175C38.3123 50.0188 38.2652 50.1549 38.2087 50.3258C38.1521 50.4968 38.1113 50.6044 38.0862 50.6487C38.061 50.693 38.0202 50.7531 37.9637 50.8291C37.9071 50.905 37.838 50.9525 37.7563 50.9715C37.6747 50.9905 37.5647 51 37.4265 51H35.2215C34.9451 51 34.7158 50.8924 34.5337 50.6772C34.3515 50.4619 34.2604 50.1897 34.2604 49.8606V35.8266H32.6019C32.2878 35.8266 32.0271 35.7696 31.8198 35.6557C31.6125 35.5417 31.4554 35.4151 31.3487 35.2759C31.2419 35.1366 31.1602 34.9087 31.1037 34.5922C31.0471 34.2757 31.0157 34.0098 31.0094 33.7946C31.0031 33.5794 31 33.2439 31 32.7881V26.3693C31 23.3688 32.759 21.8686 36.2769 21.8686ZM38.35 20.938C37.3449 20.938 36.4403 20.5424 35.6362 19.7511C34.8321 18.9599 34.43 18.0262 34.43 16.95C34.43 15.8866 34.8321 14.9624 35.6362 14.1774C36.4403 13.3925 37.3449 13 38.35 13C39.3551 13 40.266 13.3925 41.0827 14.1774C41.8994 14.9624 42.3077 15.8866 42.3077 16.95C42.3077 18.0262 41.8994 18.9599 41.0827 19.7511C40.266 20.5424 39.3551 20.938 38.35 20.938Z"/>
</mask>
<path d="M70.5581 21.8686H74.7231C76.3061 21.8686 77.5814 22.2389 78.5488 22.9795C79.5163 23.7201 80 24.9007 80 26.5212V32.94C80 33.3831 79.9969 33.7091 79.9906 33.918C79.9843 34.1269 79.9529 34.3833 79.8963 34.6872C79.8398 34.991 79.7581 35.2062 79.6513 35.3328C79.5445 35.4594 79.3875 35.5734 79.1802 35.6747C78.9729 35.7759 78.7122 35.8266 78.3981 35.8266H76.7396V49.8606C76.7396 50.1771 76.6485 50.4461 76.4663 50.6677C76.2842 50.8892 76.0674 51 75.8162 51H73.4981C73.3599 51 73.2531 50.9905 73.1777 50.9715C73.1023 50.9525 73.0395 50.9082 72.9892 50.8386C72.939 50.769 72.9044 50.7056 72.8856 50.6487C72.8667 50.5917 72.8353 50.4873 72.7913 50.3353C72.7474 50.1834 72.7003 50.0441 72.65 49.9175C72.6123 50.0062 72.5683 50.1233 72.5181 50.2689C72.4678 50.4145 72.4333 50.5126 72.4144 50.5632C72.3956 50.6139 72.3642 50.6772 72.3202 50.7531C72.2762 50.8291 72.2291 50.8797 72.1788 50.905C72.1286 50.9304 72.0658 50.9525 71.9904 50.9715C71.915 50.9905 71.8208 51 71.7077 51H69.5027C69.2263 51 68.997 50.8924 68.8148 50.6772C68.6326 50.4619 68.5415 50.1897 68.5415 49.8606V35.8266H66.8831C66.569 35.8266 66.3083 35.7759 66.101 35.6747C65.8937 35.5734 65.7366 35.4594 65.6298 35.3328C65.523 35.2062 65.4413 34.991 65.3848 34.6872C65.3283 34.3833 65.2969 34.1301 65.2906 33.9275C65.2843 33.725 65.2812 33.3958 65.2812 32.94V26.5212C65.2812 24.9007 65.7649 23.7201 66.7323 22.9795C67.6997 22.2389 68.975 21.8686 70.5581 21.8686ZM72.65 20.938C71.6449 20.938 70.7403 20.5424 69.9362 19.7511C69.132 18.9599 68.73 18.0262 68.73 16.95C68.73 15.8866 69.132 14.9624 69.9362 14.1774C70.7403 13.3925 71.6449 13 72.65 13C73.6551 13 74.5629 13.3925 75.3733 14.1774C76.1837 14.9624 76.5888 15.8866 76.5888 16.95C76.5888 18.0262 76.1837 18.9599 75.3733 19.7511C74.5629 20.5424 73.6551 20.938 72.65 20.938ZM53.4081 21.8686H57.5919C59.175 21.8686 60.4471 22.2389 61.4083 22.9795C62.3694 23.7201 62.85 24.9007 62.85 26.5212V33.6997L62.8217 34.2884L62.7275 34.8296L62.5579 35.2379L62.2846 35.5702L61.8606 35.7506L61.2669 35.8266H59.5896V49.8606C59.5896 50.1771 59.4985 50.4461 59.3163 50.6677C59.1342 50.8892 58.9174 51 58.6662 51H56.3669C56.2036 51 56.0748 50.9747 55.9806 50.924C55.8863 50.8734 55.8235 50.8259 55.7921 50.7816C55.7607 50.7373 55.7167 50.6107 55.6602 50.4018C55.6037 50.1929 55.5503 50.0315 55.5 49.9175C55.4623 50.0188 55.4152 50.1549 55.3587 50.3258C55.3021 50.4968 55.2613 50.6044 55.2362 50.6487C55.211 50.693 55.1702 50.7531 55.1137 50.8291C55.0571 50.905 54.988 50.9525 54.9063 50.9715C54.8247 50.9905 54.7147 51 54.5765 51H52.3527C52.0763 51 51.8501 50.8924 51.6742 50.6772C51.4983 50.4619 51.4104 50.1897 51.4104 49.8606V35.8266H49.7331C49.5069 35.8266 49.309 35.8013 49.1394 35.7506C48.9698 35.7 48.8285 35.6398 48.7154 35.5702C48.6023 35.5006 48.5112 35.3866 48.4421 35.2284C48.373 35.0701 48.3165 34.9372 48.2725 34.8296C48.2285 34.722 48.1971 34.5416 48.1783 34.2884C48.1594 34.0351 48.15 33.8389 48.15 33.6997V26.5212C48.15 24.9007 48.6306 23.7201 49.5917 22.9795C50.5529 22.2389 51.825 21.8686 53.4081 21.8686ZM55.5 20.938C54.4949 20.938 53.5903 20.5424 52.7862 19.7511C51.982 18.9599 51.58 18.0262 51.58 16.95C51.58 15.8866 51.982 14.9624 52.7862 14.1774C53.5903 13.3925 54.4949 13 55.5 13C56.5051 13 57.4129 13.3925 58.2233 14.1774C59.0337 14.9624 59.4388 15.8866 59.4388 16.95C59.4388 18.0262 59.0337 18.9599 58.2233 19.7511C57.4129 20.5424 56.5051 20.938 55.5 20.938ZM36.2769 21.8686H40.4419C42.025 21.8686 43.3003 22.2389 44.2677 22.9795C45.2351 23.7201 45.7188 24.9007 45.7188 26.5212V32.94C45.7188 33.3831 45.7157 33.7091 45.7094 33.918C45.7031 34.1269 45.6717 34.3833 45.6152 34.6872C45.5587 34.991 45.477 35.2062 45.3702 35.3328C45.2634 35.4594 45.1063 35.5734 44.899 35.6747C44.6917 35.7759 44.431 35.8266 44.1169 35.8266H42.4585V49.8606C42.4585 50.1771 42.3642 50.4461 42.1758 50.6677C41.9873 50.8892 41.7674 51 41.5162 51H39.2169C39.0536 51 38.9248 50.9747 38.8306 50.924C38.7363 50.8734 38.6735 50.8259 38.6421 50.7816C38.6107 50.7373 38.5667 50.6107 38.5102 50.4018C38.4537 50.1929 38.4003 50.0315 38.35 49.9175C38.3123 50.0188 38.2652 50.1549 38.2087 50.3258C38.1521 50.4968 38.1113 50.6044 38.0862 50.6487C38.061 50.693 38.0202 50.7531 37.9637 50.8291C37.9071 50.905 37.838 50.9525 37.7563 50.9715C37.6747 50.9905 37.5647 51 37.4265 51H35.2215C34.9451 51 34.7158 50.8924 34.5337 50.6772C34.3515 50.4619 34.2604 50.1897 34.2604 49.8606V35.8266H32.6019C32.2878 35.8266 32.0271 35.7696 31.8198 35.6557C31.6125 35.5417 31.4554 35.4151 31.3487 35.2759C31.2419 35.1366 31.1602 34.9087 31.1037 34.5922C31.0471 34.2757 31.0157 34.0098 31.0094 33.7946C31.0031 33.5794 31 33.2439 31 32.7881V26.3693C31 23.3688 32.759 21.8686 36.2769 21.8686ZM38.35 20.938C37.3449 20.938 36.4403 20.5424 35.6362 19.7511C34.8321 18.9599 34.43 18.0262 34.43 16.95C34.43 15.8866 34.8321 14.9624 35.6362 14.1774C36.4403 13.3925 37.3449 13 38.35 13C39.3551 13 40.266 13.3925 41.0827 14.1774C41.8994 14.9624 42.3077 15.8866 42.3077 16.95C42.3077 18.0262 41.8994 18.9599 41.0827 19.7511C40.266 20.5424 39.3551 20.938 38.35 20.938Z" fill="#2A6385" stroke="#FFAA34" mask="url(#path-1-inside-1)"/>
<path d="M19.6094 87V75.7266H16.8359L13.7109 83.5H13.5703L10.4531 75.7266H7.67188V87H9.85938V79.3672H9.98438L12.8594 86.4453H14.4297L17.2969 79.3672H17.4219V87H19.6094ZM24.4766 87.1328C25.5938 87.1328 26.5312 86.6562 26.9766 85.8594H27.1172V87H29.3203V81.125C29.3203 79.2891 28.0312 78.2109 25.75 78.2109C23.5859 78.2109 22.125 79.2031 21.9766 80.7812H24.0703C24.2578 80.2422 24.8047 79.9531 25.625 79.9531C26.5625 79.9531 27.0781 80.3828 27.0781 81.125V81.8359L24.9922 81.9609C22.8516 82.0859 21.6562 82.9922 21.6562 84.5469C21.6562 86.1172 22.8203 87.1328 24.4766 87.1328ZM25.2266 85.4688C24.4375 85.4688 23.8828 85.0703 23.8828 84.4062C23.8828 83.7734 24.3594 83.4062 25.3359 83.3438L27.0781 83.2266V83.8672C27.0781 84.7734 26.2812 85.4688 25.2266 85.4688ZM31.3594 80.9062C31.3594 82.2266 32.1719 83.0156 33.8438 83.3828L35.4062 83.7344C36.1641 83.9062 36.4922 84.1719 36.4922 84.6094C36.4922 85.1797 35.8828 85.5703 35 85.5703C34.0938 85.5703 33.5391 85.2188 33.3672 84.625H31.1484C31.3047 86.25 32.6797 87.1797 34.9531 87.1797C37.2109 87.1797 38.75 86.0703 38.75 84.3672C38.75 83.0859 38 82.3828 36.3281 82.0156L34.7109 81.6641C33.9141 81.4844 33.5469 81.2109 33.5469 80.7734C33.5469 80.2109 34.1484 79.8281 34.9609 79.8281C35.8047 79.8281 36.3281 80.1797 36.4453 80.75H38.5469C38.4219 79.125 37.1328 78.2109 34.9453 78.2109C32.7969 78.2109 31.3594 79.2969 31.3594 80.9062ZM41.4531 90.125C43.6016 90.125 44.6562 89.3594 45.3906 87.1641L48.3594 78.3984H45.9531L44.1406 84.9609H44L42.1875 78.3984H39.6797L42.7031 87.0469L42.625 87.375C42.4375 88.0703 41.9531 88.3516 41.1016 88.3516C41.0078 88.3516 40.6641 88.3438 40.5859 88.3281V90.1016C40.6797 90.1172 41.3672 90.125 41.4531 90.125ZM52.0234 87.1328C53.1406 87.1328 54.0781 86.6562 54.5234 85.8594H54.6641V87H56.8672V81.125C56.8672 79.2891 55.5781 78.2109 53.2969 78.2109C51.1328 78.2109 49.6719 79.2031 49.5234 80.7812H51.6172C51.8047 80.2422 52.3516 79.9531 53.1719 79.9531C54.1094 79.9531 54.625 80.3828 54.625 81.125V81.8359L52.5391 81.9609C50.3984 82.0859 49.2031 82.9922 49.2031 84.5469C49.2031 86.1172 50.3672 87.1328 52.0234 87.1328ZM52.7734 85.4688C51.9844 85.4688 51.4297 85.0703 51.4297 84.4062C51.4297 83.7734 51.9062 83.4062 52.8828 83.3438L54.625 83.2266V83.8672C54.625 84.7734 53.8281 85.4688 52.7734 85.4688ZM59.1016 87H61.375V82.1875C61.375 80.9766 62.2266 80.2344 63.4688 80.2344C63.8359 80.2344 64.3672 80.2969 64.5469 80.3594V78.3594C64.3516 78.2969 63.9688 78.2578 63.6562 78.2578C62.5625 78.2578 61.6719 78.9062 61.4453 79.7656H61.3047V78.3984H59.1016V87ZM68.2734 87.1328C69.3906 87.1328 70.3281 86.6562 70.7734 85.8594H70.9141V87H73.1172V81.125C73.1172 79.2891 71.8281 78.2109 69.5469 78.2109C67.3828 78.2109 65.9219 79.2031 65.7734 80.7812H67.8672C68.0547 80.2422 68.6016 79.9531 69.4219 79.9531C70.3594 79.9531 70.875 80.3828 70.875 81.125V81.8359L68.7891 81.9609C66.6484 82.0859 65.4531 82.9922 65.4531 84.5469C65.4531 86.1172 66.6172 87.1328 68.2734 87.1328ZM69.0234 85.4688C68.2344 85.4688 67.6797 85.0703 67.6797 84.4062C67.6797 83.7734 68.1562 83.4062 69.1328 83.3438L70.875 83.2266V83.8672C70.875 84.7734 70.0781 85.4688 69.0234 85.4688ZM77.8438 81.7969H77.7031V75.1094H75.4297V87H77.7031V84.1094L78.3281 83.4609L80.8438 87H83.5391L80.0312 82.0859L83.3125 78.3984H80.7266L77.8438 81.7969ZM87.0234 87.1328C88.1406 87.1328 89.0781 86.6562 89.5234 85.8594H89.6641V87H91.8672V81.125C91.8672 79.2891 90.5781 78.2109 88.2969 78.2109C86.1328 78.2109 84.6719 79.2031 84.5234 80.7812H86.6172C86.8047 80.2422 87.3516 79.9531 88.1719 79.9531C89.1094 79.9531 89.625 80.3828 89.625 81.125V81.8359L87.5391 81.9609C85.3984 82.0859 84.2031 82.9922 84.2031 84.5469C84.2031 86.1172 85.3672 87.1328 87.0234 87.1328ZM87.7734 85.4688C86.9844 85.4688 86.4297 85.0703 86.4297 84.4062C86.4297 83.7734 86.9062 83.4062 87.8828 83.3438L89.625 83.2266V83.8672C89.625 84.7734 88.8281 85.4688 87.7734 85.4688ZM94.75 76.3438V78.4766H93.4062V80.2031H94.75V84.6797C94.75 86.3516 95.5781 87.0312 97.6719 87.0312C98.1094 87.0312 98.5312 86.9844 98.8125 86.9297V85.25C98.5938 85.2734 98.4375 85.2891 98.1406 85.2891C97.3672 85.2891 97.0234 84.9297 97.0234 84.1562V80.2031H98.8125V78.4766H97.0234V76.3438H94.75ZM25.3281 106V96.6719H28.7109V94.7266H19.5859V96.6719H22.9688V106H25.3281ZM34.6562 103.57C34.4141 104.156 33.7969 104.484 32.8984 104.484C31.7109 104.484 30.9609 103.664 30.9297 102.352V102.234H36.8438V101.555C36.8438 98.8359 35.3438 97.2109 32.8047 97.2109C30.2422 97.2109 28.6641 98.9453 28.6641 101.742C28.6641 104.523 30.2109 106.18 32.8359 106.18C34.9453 106.18 36.4375 105.172 36.7734 103.57H34.6562ZM32.8125 98.9062C33.875 98.9062 34.5625 99.6406 34.6094 100.82H30.9375C31.0156 99.6641 31.7578 98.9062 32.8125 98.9062ZM38.7109 106H40.9844V101.188C40.9844 99.9766 41.8359 99.2344 43.0781 99.2344C43.4453 99.2344 43.9766 99.2969 44.1562 99.3594V97.3594C43.9609 97.2969 43.5781 97.2578 43.2656 97.2578C42.1719 97.2578 41.2812 97.9062 41.0547 98.7656H40.9141V97.3984H38.7109V106ZM50.7578 106.133C52.9219 106.133 54.25 104.453 54.25 101.695C54.25 98.9219 52.9375 97.2578 50.7578 97.2578C49.5781 97.2578 48.6094 97.8281 48.1719 98.7734H48.0312V94.1094H45.7578V106H47.9609V104.648H48.1016C48.5625 105.586 49.5391 106.133 50.7578 106.133ZM49.9688 99.1016C51.1719 99.1016 51.9141 100.094 51.9141 101.695C51.9141 103.312 51.1797 104.297 49.9688 104.297C48.7656 104.297 48.0156 103.305 48.0078 101.703C48.0156 100.102 48.7734 99.1016 49.9688 99.1016ZM58.4609 106.133C59.5781 106.133 60.5156 105.656 60.9609 104.859H61.1016V106H63.3047V100.125C63.3047 98.2891 62.0156 97.2109 59.7344 97.2109C57.5703 97.2109 56.1094 98.2031 55.9609 99.7812H58.0547C58.2422 99.2422 58.7891 98.9531 59.6094 98.9531C60.5469 98.9531 61.0625 99.3828 61.0625 100.125V100.836L58.9766 100.961C56.8359 101.086 55.6406 101.992 55.6406 103.547C55.6406 105.117 56.8047 106.133 58.4609 106.133ZM59.2109 104.469C58.4219 104.469 57.8672 104.07 57.8672 103.406C57.8672 102.773 58.3438 102.406 59.3203 102.344L61.0625 102.227V102.867C61.0625 103.773 60.2656 104.469 59.2109 104.469ZM65.5391 106H67.8125V101.023C67.8125 99.8594 68.4609 99.1094 69.5156 99.1094C70.5938 99.1094 71.1016 99.7422 71.1016 100.953V106H73.375V100.438C73.375 98.3828 72.3438 97.2109 70.4297 97.2109C69.1562 97.2109 68.2812 97.8125 67.8828 98.7812H67.7422V97.3984H65.5391V106ZM76.2344 95.3438V97.4766H74.8906V99.2031H76.2344V103.68C76.2344 105.352 77.0625 106.031 79.1562 106.031C79.5938 106.031 80.0156 105.984 80.2969 105.93V104.25C80.0781 104.273 79.9219 104.289 79.625 104.289C78.8516 104.289 78.5078 103.93 78.5078 103.156V99.2031H80.2969V97.4766H78.5078V95.3438H76.2344ZM89.9922 97.3984H87.7188V102.367C87.7188 103.547 87.1094 104.273 85.9766 104.273C84.9297 104.273 84.3906 103.656 84.3906 102.438V97.3984H82.1172V103C82.1172 105 83.2734 106.18 85.1328 106.18C86.4375 106.18 87.2422 105.617 87.6484 104.617H87.7891V106H89.9922V97.3984Z" fill="#2A6385"/>
</svg>
