<svg width="117" height="111" viewBox="0 0 117 111" fill="none" xmlns="http://www.w3.org/2000/svg">
<path d="M56.9227 54.4994H48.7004C48.2215 54.5012 47.7564 54.3446 47.3824 54.0555C47.0084 53.7665 46.7481 53.3624 46.6448 52.9106L40.4781 33.0503C40.4164 32.7584 40.4234 32.4568 40.4987 32.1679C40.574 31.879 40.7156 31.6101 40.913 31.3812C41.1104 31.1524 41.3585 30.9693 41.6391 30.8457C41.9197 30.7221 42.2254 30.661 42.5337 30.667H63.0893C63.3976 30.661 63.7034 30.7221 63.9839 30.8457C64.2645 30.9693 64.5127 31.1524 64.7101 31.3812C64.9075 31.6101 65.0491 31.879 65.1243 32.1679C65.1996 32.4568 65.2066 32.7584 65.1449 33.0503L59.0193 52.9106C58.9146 53.3692 58.6483 53.7784 58.2658 54.0682C57.8834 54.358 57.4086 54.5104 56.9227 54.4994ZM47.7137 42.5832H57.8271L60.5816 34.6391H45.0415L47.7137 42.5832Z" fill="#2A6385"/>
<path d="M54.7759 10.5C53.9728 10.5 53.1777 10.652 52.4362 10.9474C51.6948 11.2428 51.0217 11.6756 50.4557 12.221C49.8898 12.7665 49.4421 13.4137 49.1385 14.1254C48.8349 14.8371 48.6813 15.5993 48.6867 16.368V24.1403C48.6867 24.6556 48.9005 25.1498 49.2812 25.5142C49.6618 25.8786 50.1781 26.0833 50.7164 26.0833H54.7759C55.0459 26.0834 55.3132 26.0319 55.5622 25.9318C55.8111 25.8317 56.0367 25.6851 56.2257 25.5006C56.4147 25.316 56.5634 25.0972 56.663 24.8569C56.7626 24.6167 56.8111 24.3598 56.8057 24.1014V20.2153C56.8057 19.7 57.0195 19.2057 57.4002 18.8413C57.7808 18.477 58.2971 18.2722 58.8354 18.2722H77.1032V10.5H54.7759Z" fill="#2A6385"/>
<path d="M27.2463 87.5H29.801L25.887 76.2266H23.1135L19.1995 87.5H21.5667L22.4338 84.7656H26.3948L27.2463 87.5ZM24.3557 78.5156H24.4963L25.8948 83H22.9417L24.3557 78.5156ZM33.9885 82.2969H33.8479V75.6094H31.5745V87.5H33.8479V84.6094L34.4729 83.9609L36.9885 87.5H39.6838L36.176 82.5859L39.4573 78.8984H36.8713L33.9885 82.2969ZM40.5667 81.4062C40.5667 82.7266 41.3792 83.5156 43.051 83.8828L44.6135 84.2344C45.3713 84.4062 45.6995 84.6719 45.6995 85.1094C45.6995 85.6797 45.0901 86.0703 44.2073 86.0703C43.301 86.0703 42.7463 85.7188 42.5745 85.125H40.3557C40.512 86.75 41.887 87.6797 44.1604 87.6797C46.4182 87.6797 47.9573 86.5703 47.9573 84.8672C47.9573 83.5859 47.2073 82.8828 45.5354 82.5156L43.9182 82.1641C43.1213 81.9844 42.7542 81.7109 42.7542 81.2734C42.7542 80.7109 43.3557 80.3281 44.1682 80.3281C45.012 80.3281 45.5354 80.6797 45.6526 81.25H47.7542C47.6292 79.625 46.3401 78.7109 44.1526 78.7109C42.0042 78.7109 40.5667 79.7969 40.5667 81.4062ZM55.3948 85.0703C55.1526 85.6562 54.5354 85.9844 53.637 85.9844C52.4495 85.9844 51.6995 85.1641 51.6682 83.8516V83.7344H57.5823V83.0547C57.5823 80.3359 56.0823 78.7109 53.5432 78.7109C50.9807 78.7109 49.4026 80.4453 49.4026 83.2422C49.4026 86.0234 50.9495 87.6797 53.5745 87.6797C55.6838 87.6797 57.176 86.6719 57.512 85.0703H55.3948ZM53.551 80.4062C54.6135 80.4062 55.301 81.1406 55.3479 82.3203H51.676C51.7542 81.1641 52.4963 80.4062 53.551 80.4062ZM59.2542 81.4062C59.2542 82.7266 60.0667 83.5156 61.7385 83.8828L63.301 84.2344C64.0588 84.4062 64.387 84.6719 64.387 85.1094C64.387 85.6797 63.7776 86.0703 62.8948 86.0703C61.9885 86.0703 61.4338 85.7188 61.262 85.125H59.0432C59.1995 86.75 60.5745 87.6797 62.8479 87.6797C65.1057 87.6797 66.6448 86.5703 66.6448 84.8672C66.6448 83.5859 65.8948 82.8828 64.2229 82.5156L62.6057 82.1641C61.8088 81.9844 61.4417 81.7109 61.4417 81.2734C61.4417 80.7109 62.0432 80.3281 62.8557 80.3281C63.6995 80.3281 64.2229 80.6797 64.3401 81.25H66.4417C66.3167 79.625 65.0276 78.7109 62.8401 78.7109C60.6917 78.7109 59.2542 79.7969 59.2542 81.4062ZM80.1057 87.5H82.6604L78.7463 76.2266H75.9729L72.0588 87.5H74.426L75.2932 84.7656H79.2542L80.1057 87.5ZM77.2151 78.5156H77.3557L78.7542 83H75.801L77.2151 78.5156ZM85.512 77.5781C86.2151 77.5781 86.7932 77.0156 86.7932 76.3125C86.7932 75.6016 86.2151 75.0391 85.512 75.0391C84.8088 75.0391 84.2229 75.6016 84.2229 76.3125C84.2229 77.0156 84.8088 77.5781 85.512 77.5781ZM84.3713 87.5H86.6448V78.8984H84.3713V87.5ZM88.9495 87.5H91.2229V82.6875C91.2229 81.4766 92.0745 80.7344 93.3167 80.7344C93.6838 80.7344 94.2151 80.7969 94.3948 80.8594V78.8594C94.1995 78.7969 93.8167 78.7578 93.5042 78.7578C92.4104 78.7578 91.5198 79.4062 91.2932 80.2656H91.1526V78.8984H88.9495V87.5ZM44.6604 106.5V95.2266H41.887L38.762 103H38.6213L35.5042 95.2266H32.7229V106.5H34.9104V98.8672H35.0354L37.9104 105.945H39.4807L42.3479 98.8672H42.4729V106.5H44.6604ZM54.9651 97.8984H52.6917V102.867C52.6917 104.047 52.0823 104.773 50.9495 104.773C49.9026 104.773 49.3635 104.156 49.3635 102.938V97.8984H47.0901V103.5C47.0901 105.5 48.2463 106.68 50.1057 106.68C51.4104 106.68 52.2151 106.117 52.6213 105.117H52.762V106.5H54.9651V97.8984ZM60.3323 106.633C61.5276 106.633 62.5042 106.078 62.9651 105.148H63.1057V106.5H65.3088V94.6094H63.0354V99.2734H62.9026C62.4573 98.3203 61.4963 97.7578 60.3323 97.7578C58.1682 97.7578 56.8245 99.4531 56.8245 102.188C56.8245 104.93 58.1604 106.633 60.3323 106.633ZM61.1057 99.6016C62.3167 99.6016 63.0588 100.594 63.0588 102.203C63.0588 103.812 62.3245 104.797 61.1057 104.797C59.887 104.797 59.1604 103.82 59.1604 102.195C59.1604 100.578 59.8948 99.6016 61.1057 99.6016ZM70.0276 106.633C71.1448 106.633 72.0823 106.156 72.5276 105.359H72.6682V106.5H74.8713V100.625C74.8713 98.7891 73.5823 97.7109 71.301 97.7109C69.137 97.7109 67.676 98.7031 67.5276 100.281H69.6213C69.8088 99.7422 70.3557 99.4531 71.176 99.4531C72.1135 99.4531 72.6292 99.8828 72.6292 100.625V101.336L70.5432 101.461C68.4026 101.586 67.2073 102.492 67.2073 104.047C67.2073 105.617 68.3713 106.633 70.0276 106.633ZM70.7776 104.969C69.9885 104.969 69.4338 104.57 69.4338 103.906C69.4338 103.273 69.9104 102.906 70.887 102.844L72.6292 102.727V103.367C72.6292 104.273 71.8323 104.969 70.7776 104.969ZM77.1838 106.5H79.4573V101.547C79.4573 100.406 80.1135 99.6328 81.2542 99.6328C82.2854 99.6328 82.8401 100.258 82.8401 101.477V106.5H85.1135V100.961C85.1135 98.8984 84.012 97.7344 82.1604 97.7344C80.8948 97.7344 79.9573 98.3281 79.5588 99.3047H79.4182V94.6094H77.1838V106.5Z" fill="#2A6385"/>
</svg>
