<svg width="116" height="110" viewBox="0 0 116 110" fill="none" xmlns="http://www.w3.org/2000/svg">
<path d="M39.4662 32.6133L39.4638 32.602C39.394 32.2721 39.402 31.9313 39.487 31.6049C39.572 31.2785 39.7318 30.9754 39.9539 30.7179C40.1759 30.4605 40.4545 30.2553 40.7685 30.1169C41.0818 29.9789 41.4227 29.9107 41.7663 29.917H62.3172C62.6608 29.9107 63.0017 29.9789 63.315 30.1169C63.629 30.2553 63.9076 30.4605 64.1296 30.7179L63.9403 30.8812L64.1296 30.7179C64.3517 30.9754 64.5115 31.2785 64.5965 31.6049C64.6815 31.9313 64.6895 32.2721 64.6197 32.602L64.6174 32.6131L64.614 32.624L58.4911 52.4756C58.3716 52.9889 58.0727 53.4449 57.647 53.7674C57.2197 54.0912 56.6907 54.261 56.1501 54.2494L47.9316 54.2494C47.9314 54.2494 47.9312 54.2494 47.9311 54.2494H47.9306V53.9994L39.4662 32.6133ZM39.4662 32.6133L39.4696 32.6244M39.4662 32.6133L39.4696 32.6244M39.4696 32.6244L45.6336 52.4759L39.4696 32.6244ZM59.4605 34.3891L56.8794 41.8332H47.1236L44.6196 34.3891H59.4605Z" fill="#2A6385" stroke="#FFAA34" stroke-width="0.5"/>
<path d="M48.1387 13.5273C47.8219 14.2701 47.6614 15.0659 47.6669 15.8689V23.6403C47.6669 24.2255 47.9098 24.7845 48.3385 25.1948C48.7668 25.6048 49.3454 25.8333 49.9466 25.8333H54.0061C54.0061 25.8333 54.0061 25.8333 54.0061 25.8333C54.3079 25.8334 54.6068 25.7758 54.8856 25.6638C55.1644 25.5517 55.4178 25.3872 55.6306 25.1794C55.8434 24.9716 56.0114 24.7246 56.1241 24.4527C56.2366 24.1815 56.2916 23.8912 56.2859 23.5989V19.7153C56.2859 19.2699 56.4706 18.8404 56.8033 18.5219C57.1363 18.2031 57.5902 18.0222 58.0656 18.0222H76.3334H76.5834V17.7722V10V9.75H76.3334H54.0061C53.1716 9.74998 52.345 9.90799 51.5739 10.2152C50.8029 10.5223 50.1022 10.9728 49.5125 11.541C48.9228 12.1093 48.4557 12.7842 48.1387 13.5273Z" fill="#2A6385" stroke="#FFAA34" stroke-width="0.5"/>
<path d="M26.4766 87H29.0312L25.1172 75.7266H22.3438L18.4297 87H20.7969L21.6641 84.2656H25.625L26.4766 87ZM23.5859 78.0156H23.7266L25.125 82.5H22.1719L23.5859 78.0156ZM33.2188 81.7969H33.0781V75.1094H30.8047V87H33.0781V84.1094L33.7031 83.4609L36.2188 87H38.9141L35.4062 82.0859L38.6875 78.3984H36.1016L33.2188 81.7969ZM39.7969 80.9062C39.7969 82.2266 40.6094 83.0156 42.2812 83.3828L43.8438 83.7344C44.6016 83.9062 44.9297 84.1719 44.9297 84.6094C44.9297 85.1797 44.3203 85.5703 43.4375 85.5703C42.5312 85.5703 41.9766 85.2188 41.8047 84.625H39.5859C39.7422 86.25 41.1172 87.1797 43.3906 87.1797C45.6484 87.1797 47.1875 86.0703 47.1875 84.3672C47.1875 83.0859 46.4375 82.3828 44.7656 82.0156L43.1484 81.6641C42.3516 81.4844 41.9844 81.2109 41.9844 80.7734C41.9844 80.2109 42.5859 79.8281 43.3984 79.8281C44.2422 79.8281 44.7656 80.1797 44.8828 80.75H46.9844C46.8594 79.125 45.5703 78.2109 43.3828 78.2109C41.2344 78.2109 39.7969 79.2969 39.7969 80.9062ZM54.625 84.5703C54.3828 85.1562 53.7656 85.4844 52.8672 85.4844C51.6797 85.4844 50.9297 84.6641 50.8984 83.3516V83.2344H56.8125V82.5547C56.8125 79.8359 55.3125 78.2109 52.7734 78.2109C50.2109 78.2109 48.6328 79.9453 48.6328 82.7422C48.6328 85.5234 50.1797 87.1797 52.8047 87.1797C54.9141 87.1797 56.4062 86.1719 56.7422 84.5703H54.625ZM52.7812 79.9062C53.8438 79.9062 54.5312 80.6406 54.5781 81.8203H50.9062C50.9844 80.6641 51.7266 79.9062 52.7812 79.9062ZM58.4844 80.9062C58.4844 82.2266 59.2969 83.0156 60.9688 83.3828L62.5312 83.7344C63.2891 83.9062 63.6172 84.1719 63.6172 84.6094C63.6172 85.1797 63.0078 85.5703 62.125 85.5703C61.2188 85.5703 60.6641 85.2188 60.4922 84.625H58.2734C58.4297 86.25 59.8047 87.1797 62.0781 87.1797C64.3359 87.1797 65.875 86.0703 65.875 84.3672C65.875 83.0859 65.125 82.3828 63.4531 82.0156L61.8359 81.6641C61.0391 81.4844 60.6719 81.2109 60.6719 80.7734C60.6719 80.2109 61.2734 79.8281 62.0859 79.8281C62.9297 79.8281 63.4531 80.1797 63.5703 80.75H65.6719C65.5469 79.125 64.2578 78.2109 62.0703 78.2109C59.9219 78.2109 58.4844 79.2969 58.4844 80.9062ZM79.3359 87H81.8906L77.9766 75.7266H75.2031L71.2891 87H73.6562L74.5234 84.2656H78.4844L79.3359 87ZM76.4453 78.0156H76.5859L77.9844 82.5H75.0312L76.4453 78.0156ZM84.7422 77.0781C85.4453 77.0781 86.0234 76.5156 86.0234 75.8125C86.0234 75.1016 85.4453 74.5391 84.7422 74.5391C84.0391 74.5391 83.4531 75.1016 83.4531 75.8125C83.4531 76.5156 84.0391 77.0781 84.7422 77.0781ZM83.6016 87H85.875V78.3984H83.6016V87ZM88.1797 87H90.4531V82.1875C90.4531 80.9766 91.3047 80.2344 92.5469 80.2344C92.9141 80.2344 93.4453 80.2969 93.625 80.3594V78.3594C93.4297 78.2969 93.0469 78.2578 92.7344 78.2578C91.6406 78.2578 90.75 78.9062 90.5234 79.7656H90.3828V78.3984H88.1797V87ZM43.8906 106V94.7266H41.1172L37.9922 102.5H37.8516L34.7344 94.7266H31.9531V106H34.1406V98.3672H34.2656L37.1406 105.445H38.7109L41.5781 98.3672H41.7031V106H43.8906ZM54.1953 97.3984H51.9219V102.367C51.9219 103.547 51.3125 104.273 50.1797 104.273C49.1328 104.273 48.5938 103.656 48.5938 102.438V97.3984H46.3203V103C46.3203 105 47.4766 106.18 49.3359 106.18C50.6406 106.18 51.4453 105.617 51.8516 104.617H51.9922V106H54.1953V97.3984ZM59.5625 106.133C60.7578 106.133 61.7344 105.578 62.1953 104.648H62.3359V106H64.5391V94.1094H62.2656V98.7734H62.1328C61.6875 97.8203 60.7266 97.2578 59.5625 97.2578C57.3984 97.2578 56.0547 98.9531 56.0547 101.688C56.0547 104.43 57.3906 106.133 59.5625 106.133ZM60.3359 99.1016C61.5469 99.1016 62.2891 100.094 62.2891 101.703C62.2891 103.312 61.5547 104.297 60.3359 104.297C59.1172 104.297 58.3906 103.32 58.3906 101.695C58.3906 100.078 59.125 99.1016 60.3359 99.1016ZM69.2578 106.133C70.375 106.133 71.3125 105.656 71.7578 104.859H71.8984V106H74.1016V100.125C74.1016 98.2891 72.8125 97.2109 70.5312 97.2109C68.3672 97.2109 66.9062 98.2031 66.7578 99.7812H68.8516C69.0391 99.2422 69.5859 98.9531 70.4062 98.9531C71.3438 98.9531 71.8594 99.3828 71.8594 100.125V100.836L69.7734 100.961C67.6328 101.086 66.4375 101.992 66.4375 103.547C66.4375 105.117 67.6016 106.133 69.2578 106.133ZM70.0078 104.469C69.2188 104.469 68.6641 104.07 68.6641 103.406C68.6641 102.773 69.1406 102.406 70.1172 102.344L71.8594 102.227V102.867C71.8594 103.773 71.0625 104.469 70.0078 104.469ZM76.4141 106H78.6875V101.047C78.6875 99.9062 79.3438 99.1328 80.4844 99.1328C81.5156 99.1328 82.0703 99.7578 82.0703 100.977V106H84.3438V100.461C84.3438 98.3984 83.2422 97.2344 81.3906 97.2344C80.125 97.2344 79.1875 97.8281 78.7891 98.8047H78.6484V94.1094H76.4141V106Z" fill="#2A6385"/>
</svg>
