<svg width="111" height="111" viewBox="0 0 111 111" fill="none" xmlns="http://www.w3.org/2000/svg">
<path d="M71.3276 22.3686H75.4926C77.0757 22.3686 78.3509 22.7389 79.3184 23.4795C80.2858 24.2201 80.7695 25.4007 80.7695 27.0212V33.44C80.7695 33.8831 80.7664 34.2091 80.7601 34.418C80.7538 34.6269 80.7224 34.8833 80.6659 35.1872C80.6093 35.491 80.5277 35.7062 80.4209 35.8328C80.3141 35.9594 80.157 36.0734 79.9497 36.1747C79.7424 36.2759 79.4817 36.3266 79.1676 36.3266H77.5091V50.3606C77.5091 50.6771 77.4181 50.9461 77.2359 51.1677C77.0537 51.3892 76.837 51.5 76.5857 51.5H74.2676C74.1294 51.5 74.0226 51.4905 73.9472 51.4715C73.8718 51.4525 73.809 51.4082 73.7588 51.3386C73.7085 51.269 73.674 51.2056 73.6551 51.1487C73.6363 51.0917 73.6048 50.9873 73.5609 50.8353C73.5169 50.6834 73.4698 50.5441 73.4195 50.4175C73.3818 50.5062 73.3379 50.6233 73.2876 50.7689C73.2374 50.9145 73.2028 51.0126 73.184 51.0632C73.1651 51.1139 73.1337 51.1772 73.0897 51.2531C73.0457 51.3291 72.9986 51.3797 72.9484 51.405C72.8981 51.4304 72.8353 51.4525 72.7599 51.4715C72.6845 51.4905 72.5903 51.5 72.4772 51.5H70.2722C69.9958 51.5 69.7665 51.3924 69.5843 51.1772C69.4022 50.9619 69.3111 50.6897 69.3111 50.3606V36.3266H67.6526C67.3385 36.3266 67.0778 36.2759 66.8705 36.1747C66.6632 36.0734 66.5061 35.9594 66.3993 35.8328C66.2925 35.7062 66.2109 35.491 66.1543 35.1872C66.0978 34.8833 66.0664 34.6301 66.0601 34.4275C66.0538 34.225 66.0507 33.8958 66.0507 33.44V27.0212C66.0507 25.4007 66.5344 24.2201 67.5018 23.4795C68.4693 22.7389 69.7445 22.3686 71.3276 22.3686ZM73.4195 21.438C72.4144 21.438 71.5098 21.0424 70.7057 20.2511C69.9016 19.4599 69.4995 18.5262 69.4995 17.45C69.4995 16.3866 69.9016 15.4624 70.7057 14.6774C71.5098 13.8925 72.4144 13.5 73.4195 13.5C74.4247 13.5 75.3324 13.8925 76.1428 14.6774C76.9532 15.4624 77.3584 16.3866 77.3584 17.45C77.3584 18.5262 76.9532 19.4599 76.1428 20.2511C75.3324 21.0424 74.4247 21.438 73.4195 21.438ZM54.1776 22.3686H58.3615C59.9445 22.3686 61.2166 22.7389 62.1778 23.4795C63.139 24.2201 63.6195 25.4007 63.6195 27.0212V34.1997L63.5913 34.7884L63.497 35.3296L63.3274 35.7379L63.0541 36.0702L62.6301 36.2506L62.0365 36.3266H60.3591V50.3606C60.3591 50.6771 60.2681 50.9461 60.0859 51.1677C59.9037 51.3892 59.687 51.5 59.4357 51.5H57.1365C56.9731 51.5 56.8443 51.4747 56.7501 51.424C56.6559 51.3734 56.5931 51.3259 56.5616 51.2816C56.5302 51.2373 56.4863 51.1107 56.4297 50.9018C56.3732 50.6929 56.3198 50.5315 56.2695 50.4175C56.2318 50.5188 56.1847 50.6549 56.1282 50.8258C56.0716 50.9968 56.0308 51.1044 56.0057 51.1487C55.9806 51.193 55.9397 51.2531 55.8832 51.3291C55.8266 51.405 55.7575 51.4525 55.6759 51.4715C55.5942 51.4905 55.4843 51.5 55.3461 51.5H53.1222C52.8458 51.5 52.6197 51.3924 52.4438 51.1772C52.2679 50.9619 52.1799 50.6897 52.1799 50.3606V36.3266H50.5026C50.2765 36.3266 50.0786 36.3013 49.909 36.2506C49.7393 36.2 49.598 36.1398 49.4849 36.0702C49.3718 36.0006 49.2807 35.8866 49.2116 35.7284C49.1425 35.5701 49.086 35.4372 49.042 35.3296C48.9981 35.222 48.9666 35.0416 48.9478 34.7884C48.929 34.5351 48.9195 34.3389 48.9195 34.1997V27.0212C48.9195 25.4007 49.4001 24.2201 50.3613 23.4795C51.3224 22.7389 52.5945 22.3686 54.1776 22.3686ZM56.2695 21.438C55.2644 21.438 54.3598 21.0424 53.5557 20.2511C52.7516 19.4599 52.3495 18.5262 52.3495 17.45C52.3495 16.3866 52.7516 15.4624 53.5557 14.6774C54.3598 13.8925 55.2644 13.5 56.2695 13.5C57.2747 13.5 58.1824 13.8925 58.9928 14.6774C59.8032 15.4624 60.2084 16.3866 60.2084 17.45C60.2084 18.5262 59.8032 19.4599 58.9928 20.2511C58.1824 21.0424 57.2747 21.438 56.2695 21.438ZM37.0465 22.3686H41.2115C42.7945 22.3686 44.0698 22.7389 45.0372 23.4795C46.0047 24.2201 46.4884 25.4007 46.4884 27.0212V33.44C46.4884 33.8831 46.4852 34.2091 46.479 34.418C46.4727 34.6269 46.4413 34.8833 46.3847 35.1872C46.3282 35.491 46.2465 35.7062 46.1397 35.8328C46.0329 35.9594 45.8759 36.0734 45.6686 36.1747C45.4613 36.2759 45.2006 36.3266 44.8865 36.3266H43.228V50.3606C43.228 50.6771 43.1338 50.9461 42.9453 51.1677C42.7568 51.3892 42.537 51.5 42.2857 51.5H39.9865C39.8231 51.5 39.6943 51.4747 39.6001 51.424C39.5059 51.3734 39.4431 51.3259 39.4116 51.2816C39.3802 51.2373 39.3363 51.1107 39.2797 50.9018C39.2232 50.6929 39.1698 50.5315 39.1195 50.4175C39.0818 50.5188 39.0347 50.6549 38.9782 50.8258C38.9216 50.9968 38.8808 51.1044 38.8557 51.1487C38.8306 51.193 38.7897 51.2531 38.7332 51.3291C38.6766 51.405 38.6075 51.4525 38.5259 51.4715C38.4442 51.4905 38.3343 51.5 38.1961 51.5H35.9911C35.7147 51.5 35.4854 51.3924 35.3032 51.1772C35.121 50.9619 35.0299 50.6897 35.0299 50.3606V36.3266H33.3715C33.0574 36.3266 32.7966 36.2696 32.5893 36.1557C32.382 36.0417 32.225 35.9151 32.1182 35.7759C32.0114 35.6366 31.9297 35.4087 31.8732 35.0922C31.8166 34.7757 31.7852 34.5098 31.779 34.2946C31.7727 34.0794 31.7695 33.7439 31.7695 33.2881V26.8693C31.7695 23.8688 33.5285 22.3686 37.0465 22.3686ZM39.1195 21.438C38.1144 21.438 37.2098 21.0424 36.4057 20.2511C35.6016 19.4599 35.1995 18.5262 35.1995 17.45C35.1995 16.3866 35.6016 15.4624 36.4057 14.6774C37.2098 13.8925 38.1144 13.5 39.1195 13.5C40.1247 13.5 41.0356 13.8925 41.8522 14.6774C42.6689 15.4624 43.0772 16.3866 43.0772 17.45C43.0772 18.5262 42.6689 19.4599 41.8522 20.2511C41.0356 21.0424 40.1247 21.438 39.1195 21.438Z" fill="#2A6385"/>
<path d="M20.3789 87.5V76.2266H17.6055L14.4805 84H14.3398L11.2227 76.2266H8.44141V87.5H10.6289V79.8672H10.7539L13.6289 86.9453H15.1992L18.0664 79.8672H18.1914V87.5H20.3789ZM25.2461 87.6328C26.3633 87.6328 27.3008 87.1562 27.7461 86.3594H27.8867V87.5H30.0898V81.625C30.0898 79.7891 28.8008 78.7109 26.5195 78.7109C24.3555 78.7109 22.8945 79.7031 22.7461 81.2812H24.8398C25.0273 80.7422 25.5742 80.4531 26.3945 80.4531C27.332 80.4531 27.8477 80.8828 27.8477 81.625V82.3359L25.7617 82.4609C23.6211 82.5859 22.4258 83.4922 22.4258 85.0469C22.4258 86.6172 23.5898 87.6328 25.2461 87.6328ZM25.9961 85.9688C25.207 85.9688 24.6523 85.5703 24.6523 84.9062C24.6523 84.2734 25.1289 83.9062 26.1055 83.8438L27.8477 83.7266V84.3672C27.8477 85.2734 27.0508 85.9688 25.9961 85.9688ZM32.1289 81.4062C32.1289 82.7266 32.9414 83.5156 34.6133 83.8828L36.1758 84.2344C36.9336 84.4062 37.2617 84.6719 37.2617 85.1094C37.2617 85.6797 36.6523 86.0703 35.7695 86.0703C34.8633 86.0703 34.3086 85.7188 34.1367 85.125H31.918C32.0742 86.75 33.4492 87.6797 35.7227 87.6797C37.9805 87.6797 39.5195 86.5703 39.5195 84.8672C39.5195 83.5859 38.7695 82.8828 37.0977 82.5156L35.4805 82.1641C34.6836 81.9844 34.3164 81.7109 34.3164 81.2734C34.3164 80.7109 34.918 80.3281 35.7305 80.3281C36.5742 80.3281 37.0977 80.6797 37.2148 81.25H39.3164C39.1914 79.625 37.9023 78.7109 35.7148 78.7109C33.5664 78.7109 32.1289 79.7969 32.1289 81.4062ZM42.2227 90.625C44.3711 90.625 45.4258 89.8594 46.1602 87.6641L49.1289 78.8984H46.7227L44.9102 85.4609H44.7695L42.957 78.8984H40.4492L43.4727 87.5469L43.3945 87.875C43.207 88.5703 42.7227 88.8516 41.8711 88.8516C41.7773 88.8516 41.4336 88.8438 41.3555 88.8281V90.6016C41.4492 90.6172 42.1367 90.625 42.2227 90.625ZM52.793 87.6328C53.9102 87.6328 54.8477 87.1562 55.293 86.3594H55.4336V87.5H57.6367V81.625C57.6367 79.7891 56.3477 78.7109 54.0664 78.7109C51.9023 78.7109 50.4414 79.7031 50.293 81.2812H52.3867C52.5742 80.7422 53.1211 80.4531 53.9414 80.4531C54.8789 80.4531 55.3945 80.8828 55.3945 81.625V82.3359L53.3086 82.4609C51.168 82.5859 49.9727 83.4922 49.9727 85.0469C49.9727 86.6172 51.1367 87.6328 52.793 87.6328ZM53.543 85.9688C52.7539 85.9688 52.1992 85.5703 52.1992 84.9062C52.1992 84.2734 52.6758 83.9062 53.6523 83.8438L55.3945 83.7266V84.3672C55.3945 85.2734 54.5977 85.9688 53.543 85.9688ZM59.8711 87.5H62.1445V82.6875C62.1445 81.4766 62.9961 80.7344 64.2383 80.7344C64.6055 80.7344 65.1367 80.7969 65.3164 80.8594V78.8594C65.1211 78.7969 64.7383 78.7578 64.4258 78.7578C63.332 78.7578 62.4414 79.4062 62.2148 80.2656H62.0742V78.8984H59.8711V87.5ZM69.043 87.6328C70.1602 87.6328 71.0977 87.1562 71.543 86.3594H71.6836V87.5H73.8867V81.625C73.8867 79.7891 72.5977 78.7109 70.3164 78.7109C68.1523 78.7109 66.6914 79.7031 66.543 81.2812H68.6367C68.8242 80.7422 69.3711 80.4531 70.1914 80.4531C71.1289 80.4531 71.6445 80.8828 71.6445 81.625V82.3359L69.5586 82.4609C67.418 82.5859 66.2227 83.4922 66.2227 85.0469C66.2227 86.6172 67.3867 87.6328 69.043 87.6328ZM69.793 85.9688C69.0039 85.9688 68.4492 85.5703 68.4492 84.9062C68.4492 84.2734 68.9258 83.9062 69.9023 83.8438L71.6445 83.7266V84.3672C71.6445 85.2734 70.8477 85.9688 69.793 85.9688ZM78.6133 82.2969H78.4727V75.6094H76.1992V87.5H78.4727V84.6094L79.0977 83.9609L81.6133 87.5H84.3086L80.8008 82.5859L84.082 78.8984H81.4961L78.6133 82.2969ZM87.793 87.6328C88.9102 87.6328 89.8477 87.1562 90.293 86.3594H90.4336V87.5H92.6367V81.625C92.6367 79.7891 91.3477 78.7109 89.0664 78.7109C86.9023 78.7109 85.4414 79.7031 85.293 81.2812H87.3867C87.5742 80.7422 88.1211 80.4531 88.9414 80.4531C89.8789 80.4531 90.3945 80.8828 90.3945 81.625V82.3359L88.3086 82.4609C86.168 82.5859 84.9727 83.4922 84.9727 85.0469C84.9727 86.6172 86.1367 87.6328 87.793 87.6328ZM88.543 85.9688C87.7539 85.9688 87.1992 85.5703 87.1992 84.9062C87.1992 84.2734 87.6758 83.9062 88.6523 83.8438L90.3945 83.7266V84.3672C90.3945 85.2734 89.5977 85.9688 88.543 85.9688ZM95.5195 76.8438V78.9766H94.1758V80.7031H95.5195V85.1797C95.5195 86.8516 96.3477 87.5312 98.4414 87.5312C98.8789 87.5312 99.3008 87.4844 99.582 87.4297V85.75C99.3633 85.7734 99.207 85.7891 98.9102 85.7891C98.1367 85.7891 97.793 85.4297 97.793 84.6562V80.7031H99.582V78.9766H97.793V76.8438H95.5195ZM26.0977 106.5V97.1719H29.4805V95.2266H20.3555V97.1719H23.7383V106.5H26.0977ZM35.4258 104.07C35.1836 104.656 34.5664 104.984 33.668 104.984C32.4805 104.984 31.7305 104.164 31.6992 102.852V102.734H37.6133V102.055C37.6133 99.3359 36.1133 97.7109 33.5742 97.7109C31.0117 97.7109 29.4336 99.4453 29.4336 102.242C29.4336 105.023 30.9805 106.68 33.6055 106.68C35.7148 106.68 37.207 105.672 37.543 104.07H35.4258ZM33.582 99.4062C34.6445 99.4062 35.332 100.141 35.3789 101.32H31.707C31.7852 100.164 32.5273 99.4062 33.582 99.4062ZM39.4805 106.5H41.7539V101.688C41.7539 100.477 42.6055 99.7344 43.8477 99.7344C44.2148 99.7344 44.7461 99.7969 44.9258 99.8594V97.8594C44.7305 97.7969 44.3477 97.7578 44.0352 97.7578C42.9414 97.7578 42.0508 98.4062 41.8242 99.2656H41.6836V97.8984H39.4805V106.5ZM51.5273 106.633C53.6914 106.633 55.0195 104.953 55.0195 102.195C55.0195 99.4219 53.707 97.7578 51.5273 97.7578C50.3477 97.7578 49.3789 98.3281 48.9414 99.2734H48.8008V94.6094H46.5273V106.5H48.7305V105.148H48.8711C49.332 106.086 50.3086 106.633 51.5273 106.633ZM50.7383 99.6016C51.9414 99.6016 52.6836 100.594 52.6836 102.195C52.6836 103.812 51.9492 104.797 50.7383 104.797C49.5352 104.797 48.7852 103.805 48.7773 102.203C48.7852 100.602 49.543 99.6016 50.7383 99.6016ZM59.2305 106.633C60.3477 106.633 61.2852 106.156 61.7305 105.359H61.8711V106.5H64.0742V100.625C64.0742 98.7891 62.7852 97.7109 60.5039 97.7109C58.3398 97.7109 56.8789 98.7031 56.7305 100.281H58.8242C59.0117 99.7422 59.5586 99.4531 60.3789 99.4531C61.3164 99.4531 61.832 99.8828 61.832 100.625V101.336L59.7461 101.461C57.6055 101.586 56.4102 102.492 56.4102 104.047C56.4102 105.617 57.5742 106.633 59.2305 106.633ZM59.9805 104.969C59.1914 104.969 58.6367 104.57 58.6367 103.906C58.6367 103.273 59.1133 102.906 60.0898 102.844L61.832 102.727V103.367C61.832 104.273 61.0352 104.969 59.9805 104.969ZM66.3086 106.5H68.582V101.523C68.582 100.359 69.2305 99.6094 70.2852 99.6094C71.3633 99.6094 71.8711 100.242 71.8711 101.453V106.5H74.1445V100.938C74.1445 98.8828 73.1133 97.7109 71.1992 97.7109C69.9258 97.7109 69.0508 98.3125 68.6523 99.2812H68.5117V97.8984H66.3086V106.5ZM77.0039 95.8438V97.9766H75.6602V99.7031H77.0039V104.18C77.0039 105.852 77.832 106.531 79.9258 106.531C80.3633 106.531 80.7852 106.484 81.0664 106.43V104.75C80.8477 104.773 80.6914 104.789 80.3945 104.789C79.6211 104.789 79.2773 104.43 79.2773 103.656V99.7031H81.0664V97.9766H79.2773V95.8438H77.0039ZM90.7617 97.8984H88.4883V102.867C88.4883 104.047 87.8789 104.773 86.7461 104.773C85.6992 104.773 85.1602 104.156 85.1602 102.938V97.8984H82.8867V103.5C82.8867 105.5 84.043 106.68 85.9023 106.68C87.207 106.68 88.0117 106.117 88.418 105.117H88.5586V106.5H90.7617V97.8984Z" fill="#2A6385"/>
</svg>
