<svg width="93" height="110" viewBox="0 0 93 110" fill="none" xmlns="http://www.w3.org/2000/svg">
<path d="M47.2024 19.0452L47 18.7662L46.7976 19.0452C43.6919 23.3264 41.3628 27.0038 39.8089 30.0154C38.26 33.0174 37.4643 35.3897 37.4643 37.05C37.4643 39.5699 38.4692 41.9863 40.2576 43.7679C42.0459 45.5493 44.4713 46.55 47 46.55C49.5287 46.55 51.9541 45.5493 53.7424 43.7679C55.5308 41.9863 56.5357 39.5699 56.5357 37.05C56.5357 35.3897 55.74 33.0174 54.1911 30.0154C52.6372 27.0038 50.3081 23.3264 47.2024 19.0452ZM47 13.4104C51.2303 18.9274 54.4056 23.6502 56.5303 27.581C58.6921 31.5804 59.75 34.7307 59.75 37.05C59.75 40.4179 58.4069 43.6481 56.016 46.0299C53.6249 48.4117 50.3818 49.75 47 49.75C43.6182 49.75 40.3751 48.4117 37.984 46.0299C35.5931 43.6481 34.25 40.4179 34.25 37.05C34.25 34.7307 35.3079 31.5804 37.4697 27.581C39.5944 23.6502 42.7697 18.9274 47 13.4104Z" fill="#2A6385" stroke="#FFAA34" stroke-width="0.5"/>
<path d="M4.14844 87V83.5547L5.26562 82.2109L8.53906 87H11.3672L6.96875 80.6641L11.0781 75.7266H8.45312L4.28906 80.7891H4.14844V75.7266H1.78906V87H4.14844ZM20.1719 78.3984H17.8984V83.3672C17.8984 84.5469 17.2891 85.2734 16.1562 85.2734C15.1094 85.2734 14.5703 84.6562 14.5703 83.4375V78.3984H12.2969V84C12.2969 86 13.4531 87.1797 15.3125 87.1797C16.6172 87.1797 17.4219 86.6172 17.8281 85.6172H17.9688V87H20.1719V78.3984ZM24.8125 87.1328C25.9297 87.1328 26.8672 86.6562 27.3125 85.8594H27.4531V87H29.6562V81.125C29.6562 79.2891 28.3672 78.2109 26.0859 78.2109C23.9219 78.2109 22.4609 79.2031 22.3125 80.7812H24.4062C24.5938 80.2422 25.1406 79.9531 25.9609 79.9531C26.8984 79.9531 27.4141 80.3828 27.4141 81.125V81.8359L25.3281 81.9609C23.1875 82.0859 21.9922 82.9922 21.9922 84.5469C21.9922 86.1172 23.1562 87.1328 24.8125 87.1328ZM25.5625 85.4688C24.7734 85.4688 24.2188 85.0703 24.2188 84.4062C24.2188 83.7734 24.6953 83.4062 25.6719 83.3438L27.4141 83.2266V83.8672C27.4141 84.7734 26.6172 85.4688 25.5625 85.4688ZM31.9688 87H34.2422V75.1094H31.9688V87ZM37.7656 77.0781C38.4688 77.0781 39.0469 76.5156 39.0469 75.8125C39.0469 75.1016 38.4688 74.5391 37.7656 74.5391C37.0625 74.5391 36.4766 75.1016 36.4766 75.8125C36.4766 76.5156 37.0625 77.0781 37.7656 77.0781ZM36.625 87H38.8984V78.3984H36.625V87ZM41.8516 76.3438V78.4766H40.5078V80.2031H41.8516V84.6797C41.8516 86.3516 42.6797 87.0312 44.7734 87.0312C45.2109 87.0312 45.6328 86.9844 45.9141 86.9297V85.25C45.6953 85.2734 45.5391 85.2891 45.2422 85.2891C44.4688 85.2891 44.125 84.9297 44.125 84.1562V80.2031H45.9141V78.4766H44.125V76.3438H41.8516ZM50.1719 87.1328C51.2891 87.1328 52.2266 86.6562 52.6719 85.8594H52.8125V87H55.0156V81.125C55.0156 79.2891 53.7266 78.2109 51.4453 78.2109C49.2812 78.2109 47.8203 79.2031 47.6719 80.7812H49.7656C49.9531 80.2422 50.5 79.9531 51.3203 79.9531C52.2578 79.9531 52.7734 80.3828 52.7734 81.125V81.8359L50.6875 81.9609C48.5469 82.0859 47.3516 82.9922 47.3516 84.5469C47.3516 86.1172 48.5156 87.1328 50.1719 87.1328ZM50.9219 85.4688C50.1328 85.4688 49.5781 85.0703 49.5781 84.4062C49.5781 83.7734 50.0547 83.4062 51.0312 83.3438L52.7734 83.2266V83.8672C52.7734 84.7734 51.9766 85.4688 50.9219 85.4688ZM57.0547 80.9062C57.0547 82.2266 57.8672 83.0156 59.5391 83.3828L61.1016 83.7344C61.8594 83.9062 62.1875 84.1719 62.1875 84.6094C62.1875 85.1797 61.5781 85.5703 60.6953 85.5703C59.7891 85.5703 59.2344 85.2188 59.0625 84.625H56.8438C57 86.25 58.375 87.1797 60.6484 87.1797C62.9062 87.1797 64.4453 86.0703 64.4453 84.3672C64.4453 83.0859 63.6953 82.3828 62.0234 82.0156L60.4062 81.6641C59.6094 81.4844 59.2422 81.2109 59.2422 80.7734C59.2422 80.2109 59.8438 79.8281 60.6562 79.8281C61.5 79.8281 62.0234 80.1797 62.1406 80.75H64.2422C64.1172 79.125 62.8281 78.2109 60.6406 78.2109C58.4922 78.2109 57.0547 79.2969 57.0547 80.9062ZM77.9062 87H80.4609L76.5469 75.7266H73.7734L69.8594 87H72.2266L73.0938 84.2656H77.0547L77.9062 87ZM75.0156 78.0156H75.1562L76.5547 82.5H73.6016L75.0156 78.0156ZM83.3125 77.0781C84.0156 77.0781 84.5938 76.5156 84.5938 75.8125C84.5938 75.1016 84.0156 74.5391 83.3125 74.5391C82.6094 74.5391 82.0234 75.1016 82.0234 75.8125C82.0234 76.5156 82.6094 77.0781 83.3125 77.0781ZM82.1719 87H84.4453V78.3984H82.1719V87ZM86.75 87H89.0234V82.1875C89.0234 80.9766 89.875 80.2344 91.1172 80.2344C91.4844 80.2344 92.0156 80.2969 92.1953 80.3594V78.3594C92 78.2969 91.6172 78.2578 91.3047 78.2578C90.2109 78.2578 89.3203 78.9062 89.0938 79.7656H88.9531V78.3984H86.75V87ZM17.4688 106V94.7266H14.6953L11.5703 102.5H11.4297L8.3125 94.7266H5.53125V106H7.71875V98.3672H7.84375L10.7188 105.445H12.2891L15.1562 98.3672H15.2812V106H17.4688ZM25.5469 103.57C25.3047 104.156 24.6875 104.484 23.7891 104.484C22.6016 104.484 21.8516 103.664 21.8203 102.352V102.234H27.7344V101.555C27.7344 98.8359 26.2344 97.2109 23.6953 97.2109C21.1328 97.2109 19.5547 98.9453 19.5547 101.742C19.5547 104.523 21.1016 106.18 23.7266 106.18C25.8359 106.18 27.3281 105.172 27.6641 103.57H25.5469ZM23.7031 98.9062C24.7656 98.9062 25.4531 99.6406 25.5 100.82H21.8281C21.9062 99.6641 22.6484 98.9062 23.7031 98.9062ZM29.6016 106H31.875V101.023C31.875 99.8594 32.5234 99.1094 33.5781 99.1094C34.6562 99.1094 35.1641 99.7422 35.1641 100.953V106H37.4375V100.438C37.4375 98.3828 36.4062 97.2109 34.4922 97.2109C33.2188 97.2109 32.3438 97.8125 31.9453 98.7812H31.8047V97.3984H29.6016V106ZM40.8047 96.0781C41.5078 96.0781 42.0859 95.5156 42.0859 94.8125C42.0859 94.1016 41.5078 93.5391 40.8047 93.5391C40.1016 93.5391 39.5156 94.1016 39.5156 94.8125C39.5156 95.5156 40.1016 96.0781 40.8047 96.0781ZM39.6641 106H41.9375V97.3984H39.6641V106ZM44.2422 106H46.5156V101.023C46.5156 99.8594 47.1641 99.1094 48.2188 99.1094C49.2969 99.1094 49.8047 99.7422 49.8047 100.953V106H52.0781V100.438C52.0781 98.3828 51.0469 97.2109 49.1328 97.2109C47.8594 97.2109 46.9844 97.8125 46.5859 98.7812H46.4453V97.3984H44.2422V106ZM58.0859 109.258C60.6875 109.258 62.3359 107.992 62.3359 105.984V97.3984H60.1328V98.7734H59.9922C59.5312 97.8359 58.5391 97.2578 57.375 97.2578C55.1875 97.2578 53.8438 98.9609 53.8438 101.625C53.8438 104.203 55.1797 105.875 57.3281 105.875C58.5391 105.875 59.4453 105.383 59.9219 104.477H60.0625V106.078C60.0625 107.07 59.3516 107.648 58.1328 107.648C57.1484 107.648 56.5078 107.305 56.3906 106.758H54.1406C54.2812 108.266 55.7969 109.258 58.0859 109.258ZM58.1172 104.133C56.8828 104.133 56.1797 103.164 56.1797 101.617C56.1797 100.07 56.8906 99.1016 58.1172 99.1016C59.3438 99.1016 60.0859 100.07 60.0859 101.617C60.0859 103.164 59.3516 104.133 58.1172 104.133ZM67.1094 100.797H66.9688V94.1094H64.6953V106H66.9688V103.109L67.5938 102.461L70.1094 106H72.8047L69.2969 101.086L72.5781 97.3984H69.9922L67.1094 100.797ZM76.2891 106.133C77.4062 106.133 78.3438 105.656 78.7891 104.859H78.9297V106H81.1328V100.125C81.1328 98.2891 79.8438 97.2109 77.5625 97.2109C75.3984 97.2109 73.9375 98.2031 73.7891 99.7812H75.8828C76.0703 99.2422 76.6172 98.9531 77.4375 98.9531C78.375 98.9531 78.8906 99.3828 78.8906 100.125V100.836L76.8047 100.961C74.6641 101.086 73.4688 101.992 73.4688 103.547C73.4688 105.117 74.6328 106.133 76.2891 106.133ZM77.0391 104.469C76.25 104.469 75.6953 104.07 75.6953 103.406C75.6953 102.773 76.1719 102.406 77.1484 102.344L78.8906 102.227V102.867C78.8906 103.773 78.0938 104.469 77.0391 104.469ZM84.0156 95.3438V97.4766H82.6719V99.2031H84.0156V103.68C84.0156 105.352 84.8438 106.031 86.9375 106.031C87.375 106.031 87.7969 105.984 88.0781 105.93V104.25C87.8594 104.273 87.7031 104.289 87.4062 104.289C86.6328 104.289 86.2891 103.93 86.2891 103.156V99.2031H88.0781V97.4766H86.2891V95.3438H84.0156Z" fill="#2A6385"/>
</svg>
