<svg width="94" height="111" viewBox="0 0 94 111" fill="none" xmlns="http://www.w3.org/2000/svg">
<path d="M38.4841 37.55C38.4841 40.0033 39.4624 42.356 41.2038 44.0907C42.9452 45.8255 45.3071 46.8 47.7698 46.8C50.2325 46.8 52.5944 45.8255 54.3358 44.0907C56.0772 42.356 57.0555 40.0033 57.0555 37.55C57.0555 34.3569 53.9726 28.2427 47.7698 19.692C41.5669 28.2427 38.4841 34.3569 38.4841 37.55ZM47.7698 13.5C56.4371 24.7665 60.7698 32.7826 60.7698 37.55C60.7698 40.9846 59.4001 44.2784 56.9622 46.707C54.5242 49.1356 51.2176 50.5 47.7698 50.5C44.322 50.5 41.0154 49.1356 38.5774 46.707C36.1394 44.2784 34.7698 40.9846 34.7698 37.55C34.7698 32.7826 39.1025 24.7665 47.7698 13.5Z" fill="#2A6385"/>
<path d="M4.91821 87.5V84.0547L6.0354 82.7109L9.30884 87.5H12.137L7.73853 81.1641L11.8479 76.2266H9.2229L5.05884 81.2891H4.91821V76.2266H2.55884V87.5H4.91821ZM20.9417 78.8984H18.6682V83.8672C18.6682 85.0469 18.0588 85.7734 16.926 85.7734C15.8792 85.7734 15.3401 85.1562 15.3401 83.9375V78.8984H13.0667V84.5C13.0667 86.5 14.2229 87.6797 16.0823 87.6797C17.387 87.6797 18.1917 87.1172 18.5979 86.1172H18.7385V87.5H20.9417V78.8984ZM25.5823 87.6328C26.6995 87.6328 27.637 87.1562 28.0823 86.3594H28.2229V87.5H30.426V81.625C30.426 79.7891 29.137 78.7109 26.8557 78.7109C24.6917 78.7109 23.2307 79.7031 23.0823 81.2812H25.176C25.3635 80.7422 25.9104 80.4531 26.7307 80.4531C27.6682 80.4531 28.1838 80.8828 28.1838 81.625V82.3359L26.0979 82.4609C23.9573 82.5859 22.762 83.4922 22.762 85.0469C22.762 86.6172 23.926 87.6328 25.5823 87.6328ZM26.3323 85.9688C25.5432 85.9688 24.9885 85.5703 24.9885 84.9062C24.9885 84.2734 25.4651 83.9062 26.4417 83.8438L28.1838 83.7266V84.3672C28.1838 85.2734 27.387 85.9688 26.3323 85.9688ZM32.7385 87.5H35.012V75.6094H32.7385V87.5ZM38.5354 77.5781C39.2385 77.5781 39.8167 77.0156 39.8167 76.3125C39.8167 75.6016 39.2385 75.0391 38.5354 75.0391C37.8323 75.0391 37.2463 75.6016 37.2463 76.3125C37.2463 77.0156 37.8323 77.5781 38.5354 77.5781ZM37.3948 87.5H39.6682V78.8984H37.3948V87.5ZM42.6213 76.8438V78.9766H41.2776V80.7031H42.6213V85.1797C42.6213 86.8516 43.4495 87.5312 45.5432 87.5312C45.9807 87.5312 46.4026 87.4844 46.6838 87.4297V85.75C46.4651 85.7734 46.3088 85.7891 46.012 85.7891C45.2385 85.7891 44.8948 85.4297 44.8948 84.6562V80.7031H46.6838V78.9766H44.8948V76.8438H42.6213ZM50.9417 87.6328C52.0588 87.6328 52.9963 87.1562 53.4417 86.3594H53.5823V87.5H55.7854V81.625C55.7854 79.7891 54.4963 78.7109 52.2151 78.7109C50.051 78.7109 48.5901 79.7031 48.4417 81.2812H50.5354C50.7229 80.7422 51.2698 80.4531 52.0901 80.4531C53.0276 80.4531 53.5432 80.8828 53.5432 81.625V82.3359L51.4573 82.4609C49.3167 82.5859 48.1213 83.4922 48.1213 85.0469C48.1213 86.6172 49.2854 87.6328 50.9417 87.6328ZM51.6917 85.9688C50.9026 85.9688 50.3479 85.5703 50.3479 84.9062C50.3479 84.2734 50.8245 83.9062 51.801 83.8438L53.5432 83.7266V84.3672C53.5432 85.2734 52.7463 85.9688 51.6917 85.9688ZM57.8245 81.4062C57.8245 82.7266 58.637 83.5156 60.3088 83.8828L61.8713 84.2344C62.6292 84.4062 62.9573 84.6719 62.9573 85.1094C62.9573 85.6797 62.3479 86.0703 61.4651 86.0703C60.5588 86.0703 60.0042 85.7188 59.8323 85.125H57.6135C57.7698 86.75 59.1448 87.6797 61.4182 87.6797C63.676 87.6797 65.2151 86.5703 65.2151 84.8672C65.2151 83.5859 64.4651 82.8828 62.7932 82.5156L61.176 82.1641C60.3792 81.9844 60.012 81.7109 60.012 81.2734C60.012 80.7109 60.6135 80.3281 61.426 80.3281C62.2698 80.3281 62.7932 80.6797 62.9104 81.25H65.012C64.887 79.625 63.5979 78.7109 61.4104 78.7109C59.262 78.7109 57.8245 79.7969 57.8245 81.4062ZM78.676 87.5H81.2307L77.3167 76.2266H74.5432L70.6292 87.5H72.9963L73.8635 84.7656H77.8245L78.676 87.5ZM75.7854 78.5156H75.926L77.3245 83H74.3713L75.7854 78.5156ZM84.0823 77.5781C84.7854 77.5781 85.3635 77.0156 85.3635 76.3125C85.3635 75.6016 84.7854 75.0391 84.0823 75.0391C83.3792 75.0391 82.7932 75.6016 82.7932 76.3125C82.7932 77.0156 83.3792 77.5781 84.0823 77.5781ZM82.9417 87.5H85.2151V78.8984H82.9417V87.5ZM87.5198 87.5H89.7932V82.6875C89.7932 81.4766 90.6448 80.7344 91.887 80.7344C92.2542 80.7344 92.7854 80.7969 92.9651 80.8594V78.8594C92.7698 78.7969 92.387 78.7578 92.0745 78.7578C90.9807 78.7578 90.0901 79.4062 89.8635 80.2656H89.7229V78.8984H87.5198V87.5ZM18.2385 106.5V95.2266H15.4651L12.3401 103H12.1995L9.08228 95.2266H6.30103V106.5H8.48853V98.8672H8.61353L11.4885 105.945H13.0588L15.926 98.8672H16.051V106.5H18.2385ZM26.3167 104.07C26.0745 104.656 25.4573 104.984 24.5588 104.984C23.3713 104.984 22.6213 104.164 22.5901 102.852V102.734H28.5042V102.055C28.5042 99.3359 27.0042 97.7109 24.4651 97.7109C21.9026 97.7109 20.3245 99.4453 20.3245 102.242C20.3245 105.023 21.8713 106.68 24.4963 106.68C26.6057 106.68 28.0979 105.672 28.4338 104.07H26.3167ZM24.4729 99.4062C25.5354 99.4062 26.2229 100.141 26.2698 101.32H22.5979C22.676 100.164 23.4182 99.4062 24.4729 99.4062ZM30.3713 106.5H32.6448V101.523C32.6448 100.359 33.2932 99.6094 34.3479 99.6094C35.426 99.6094 35.9338 100.242 35.9338 101.453V106.5H38.2073V100.938C38.2073 98.8828 37.176 97.7109 35.262 97.7109C33.9885 97.7109 33.1135 98.3125 32.7151 99.2812H32.5745V97.8984H30.3713V106.5ZM41.5745 96.5781C42.2776 96.5781 42.8557 96.0156 42.8557 95.3125C42.8557 94.6016 42.2776 94.0391 41.5745 94.0391C40.8713 94.0391 40.2854 94.6016 40.2854 95.3125C40.2854 96.0156 40.8713 96.5781 41.5745 96.5781ZM40.4338 106.5H42.7073V97.8984H40.4338V106.5ZM45.012 106.5H47.2854V101.523C47.2854 100.359 47.9338 99.6094 48.9885 99.6094C50.0667 99.6094 50.5745 100.242 50.5745 101.453V106.5H52.8479V100.938C52.8479 98.8828 51.8167 97.7109 49.9026 97.7109C48.6292 97.7109 47.7542 98.3125 47.3557 99.2812H47.2151V97.8984H45.012V106.5ZM58.8557 109.758C61.4573 109.758 63.1057 108.492 63.1057 106.484V97.8984H60.9026V99.2734H60.762C60.301 98.3359 59.3088 97.7578 58.1448 97.7578C55.9573 97.7578 54.6135 99.4609 54.6135 102.125C54.6135 104.703 55.9495 106.375 58.0979 106.375C59.3088 106.375 60.2151 105.883 60.6917 104.977H60.8323V106.578C60.8323 107.57 60.1213 108.148 58.9026 108.148C57.9182 108.148 57.2776 107.805 57.1604 107.258H54.9104C55.051 108.766 56.5667 109.758 58.8557 109.758ZM58.887 104.633C57.6526 104.633 56.9495 103.664 56.9495 102.117C56.9495 100.57 57.6604 99.6016 58.887 99.6016C60.1135 99.6016 60.8557 100.57 60.8557 102.117C60.8557 103.664 60.1213 104.633 58.887 104.633ZM67.8792 101.297H67.7385V94.6094H65.4651V106.5H67.7385V103.609L68.3635 102.961L70.8792 106.5H73.5745L70.0667 101.586L73.3479 97.8984H70.762L67.8792 101.297ZM77.0588 106.633C78.176 106.633 79.1135 106.156 79.5588 105.359H79.6995V106.5H81.9026V100.625C81.9026 98.7891 80.6135 97.7109 78.3323 97.7109C76.1682 97.7109 74.7073 98.7031 74.5588 100.281H76.6526C76.8401 99.7422 77.387 99.4531 78.2073 99.4531C79.1448 99.4531 79.6604 99.8828 79.6604 100.625V101.336L77.5745 101.461C75.4338 101.586 74.2385 102.492 74.2385 104.047C74.2385 105.617 75.4026 106.633 77.0588 106.633ZM77.8088 104.969C77.0198 104.969 76.4651 104.57 76.4651 103.906C76.4651 103.273 76.9417 102.906 77.9182 102.844L79.6604 102.727V103.367C79.6604 104.273 78.8635 104.969 77.8088 104.969ZM84.7854 95.8438V97.9766H83.4417V99.7031H84.7854V104.18C84.7854 105.852 85.6135 106.531 87.7073 106.531C88.1448 106.531 88.5667 106.484 88.8479 106.43V104.75C88.6292 104.773 88.4729 104.789 88.176 104.789C87.4026 104.789 87.0588 104.43 87.0588 103.656V99.7031H88.8479V97.9766H87.0588V95.8438H84.7854Z" fill="#2A6385"/>
</svg>
