<svg width="164" height="43" viewBox="0 0 164 43" fill="none" xmlns="http://www.w3.org/2000/svg">
<path d="M7.53055 34.4471C5.49408 34.4471 3.84923 33.8193 2.59601 32.6423C1.3428 31.3869 0.716187 29.7391 0.716187 27.6989C0.716187 26.4434 0.951165 25.4234 1.49945 24.4818C2.04773 23.5401 2.83099 22.677 3.92755 21.9708C5.02412 21.2646 6.43399 20.7153 8.15716 20.2445C9.4887 19.8522 11.0552 19.5383 12.8567 19.3029C13.7183 19.146 14.3449 18.2828 14.0316 17.4197C13.875 16.8704 13.64 16.3996 13.3267 15.9288C13.0134 15.458 12.6217 15.1442 12.0735 14.9088C11.5252 14.6734 10.8986 14.5164 10.1153 14.5164C9.01875 14.5164 7.84386 14.7518 6.74729 15.1442C6.12068 15.3796 5.49408 15.6934 4.86747 16.0073C4.16253 16.3996 3.22262 16.1642 2.83099 15.3796L2.28271 14.5164C1.89108 13.8102 2.12606 12.8686 2.90932 12.4763C3.84923 11.927 4.86747 11.5347 5.96403 11.0639C7.53055 10.4361 9.25373 10.2007 11.1336 10.2007C14.0316 10.2007 16.1464 11.0639 17.5563 12.7901C18.9662 14.5164 19.7494 16.9489 19.7494 20.1661V33.8978H17.8696C16.3814 33.8978 15.1282 32.7993 14.8932 31.3869H14.7365C13.7183 32.25 12.6217 33.0347 11.3685 33.5839C10.1936 34.1332 8.94042 34.4471 7.53055 34.4471ZM9.25373 30.2099C10.1936 30.2099 11.0552 29.9745 11.7602 29.5821C12.5434 29.1113 13.405 28.4836 14.2666 27.6989V22.5201C12.7001 22.677 11.3685 22.9909 10.3503 23.3047C9.25373 23.6186 8.39214 24.0109 7.76553 24.4033C7.13892 24.7956 6.66897 25.188 6.35566 25.7372C6.04236 26.2865 5.96403 26.7573 5.96403 27.3066C5.96403 28.3266 6.27734 29.1113 6.90394 29.5821C7.53055 29.9745 8.31381 30.2099 9.25373 30.2099ZM45.832 43C42.8556 43 40.4275 40.5675 40.4275 37.5858V35.3887L40.5058 33.8193C40.5058 33.0347 39.7226 32.5639 39.0176 32.8777L37.6861 33.5839C36.5895 34.1332 35.4146 34.3686 34.2397 34.3686C31.3417 34.3686 28.9919 33.3485 27.2687 31.2299C25.5455 29.1113 24.7623 26.1296 24.7623 22.2847C24.7623 20.4015 24.9973 18.6752 25.5455 17.1843C26.0938 15.6934 26.8771 14.438 27.7387 13.3394C28.6786 12.3193 29.6968 11.5347 30.8717 10.9069C32.0466 10.3577 33.2998 10.0438 34.553 10.0438C35.8846 10.0438 36.9811 10.2792 37.9994 10.75C39.0176 11.2208 39.9575 11.8485 40.9758 12.7901H41.1324C41.3674 11.5347 42.5423 10.5931 43.8738 10.5931H45.9103L45.832 43ZM35.5713 29.9745C37.2945 29.9745 38.9393 29.1113 40.4275 27.385V16.635C39.6442 15.9288 38.7826 15.3796 37.9994 15.1442C37.2161 14.8303 36.5112 14.7518 35.7279 14.7518C34.2397 14.7518 32.9865 15.3796 31.89 16.7135C30.8717 18.0474 30.3234 19.9307 30.3234 22.3631C30.3234 24.8741 30.7934 26.7573 31.655 28.0912C32.5949 29.3467 33.8481 29.9745 35.5713 29.9745ZM59.539 34.4471C57.0326 34.4471 55.2311 33.6624 54.1346 32.0931C53.038 30.5237 52.4114 28.2482 52.4114 25.2664V10.75H57.8942V24.5602C57.8942 26.4434 58.2075 27.8558 58.7558 28.6405C59.3041 29.4252 60.244 29.8175 61.4972 29.8175C62.5154 29.8175 63.377 29.5821 64.1603 29.0328C64.9435 28.562 65.8051 27.6989 66.6667 26.6004V10.75H71.9929V33.8978H70.9746C69.0165 33.8978 67.3717 32.4069 67.1367 30.5237H66.98C65.9618 31.7007 64.8652 32.6423 63.6903 33.427C62.5154 34.0547 61.1839 34.4471 59.539 34.4471ZM78.8073 28.4836V14.6734C78.8073 12.5547 80.5304 10.8285 82.6452 10.8285H84.2118V33.9763C81.2354 33.8978 78.8073 31.4653 78.8073 28.4836ZM81.5487 6.74818C80.6088 6.74818 79.7472 6.43431 79.1206 5.88504C78.494 5.33577 78.1806 4.55109 78.1806 3.68796C78.1806 2.74635 78.494 2.04015 79.1206 1.49088C79.7472 0.863139 80.5304 0.627737 81.5487 0.627737C82.4886 0.627737 83.3502 0.941606 83.9768 1.49088C84.6034 2.04015 84.9167 2.82482 84.9167 3.68796C84.9167 4.62956 84.6034 5.33577 83.9768 5.88504C83.3502 6.43431 82.4886 6.74818 81.5487 6.74818ZM92.0444 28.4836V15.0657C90.3212 15.0657 88.9113 13.6533 88.9113 11.927V10.9854L92.0444 10.75V8.31752C92.0444 7.14051 92.201 6.04197 92.436 5.0219C92.7493 4.00183 93.1409 3.13869 93.7675 2.35401C94.3941 1.56934 95.1774 1.02007 96.1173 0.627737C97.0572 0.235401 98.2321 0 99.642 0C100.425 0 101.209 0.0784671 101.913 0.235401C102.697 0.392336 103.323 0.54927 103.872 0.784672L102.853 4.86496C101.992 4.47263 101.13 4.31569 100.347 4.31569C98.3888 4.31569 97.4489 5.64964 97.4489 8.23905V10.75H97.6838C100.034 10.75 101.992 12.6332 101.992 15.0657H97.4489V33.8978C94.4725 33.8978 92.0444 31.4653 92.0444 28.4836ZM115.464 34.4471C113.897 34.4471 112.409 34.2117 110.999 33.6624C109.589 33.1131 108.414 32.3285 107.396 31.2299C106.378 30.2099 105.516 28.9544 104.968 27.4635C104.42 25.9726 104.107 24.2463 104.107 22.3631C104.107 20.4799 104.42 18.7536 104.968 17.2628C105.595 15.7719 106.378 14.5164 107.318 13.4179C108.336 12.3978 109.433 11.6131 110.764 10.9854C112.018 10.4361 113.349 10.1223 114.681 10.1223C116.247 10.1223 117.657 10.3577 118.832 10.9069C120.007 11.4562 121.025 12.1624 121.808 13.1825C122.592 14.1241 123.218 15.3011 123.61 16.635C124.001 17.969 124.236 19.4599 124.236 21.0292C124.236 21.5785 124.236 22.0493 124.158 22.5201C124.08 23.1478 123.61 23.6186 122.983 23.6186H111.391C110.294 23.6186 109.511 24.7172 109.824 25.7372C110.216 26.8358 110.764 27.6989 111.548 28.4051C112.801 29.5036 114.289 30.0529 116.169 30.0529C117.187 30.0529 118.127 29.896 118.91 29.6606C120.477 29.1113 122.2 29.6606 122.983 31.1515L123.296 31.7792C122.2 32.4854 120.947 33.1131 119.615 33.5839C118.284 34.2117 116.874 34.4471 115.464 34.4471ZM109.276 20.1661H119.537C119.537 18.3613 119.145 16.9489 118.362 16.0073C117.579 14.9872 116.404 14.438 114.837 14.438C113.427 14.438 112.252 14.9088 111.234 15.9288C110.138 16.792 109.511 18.2828 109.276 20.1661ZM129.406 28.4836V10.75H133.87L134.262 14.8303H134.419C135.202 13.3394 136.22 12.1624 137.395 11.3777C138.57 10.5931 139.745 10.1223 140.998 10.1223C142.095 10.1223 142.956 10.2792 143.661 10.5931L142.721 15.3011C142.33 15.1442 141.938 15.0657 141.625 14.9872C141.311 14.9088 140.841 14.9088 140.372 14.9088C139.432 14.9088 138.492 15.3011 137.473 16.0073C136.455 16.7135 135.594 17.8905 134.889 19.6953V33.8193C131.834 33.8978 129.406 31.4653 129.406 28.4836ZM151.259 34.4471C149.222 34.4471 147.578 33.8193 146.324 32.6423C145.071 31.3869 144.444 29.7391 144.444 27.6989C144.444 26.4434 144.679 25.4234 145.228 24.4818C145.776 23.5401 146.559 22.677 147.656 21.9708C148.752 21.2646 150.162 20.7153 151.885 20.2445C153.609 19.7737 155.645 19.3814 158.073 19.146C158.073 18.5182 157.917 17.969 157.76 17.4197C157.603 16.8704 157.368 16.3996 157.055 15.9288C156.742 15.458 156.35 15.1442 155.802 14.9088C155.253 14.6734 154.627 14.5164 153.844 14.5164C152.747 14.5164 151.572 14.7518 150.476 15.1442C149.379 15.615 148.361 16.0858 147.343 16.7135L145.384 13.104C146.638 12.3193 148.126 11.6131 149.692 10.9854C151.259 10.3577 152.982 10.1223 154.862 10.1223C157.76 10.1223 159.875 10.9854 161.285 12.7117C162.694 14.438 163.478 16.8704 163.478 20.0876V33.8193H161.598C160.11 33.8193 158.856 32.7208 158.622 31.3084H158.465C157.447 32.1715 156.35 32.9562 155.097 33.5055C153.922 34.1332 152.669 34.4471 151.259 34.4471ZM152.982 30.2099C153.922 30.2099 154.784 29.9745 155.488 29.5821C156.272 29.1113 157.133 28.4836 157.995 27.6989V22.5201C156.428 22.677 155.097 22.9909 154.079 23.3047C152.982 23.6186 152.12 24.0109 151.494 24.4033C150.867 24.7956 150.397 25.188 150.084 25.7372C149.771 26.208 149.692 26.7573 149.692 27.3066C149.692 28.3266 150.006 29.1113 150.632 29.5821C151.259 29.9745 152.042 30.2099 152.982 30.2099Z" fill="white"/>
</svg>
