<svg width="120" height="85" viewBox="0 0 120 85" fill="none" xmlns="http://www.w3.org/2000/svg">
<path d="M38.9138 72.7546C22.2743 72.7546 8.7865 59.2668 8.7865 42.6273C8.7865 25.9927 22.2744 12.5 38.9138 12.5H74.9598H76.269C92.9085 12.5 106.396 25.9927 106.396 42.6273C106.396 59.2668 92.9085 72.7546 76.269 72.7546H74.9599H38.9138Z" fill="#2A6385" stroke="white"/>
<path fill-rule="evenodd" clip-rule="evenodd" d="M11.9393 42.6273C11.9393 57.5256 24.0155 69.6019 38.9138 69.6019H76.269C91.1673 69.6019 103.244 57.5256 103.244 42.6273C103.244 27.7336 91.1669 15.6528 76.269 15.6528H38.9138C24.0159 15.6528 11.9393 27.7336 11.9393 42.6273ZM8.2865 42.6273C8.2865 59.543 21.9982 73.2546 38.9138 73.2546H76.269C93.1847 73.2546 106.896 59.543 106.896 42.6273C106.896 25.7166 93.1847 12 76.269 12H38.9138C21.9982 12 8.2865 25.7166 8.2865 42.6273Z" fill="#2A6385"/>
<g opacity="0.15" filter="url(#filter0_f)">
<path d="M77.0289 72.7676C93.7059 72.7676 107.225 59.2482 107.225 42.5713C107.225 25.8943 93.7059 12.375 77.0289 12.375C60.352 12.375 46.8326 25.8943 46.8326 42.5713C46.8326 59.2482 60.352 72.7676 77.0289 72.7676Z" fill="black"/>
</g>
<path d="M78.5035 69.1421C93.1706 69.1421 105.061 57.2521 105.061 42.585C105.061 27.9179 93.1706 16.0278 78.5035 16.0278C63.8364 16.0278 51.9464 27.9179 51.9464 42.585C51.9464 57.2521 63.8364 69.1421 78.5035 69.1421Z" fill="white"/>
<path fill-rule="evenodd" clip-rule="evenodd" d="M108.714 42.5849C108.714 59.2694 95.1881 72.7948 78.5036 72.7948C61.8191 72.7948 48.2937 59.2694 48.2937 42.5849C48.2937 25.9004 61.8191 12.375 78.5036 12.375C95.1881 12.375 108.714 25.9004 108.714 42.5849ZM105.061 42.5849C105.061 57.252 93.1707 69.142 78.5036 69.142C63.8365 69.142 51.9465 57.252 51.9465 42.5849C51.9465 27.9178 63.8365 16.0278 78.5036 16.0278C93.1707 16.0278 105.061 27.9178 105.061 42.5849Z" fill="#2A6385"/>
<path fill-rule="evenodd" clip-rule="evenodd" d="M108.714 42.5849C108.714 59.2694 95.1881 72.7948 78.5036 72.7948C61.8191 72.7948 48.2937 59.2694 48.2937 42.5849C48.2937 25.9004 61.8191 12.375 78.5036 12.375C95.1881 12.375 108.714 25.9004 108.714 42.5849ZM105.061 42.5849C105.061 57.252 93.1707 69.142 78.5036 69.142C63.8365 69.142 51.9465 57.252 51.9465 42.5849C51.9465 27.9178 63.8365 16.0278 78.5036 16.0278C93.1707 16.0278 105.061 27.9178 105.061 42.5849Z" fill="white" fill-opacity="0.25"/>
<path d="M88.0122 31.7181C89.8089 31.7181 91.2654 30.2616 91.2654 28.4649C91.2654 26.6682 89.8089 25.2117 88.0122 25.2117C86.2155 25.2117 84.759 26.6682 84.759 28.4649C84.759 30.2616 86.2155 31.7181 88.0122 31.7181Z" fill="#2A6385"/>
<path fill-rule="evenodd" clip-rule="evenodd" d="M66.3423 44.908C65.7714 51.818 71.0424 58.851 78.8039 58.6935C89.1196 58.4819 95.5522 44.0467 85.2364 36.0786C83.1349 34.4544 81.6535 31.6737 81.432 29.3409C81.1761 26.6438 81.8602 25.1575 79.798 26.3239C78.2576 27.2 76.9878 28.3319 75.7328 29.3409C69.9006 34.041 66.8 39.3466 66.3423 44.908Z" fill="#2A6385"/>
<defs>
<filter id="filter0_f" x="34.8326" y="0.375" width="84.3926" height="84.3926" filterUnits="userSpaceOnUse" color-interpolation-filters="sRGB">
<feFlood flood-opacity="0" result="BackgroundImageFix"/>
<feBlend mode="normal" in="SourceGraphic" in2="BackgroundImageFix" result="shape"/>
<feGaussianBlur stdDeviation="6" result="effect1_foregroundBlur"/>
</filter>
</defs>
</svg>
