<svg width="64" height="64" viewBox="0 0 64 64" fill="none" xmlns="http://www.w3.org/2000/svg">
<path d="M32 53.3333C43.7333 53.3333 53.3333 43.7333 53.3333 31.9999C53.3333 20.2666 43.7333 10.6666 32 10.6666C20.2666 10.6666 10.6666 20.2666 10.6666 31.9999C10.6666 43.7333 20.2666 53.3333 32 53.3333ZM32 5.33325C46.6666 5.33325 58.6666 17.3333 58.6666 31.9999C58.6666 46.6666 46.6666 58.6666 32 58.6666C17.3333 58.6666 5.33331 46.6666 5.33331 31.9999C5.33331 17.3333 17.3333 5.33325 32 5.33325ZM33.3333 34.1333L20.5333 41.5999L18.6666 37.8666L29.3333 31.7333V18.6666H33.3333V34.1333Z" fill="#2A6385"/>
</svg>
