<svg width="409" height="286" viewBox="0 0 409 286" fill="none" xmlns="http://www.w3.org/2000/svg">
<path d="M67.514 269V266.651L68.3051 265.753L70.6683 269H72.0355L69.0765 265.011L71.8011 261.954H70.5072L67.5922 265.284H67.514V261.954H66.4203V269H67.514ZM76.1517 267.579C75.9564 268.009 75.5219 268.243 74.8871 268.243C74.0472 268.243 73.5052 267.638 73.4711 266.676V266.627H77.226V266.266C77.226 264.605 76.3324 263.595 74.8529 263.595C73.3539 263.595 72.4017 264.674 72.4017 266.358C72.4017 268.053 73.3344 269.103 74.8578 269.103C76.0736 269.103 76.933 268.517 77.1625 267.579H76.1517ZM74.848 264.449C75.6244 264.449 76.1322 265.011 76.1566 265.87H73.4711C73.5297 265.016 74.0717 264.449 74.848 264.449ZM78.8568 262.359V263.712H78.0121V264.552H78.8568V267.604C78.8568 268.624 79.3207 269.034 80.4877 269.034C80.6927 269.034 80.8881 269.01 81.059 268.98V268.146C80.9125 268.16 80.8197 268.17 80.6586 268.17C80.1361 268.17 79.9066 267.921 79.9066 267.35V264.552H81.059V263.712H79.9066V262.359H78.8568ZM85.722 267.579C85.5267 268.009 85.0922 268.243 84.4574 268.243C83.6176 268.243 83.0756 267.638 83.0414 266.676V266.627H86.7963V266.266C86.7963 264.605 85.9027 263.595 84.4232 263.595C82.9242 263.595 81.972 264.674 81.972 266.358C81.972 268.053 82.9047 269.103 84.4281 269.103C85.6439 269.103 86.5033 268.517 86.7328 267.579H85.722ZM84.4183 264.449C85.1947 264.449 85.7025 265.011 85.7269 265.87H83.0414C83.1 265.016 83.642 264.449 84.4183 264.449ZM88.056 269H89.1058V265.831C89.1058 265.084 89.6674 264.571 90.4633 264.571C90.6488 264.571 90.9613 264.605 91.0492 264.63V263.644C90.9369 263.619 90.7367 263.604 90.5804 263.604C89.8871 263.604 89.2963 263.98 89.1449 264.503H89.0668V263.697H88.056V269ZM91.8304 265.182C91.8304 265.968 92.2992 266.417 93.3099 266.651L94.2377 266.871C94.7699 266.998 95.0189 267.213 95.0189 267.545C95.0189 267.979 94.5551 268.282 93.9008 268.282C93.266 268.282 92.8754 268.023 92.7435 267.608H91.6937C91.7865 268.531 92.6117 269.103 93.8763 269.103C95.1459 269.103 96.0785 268.434 96.0785 267.447C96.0785 266.676 95.6049 266.241 94.5941 266.007L93.7103 265.802C93.1342 265.665 92.8656 265.46 92.8656 265.133C92.8656 264.703 93.3099 264.415 93.8959 264.415C94.4916 264.415 94.8724 264.674 94.9701 265.069H95.976C95.8734 264.151 95.0922 263.595 93.8959 263.595C92.6947 263.595 91.8304 264.259 91.8304 265.182ZM100.829 267.579C100.634 268.009 100.2 268.243 99.5648 268.243C98.725 268.243 98.183 267.638 98.1488 266.676V266.627H101.904V266.266C101.904 264.605 101.01 263.595 99.5306 263.595C98.0316 263.595 97.0795 264.674 97.0795 266.358C97.0795 268.053 98.0121 269.103 99.5355 269.103C100.751 269.103 101.611 268.517 101.84 267.579H100.829ZM99.5258 264.449C100.302 264.449 100.81 265.011 100.834 265.87H98.1488C98.2074 265.016 98.7494 264.449 99.5258 264.449ZM105.107 269.088C105.839 269.088 106.459 268.741 106.777 268.16H106.86V269H107.866V261.617H106.816V264.537H106.738C106.45 263.956 105.834 263.604 105.107 263.604C103.764 263.604 102.9 264.674 102.9 266.344C102.9 268.023 103.754 269.088 105.107 269.088ZM105.405 264.503C106.284 264.503 106.835 265.216 106.835 266.349C106.835 267.491 106.288 268.189 105.405 268.189C104.516 268.189 103.984 267.501 103.984 266.349C103.984 265.201 104.521 264.503 105.405 264.503ZM109.985 262.75C110.351 262.75 110.649 262.452 110.649 262.091C110.649 261.725 110.351 261.427 109.985 261.427C109.619 261.427 109.321 261.725 109.321 262.091C109.321 262.452 109.619 262.75 109.985 262.75ZM109.462 269H110.507V263.697H109.462V269ZM113.52 269.088C114.218 269.088 114.799 268.785 115.117 268.248H115.2V269H116.21V265.372C116.21 264.259 115.458 263.595 114.125 263.595C112.919 263.595 112.06 264.176 111.953 265.069H112.968C113.085 264.684 113.491 264.464 114.077 264.464C114.794 264.464 115.165 264.791 115.165 265.372V265.836L113.725 265.924C112.46 266.002 111.747 266.554 111.747 267.506C111.747 268.473 112.495 269.088 113.52 269.088ZM113.788 268.243C113.217 268.243 112.802 267.955 112.802 267.462C112.802 266.979 113.134 266.72 113.867 266.671L115.165 266.583V267.042C115.165 267.726 114.579 268.243 113.788 268.243ZM119.174 269.088C119.872 269.088 120.453 268.785 120.771 268.248H120.854V269H121.865V265.372C121.865 264.259 121.113 263.595 119.78 263.595C118.574 263.595 117.714 264.176 117.607 265.069H118.622C118.74 264.684 119.145 264.464 119.731 264.464C120.449 264.464 120.82 264.791 120.82 265.372V265.836L119.379 265.924C118.115 266.002 117.402 266.554 117.402 267.506C117.402 268.473 118.149 269.088 119.174 269.088ZM119.443 268.243C118.871 268.243 118.456 267.955 118.456 267.462C118.456 266.979 118.788 266.72 119.521 266.671L120.82 266.583V267.042C120.82 267.726 120.234 268.243 119.443 268.243ZM123.359 269H124.409V265.89C124.409 265.035 124.902 264.508 125.678 264.508C126.454 264.508 126.826 264.938 126.826 265.816V269H127.875V265.567C127.875 264.303 127.221 263.595 126.035 263.595C125.234 263.595 124.706 263.951 124.448 264.537H124.37V263.697H123.359V269ZM136.772 269H137.934L135.39 261.954H134.213L131.669 269H132.792L133.442 267.096H136.127L136.772 269ZM134.745 263.199H134.828L135.849 266.217H133.72L134.745 263.199ZM139.584 262.75C139.951 262.75 140.248 262.452 140.248 262.091C140.248 261.725 139.951 261.427 139.584 261.427C139.218 261.427 138.92 261.725 138.92 262.091C138.92 262.452 139.218 262.75 139.584 262.75ZM139.062 269H140.107V263.697H139.062V269ZM141.65 269H142.7V265.831C142.7 265.084 143.261 264.571 144.057 264.571C144.243 264.571 144.555 264.605 144.643 264.63V263.644C144.531 263.619 144.33 263.604 144.174 263.604C143.481 263.604 142.89 263.98 142.739 264.503H142.661V263.697H141.65V269ZM59.7699 283V280.651L60.5609 279.753L62.9242 283H64.2914L61.3324 279.011L64.057 275.954H62.7631L59.848 279.284H59.7699V275.954H58.6761V283H59.7699ZM68.4076 281.579C68.2123 282.009 67.7777 282.243 67.1429 282.243C66.3031 282.243 65.7611 281.638 65.7269 280.676V280.627H69.4818V280.266C69.4818 278.605 68.5883 277.595 67.1088 277.595C65.6097 277.595 64.6576 278.674 64.6576 280.358C64.6576 282.053 65.5902 283.103 67.1136 283.103C68.3295 283.103 69.1888 282.517 69.4183 281.579H68.4076ZM67.1039 278.449C67.8802 278.449 68.3881 279.011 68.4125 279.87H65.7269C65.7855 279.016 66.3275 278.449 67.1039 278.449ZM71.1127 276.359V277.712H70.2679V278.552H71.1127V281.604C71.1127 282.624 71.5765 283.034 72.7435 283.034C72.9486 283.034 73.1439 283.01 73.3148 282.98V282.146C73.1683 282.16 73.0756 282.17 72.9144 282.17C72.392 282.17 72.1625 281.921 72.1625 281.35V278.552H73.3148V277.712H72.1625V276.359H71.1127ZM75.0922 276.75C75.4584 276.75 75.7562 276.452 75.7562 276.091C75.7562 275.725 75.4584 275.427 75.0922 275.427C74.726 275.427 74.4281 275.725 74.4281 276.091C74.4281 276.452 74.726 276.75 75.0922 276.75ZM74.5697 283H75.6146V277.697H74.5697V283ZM78.3392 279.934H78.2562V275.617H77.2064V283H78.2562V281.071L78.7201 280.627L80.5463 283H81.8353L79.5013 279.968L81.6888 277.697H80.4486L78.3392 279.934ZM84.1058 283.088C84.8041 283.088 85.3851 282.785 85.7025 282.248H85.7855V283H86.7963V279.372C86.7963 278.259 86.0443 277.595 84.7113 277.595C83.5052 277.595 82.6459 278.176 82.5385 279.069H83.5541C83.6713 278.684 84.0765 278.464 84.6625 278.464C85.3802 278.464 85.7513 278.791 85.7513 279.372V279.836L84.3109 279.924C83.0463 280.002 82.3334 280.554 82.3334 281.506C82.3334 282.473 83.0804 283.088 84.1058 283.088ZM84.3744 282.243C83.8031 282.243 83.3881 281.955 83.3881 281.462C83.3881 280.979 83.7201 280.72 84.4525 280.671L85.7513 280.583V281.042C85.7513 281.726 85.1654 282.243 84.3744 282.243ZM98.2758 283V275.954H96.9965L94.7504 281.467H94.6674L92.4261 275.954H91.1469V283H92.1625V277.839H92.2308L94.2963 282.873H95.1263L97.1918 277.839H97.2601V283H98.2758ZM104.404 277.697H103.354V280.808C103.354 281.662 102.89 282.18 102.04 282.18C101.269 282.18 100.922 281.76 100.922 280.881V277.697H99.8724V281.14C99.8724 282.385 100.527 283.103 101.703 283.103C102.509 283.103 103.051 282.761 103.31 282.16H103.393V283H104.404V277.697ZM105.805 279.182C105.805 279.968 106.274 280.417 107.285 280.651L108.212 280.871C108.745 280.998 108.994 281.213 108.994 281.545C108.994 281.979 108.53 282.282 107.875 282.282C107.241 282.282 106.85 282.023 106.718 281.608H105.668C105.761 282.531 106.586 283.103 107.851 283.103C109.12 283.103 110.053 282.434 110.053 281.447C110.053 280.676 109.579 280.241 108.569 280.007L107.685 279.802C107.109 279.665 106.84 279.46 106.84 279.133C106.84 278.703 107.285 278.415 107.87 278.415C108.466 278.415 108.847 278.674 108.945 279.069H109.951C109.848 278.151 109.067 277.595 107.87 277.595C106.669 277.595 105.805 278.259 105.805 279.182ZM111.86 276.75C112.226 276.75 112.524 276.452 112.524 276.091C112.524 275.725 112.226 275.427 111.86 275.427C111.494 275.427 111.196 275.725 111.196 276.091C111.196 276.452 111.494 276.75 111.86 276.75ZM111.337 283H112.382V277.697H111.337V283ZM113.925 283H114.975V279.743C114.975 279.05 115.458 278.508 116.098 278.508C116.723 278.508 117.123 278.884 117.123 279.489V283H118.154V279.646C118.154 279.006 118.598 278.508 119.277 278.508C119.965 278.508 120.307 278.864 120.307 279.597V283H121.357V279.343C121.357 278.239 120.732 277.595 119.658 277.595C118.92 277.595 118.31 277.971 118.041 278.542H117.958C117.724 277.971 117.221 277.595 116.494 277.595C115.786 277.595 115.248 277.946 115.014 278.542H114.936V277.697H113.925V283ZM131.489 283V275.954H130.4V278.933H126.782V275.954H125.688V283H126.782V279.88H130.4V283H131.489ZM137.617 277.697H136.567V280.808C136.567 281.662 136.103 282.18 135.253 282.18C134.482 282.18 134.135 281.76 134.135 280.881V277.697H133.085V281.14C133.085 282.385 133.74 283.103 134.916 283.103C135.722 283.103 136.264 282.761 136.523 282.16H136.606V283H137.617V277.697ZM139.692 276.75C140.053 276.75 140.356 276.452 140.356 276.091C140.356 275.725 140.053 275.427 139.692 275.427C139.326 275.427 139.028 275.725 139.028 276.091C139.028 276.452 139.326 276.75 139.692 276.75ZM140.204 277.697H139.16V283.225C139.16 283.757 138.964 283.972 138.403 283.972C138.388 283.972 138.271 283.972 138.256 283.972V284.812C138.281 284.812 138.452 284.816 138.491 284.816C139.643 284.816 140.204 284.318 140.204 283.229V277.697ZM143.217 283.088C143.915 283.088 144.496 282.785 144.814 282.248H144.897V283H145.908V279.372C145.908 278.259 145.156 277.595 143.823 277.595C142.617 277.595 141.757 278.176 141.65 279.069H142.665C142.783 278.684 143.188 278.464 143.774 278.464C144.492 278.464 144.863 278.791 144.863 279.372V279.836L143.422 279.924C142.158 280.002 141.445 280.554 141.445 281.506C141.445 282.473 142.192 283.088 143.217 283.088ZM143.486 282.243C142.914 282.243 142.499 281.955 142.499 281.462C142.499 280.979 142.831 280.72 143.564 280.671L144.863 280.583V281.042C144.863 281.726 144.277 282.243 143.486 282.243ZM147.402 283H148.452V279.89C148.452 279.035 148.945 278.508 149.721 278.508C150.497 278.508 150.869 278.938 150.869 279.816V283H151.918V279.567C151.918 278.303 151.264 277.595 150.078 277.595C149.277 277.595 148.749 277.951 148.491 278.537H148.412V277.697H147.402V283Z" fill="#2A6385"/>
<path d="M267.014 269V266.651L267.805 265.753L270.168 269H271.536L268.577 265.011L271.301 261.954H270.007L267.092 265.284H267.014V261.954H265.92V269H267.014ZM275.652 267.579C275.456 268.009 275.022 268.243 274.387 268.243C273.547 268.243 273.005 267.638 272.971 266.676V266.627H276.726V266.266C276.726 264.605 275.832 263.595 274.353 263.595C272.854 263.595 271.902 264.674 271.902 266.358C271.902 268.053 272.834 269.103 274.358 269.103C275.574 269.103 276.433 268.517 276.662 267.579H275.652ZM274.348 264.449C275.124 264.449 275.632 265.011 275.657 265.87H272.971C273.03 265.016 273.572 264.449 274.348 264.449ZM278.357 262.359V263.712H277.512V264.552H278.357V267.604C278.357 268.624 278.821 269.034 279.988 269.034C280.193 269.034 280.388 269.01 280.559 268.98V268.146C280.412 268.16 280.32 268.17 280.159 268.17C279.636 268.17 279.407 267.921 279.407 267.35V264.552H280.559V263.712H279.407V262.359H278.357ZM285.222 267.579C285.027 268.009 284.592 268.243 283.957 268.243C283.118 268.243 282.576 267.638 282.541 266.676V266.627H286.296V266.266C286.296 264.605 285.403 263.595 283.923 263.595C282.424 263.595 281.472 264.674 281.472 266.358C281.472 268.053 282.405 269.103 283.928 269.103C285.144 269.103 286.003 268.517 286.233 267.579H285.222ZM283.918 264.449C284.695 264.449 285.203 265.011 285.227 265.87H282.541C282.6 265.016 283.142 264.449 283.918 264.449ZM287.556 269H288.606V265.831C288.606 265.084 289.167 264.571 289.963 264.571C290.149 264.571 290.461 264.605 290.549 264.63V263.644C290.437 263.619 290.237 263.604 290.08 263.604C289.387 263.604 288.796 263.98 288.645 264.503H288.567V263.697H287.556V269ZM291.33 265.182C291.33 265.968 291.799 266.417 292.81 266.651L293.738 266.871C294.27 266.998 294.519 267.213 294.519 267.545C294.519 267.979 294.055 268.282 293.401 268.282C292.766 268.282 292.375 268.023 292.244 267.608H291.194C291.286 268.531 292.112 269.103 293.376 269.103C294.646 269.103 295.578 268.434 295.578 267.447C295.578 266.676 295.105 266.241 294.094 266.007L293.21 265.802C292.634 265.665 292.366 265.46 292.366 265.133C292.366 264.703 292.81 264.415 293.396 264.415C293.992 264.415 294.372 264.674 294.47 265.069H295.476C295.373 264.151 294.592 263.595 293.396 263.595C292.195 263.595 291.33 264.259 291.33 265.182ZM300.329 267.579C300.134 268.009 299.7 268.243 299.065 268.243C298.225 268.243 297.683 267.638 297.649 266.676V266.627H301.404V266.266C301.404 264.605 300.51 263.595 299.031 263.595C297.532 263.595 296.579 264.674 296.579 266.358C296.579 268.053 297.512 269.103 299.036 269.103C300.251 269.103 301.111 268.517 301.34 267.579H300.329ZM299.026 264.449C299.802 264.449 300.31 265.011 300.334 265.87H297.649C297.707 265.016 298.249 264.449 299.026 264.449ZM304.607 269.088C305.339 269.088 305.959 268.741 306.277 268.16H306.36V269H307.366V261.617H306.316V264.537H306.238C305.95 263.956 305.334 263.604 304.607 263.604C303.264 263.604 302.4 264.674 302.4 266.344C302.4 268.023 303.254 269.088 304.607 269.088ZM304.905 264.503C305.784 264.503 306.335 265.216 306.335 266.349C306.335 267.491 305.788 268.189 304.905 268.189C304.016 268.189 303.484 267.501 303.484 266.349C303.484 265.201 304.021 264.503 304.905 264.503ZM309.485 262.75C309.851 262.75 310.149 262.452 310.149 262.091C310.149 261.725 309.851 261.427 309.485 261.427C309.119 261.427 308.821 261.725 308.821 262.091C308.821 262.452 309.119 262.75 309.485 262.75ZM308.962 269H310.007V263.697H308.962V269ZM313.02 269.088C313.718 269.088 314.299 268.785 314.617 268.248H314.7V269H315.71V265.372C315.71 264.259 314.958 263.595 313.625 263.595C312.419 263.595 311.56 264.176 311.453 265.069H312.468C312.585 264.684 312.991 264.464 313.577 264.464C314.294 264.464 314.665 264.791 314.665 265.372V265.836L313.225 265.924C311.96 266.002 311.247 266.554 311.247 267.506C311.247 268.473 311.995 269.088 313.02 269.088ZM313.288 268.243C312.717 268.243 312.302 267.955 312.302 267.462C312.302 266.979 312.634 266.72 313.367 266.671L314.665 266.583V267.042C314.665 267.726 314.079 268.243 313.288 268.243ZM318.674 269.088C319.372 269.088 319.953 268.785 320.271 268.248H320.354V269H321.365V265.372C321.365 264.259 320.613 263.595 319.28 263.595C318.074 263.595 317.214 264.176 317.107 265.069H318.122C318.24 264.684 318.645 264.464 319.231 264.464C319.949 264.464 320.32 264.791 320.32 265.372V265.836L318.879 265.924C317.615 266.002 316.902 266.554 316.902 267.506C316.902 268.473 317.649 269.088 318.674 269.088ZM318.943 268.243C318.371 268.243 317.956 267.955 317.956 267.462C317.956 266.979 318.288 266.72 319.021 266.671L320.32 266.583V267.042C320.32 267.726 319.734 268.243 318.943 268.243ZM322.859 269H323.909V265.89C323.909 265.035 324.402 264.508 325.178 264.508C325.954 264.508 326.326 264.938 326.326 265.816V269H327.375V265.567C327.375 264.303 326.721 263.595 325.535 263.595C324.734 263.595 324.206 263.951 323.948 264.537H323.87V263.697H322.859V269ZM336.272 269H337.434L334.89 261.954H333.713L331.169 269H332.292L332.942 267.096H335.627L336.272 269ZM334.245 263.199H334.328L335.349 266.217H333.22L334.245 263.199ZM339.084 262.75C339.451 262.75 339.748 262.452 339.748 262.091C339.748 261.725 339.451 261.427 339.084 261.427C338.718 261.427 338.42 261.725 338.42 262.091C338.42 262.452 338.718 262.75 339.084 262.75ZM338.562 269H339.607V263.697H338.562V269ZM341.15 269H342.2V265.831C342.2 265.084 342.761 264.571 343.557 264.571C343.743 264.571 344.055 264.605 344.143 264.63V263.644C344.031 263.619 343.83 263.604 343.674 263.604C342.981 263.604 342.39 263.98 342.239 264.503H342.161V263.697H341.15V269ZM251.999 283V280.651L252.79 279.753L255.154 283H256.521L253.562 279.011L256.286 275.954H254.993L252.078 279.284H251.999V275.954H250.906V283H251.999ZM260.637 281.579C260.442 282.009 260.007 282.243 259.372 282.243C258.533 282.243 257.991 281.638 257.956 280.676V280.627H261.711V280.266C261.711 278.605 260.818 277.595 259.338 277.595C257.839 277.595 256.887 278.674 256.887 280.358C256.887 282.053 257.82 283.103 259.343 283.103C260.559 283.103 261.418 282.517 261.648 281.579H260.637ZM259.333 278.449C260.11 278.449 260.618 279.011 260.642 279.87H257.956C258.015 279.016 258.557 278.449 259.333 278.449ZM263.342 276.359V277.712H262.497V278.552H263.342V281.604C263.342 282.624 263.806 283.034 264.973 283.034C265.178 283.034 265.373 283.01 265.544 282.98V282.146C265.398 282.16 265.305 282.17 265.144 282.17C264.621 282.17 264.392 281.921 264.392 281.35V278.552H265.544V277.712H264.392V276.359H263.342ZM267.322 276.75C267.688 276.75 267.986 276.452 267.986 276.091C267.986 275.725 267.688 275.427 267.322 275.427C266.955 275.427 266.658 275.725 266.658 276.091C266.658 276.452 266.955 276.75 267.322 276.75ZM266.799 283H267.844V277.697H266.799V283ZM270.569 279.934H270.486V275.617H269.436V283H270.486V281.071L270.95 280.627L272.776 283H274.065L271.731 279.968L273.918 277.697H272.678L270.569 279.934ZM276.335 283.088C277.034 283.088 277.615 282.785 277.932 282.248H278.015V283H279.026V279.372C279.026 278.259 278.274 277.595 276.941 277.595C275.735 277.595 274.875 278.176 274.768 279.069H275.784C275.901 278.684 276.306 278.464 276.892 278.464C277.61 278.464 277.981 278.791 277.981 279.372V279.836L276.54 279.924C275.276 280.002 274.563 280.554 274.563 281.506C274.563 282.473 275.31 283.088 276.335 283.088ZM276.604 282.243C276.033 282.243 275.618 281.955 275.618 281.462C275.618 280.979 275.95 280.72 276.682 280.671L277.981 280.583V281.042C277.981 281.726 277.395 282.243 276.604 282.243ZM290.505 283V275.954H289.226L286.98 281.467H286.897L284.656 275.954H283.376V283H284.392V277.839H284.46L286.526 282.873H287.356L289.421 277.839H289.49V283H290.505ZM296.633 277.697H295.583V280.808C295.583 281.662 295.12 282.18 294.27 282.18C293.498 282.18 293.152 281.76 293.152 280.881V277.697H292.102V281.14C292.102 282.385 292.756 283.103 293.933 283.103C294.739 283.103 295.281 282.761 295.539 282.16H295.622V283H296.633V277.697ZM298.035 279.182C298.035 279.968 298.503 280.417 299.514 280.651L300.442 280.871C300.974 280.998 301.223 281.213 301.223 281.545C301.223 281.979 300.759 282.282 300.105 282.282C299.47 282.282 299.079 282.023 298.948 281.608H297.898C297.991 282.531 298.816 283.103 300.08 283.103C301.35 283.103 302.283 282.434 302.283 281.447C302.283 280.676 301.809 280.241 300.798 280.007L299.914 279.802C299.338 279.665 299.07 279.46 299.07 279.133C299.07 278.703 299.514 278.415 300.1 278.415C300.696 278.415 301.077 278.674 301.174 279.069H302.18C302.078 278.151 301.296 277.595 300.1 277.595C298.899 277.595 298.035 278.259 298.035 279.182ZM304.089 276.75C304.455 276.75 304.753 276.452 304.753 276.091C304.753 275.725 304.455 275.427 304.089 275.427C303.723 275.427 303.425 275.725 303.425 276.091C303.425 276.452 303.723 276.75 304.089 276.75ZM303.567 283H304.612V277.697H303.567V283ZM306.155 283H307.204V279.743C307.204 279.05 307.688 278.508 308.328 278.508C308.953 278.508 309.353 278.884 309.353 279.489V283H310.383V279.646C310.383 279.006 310.828 278.508 311.506 278.508C312.195 278.508 312.536 278.864 312.536 279.597V283H313.586V279.343C313.586 278.239 312.961 277.595 311.887 277.595C311.15 277.595 310.539 277.971 310.271 278.542H310.188C309.953 277.971 309.451 277.595 308.723 277.595C308.015 277.595 307.478 277.946 307.244 278.542H307.165V277.697H306.155V283ZM319.011 283V280.651L319.802 279.753L322.165 283H323.533L320.574 279.011L323.298 275.954H322.004L319.089 279.284H319.011V275.954H317.917V283H319.011ZM327.649 281.579C327.453 282.009 327.019 282.243 326.384 282.243C325.544 282.243 325.002 281.638 324.968 280.676V280.627H328.723V280.266C328.723 278.605 327.829 277.595 326.35 277.595C324.851 277.595 323.899 278.674 323.899 280.358C323.899 282.053 324.831 283.103 326.355 283.103C327.571 283.103 328.43 282.517 328.66 281.579H327.649ZM326.345 278.449C327.121 278.449 327.629 279.011 327.654 279.87H324.968C325.027 279.016 325.569 278.449 326.345 278.449ZM329.983 283H331.033V279.743C331.033 279.05 331.516 278.508 332.156 278.508C332.781 278.508 333.181 278.884 333.181 279.489V283H334.211V279.646C334.211 279.006 334.656 278.508 335.334 278.508C336.023 278.508 336.365 278.864 336.365 279.597V283H337.414V279.343C337.414 278.239 336.789 277.595 335.715 277.595C334.978 277.595 334.368 277.971 334.099 278.542H334.016C333.782 277.971 333.279 277.595 332.551 277.595C331.843 277.595 331.306 277.946 331.072 278.542H330.994V277.697H329.983V283ZM340.359 283.088C341.057 283.088 341.638 282.785 341.955 282.248H342.038V283H343.049V279.372C343.049 278.259 342.297 277.595 340.964 277.595C339.758 277.595 338.899 278.176 338.791 279.069H339.807C339.924 278.684 340.329 278.464 340.915 278.464C341.633 278.464 342.004 278.791 342.004 279.372V279.836L340.564 279.924C339.299 280.002 338.586 280.554 338.586 281.506C338.586 282.473 339.333 283.088 340.359 283.088ZM340.627 282.243C340.056 282.243 339.641 281.955 339.641 281.462C339.641 280.979 339.973 280.72 340.705 280.671L342.004 280.583V281.042C342.004 281.726 341.418 282.243 340.627 282.243ZM344.543 283H345.593V279.831C345.593 279.084 346.155 278.571 346.951 278.571C347.136 278.571 347.449 278.605 347.536 278.63V277.644C347.424 277.619 347.224 277.604 347.068 277.604C346.374 277.604 345.784 277.98 345.632 278.503H345.554V277.697H344.543V283ZM349.978 283.088C350.676 283.088 351.257 282.785 351.575 282.248H351.658V283H352.668V279.372C352.668 278.259 351.916 277.595 350.583 277.595C349.377 277.595 348.518 278.176 348.411 279.069H349.426C349.543 278.684 349.949 278.464 350.535 278.464C351.252 278.464 351.623 278.791 351.623 279.372V279.836L350.183 279.924C348.918 280.002 348.205 280.554 348.205 281.506C348.205 282.473 348.953 283.088 349.978 283.088ZM350.246 282.243C349.675 282.243 349.26 281.955 349.26 281.462C349.26 280.979 349.592 280.72 350.325 280.671L351.623 280.583V281.042C351.623 281.726 351.037 282.243 350.246 282.243ZM358.645 277.697H357.595V280.808C357.595 281.662 357.131 282.18 356.282 282.18C355.51 282.18 355.163 281.76 355.163 280.881V277.697H354.114V281.14C354.114 282.385 354.768 283.103 355.945 283.103C356.75 283.103 357.292 282.761 357.551 282.16H357.634V283H358.645V277.697Z" fill="#2A6385"/>
<path d="M66.5476 11.7L65.4196 12.876V15H63.4876V6.6H65.4196V10.524L69.1396 6.6H71.2996L67.8196 10.344L71.5036 15H69.2356L66.5476 11.7ZM79.2345 13.44V15H72.7305V6.6H79.0785V8.16H74.6625V9.984H78.5625V11.496H74.6625V13.44H79.2345ZM87.3092 10.632C87.7892 10.784 88.1652 11.04 88.4372 11.4C88.7092 11.752 88.8452 12.188 88.8452 12.708C88.8452 13.444 88.5572 14.012 87.9812 14.412C87.4132 14.804 86.5812 15 85.4852 15H81.1412V6.6H85.2452C86.2692 6.6 87.0532 6.796 87.5972 7.188C88.1492 7.58 88.4252 8.112 88.4252 8.784C88.4252 9.192 88.3252 9.556 88.1252 9.876C87.9332 10.196 87.6612 10.448 87.3092 10.632ZM83.0732 8.064V10.044H85.0052C85.4852 10.044 85.8492 9.96 86.0972 9.792C86.3452 9.624 86.4692 9.376 86.4692 9.048C86.4692 8.72 86.3452 8.476 86.0972 8.316C85.8492 8.148 85.4852 8.064 85.0052 8.064H83.0732ZM85.3412 13.536C85.8532 13.536 86.2372 13.452 86.4932 13.284C86.7572 13.116 86.8892 12.856 86.8892 12.504C86.8892 11.808 86.3732 11.46 85.3412 11.46H83.0732V13.536H85.3412ZM94.409 15.144C93.209 15.144 92.273 14.812 91.601 14.148C90.937 13.484 90.605 12.536 90.605 11.304V6.6H92.549V11.232C92.549 12.736 93.173 13.488 94.421 13.488C95.029 13.488 95.493 13.308 95.813 12.948C96.133 12.58 96.293 12.008 96.293 11.232V6.6H98.213V11.304C98.213 12.536 97.877 13.484 97.205 14.148C96.541 14.812 95.609 15.144 94.409 15.144ZM102.093 8.184H99.4054V6.6H106.725V8.184H104.037V15H102.093V8.184ZM111.723 15.144C110.523 15.144 109.587 14.812 108.915 14.148C108.251 13.484 107.919 12.536 107.919 11.304V6.6H109.863V11.232C109.863 12.736 110.487 13.488 111.735 13.488C112.343 13.488 112.807 13.308 113.127 12.948C113.447 12.58 113.607 12.008 113.607 11.232V6.6H115.527V11.304C115.527 12.536 115.191 13.484 114.519 14.148C113.855 14.812 112.923 15.144 111.723 15.144ZM125.512 6.6V15H123.568V11.556H119.752V15H117.808V6.6H119.752V9.912H123.568V6.6H125.512ZM133.391 13.2H129.491L128.747 15H126.755L130.499 6.6H132.419L136.175 15H134.135L133.391 13.2ZM132.779 11.724L131.447 8.508L130.115 11.724H132.779ZM145.111 6.6V15H143.515L139.327 9.9V15H137.407V6.6H139.015L143.191 11.7V6.6H145.111ZM156.749 13.2H152.849L152.105 15H150.113L153.857 6.6H155.777L159.533 15H157.493L156.749 13.2ZM156.137 11.724L154.805 8.508L153.473 11.724H156.137ZM160.764 6.6H162.708V15H160.764V6.6ZM170.414 15L168.794 12.66H168.698H167.006V15H165.062V6.6H168.698C169.442 6.6 170.086 6.724 170.63 6.972C171.182 7.22 171.606 7.572 171.902 8.028C172.198 8.484 172.346 9.024 172.346 9.648C172.346 10.272 172.194 10.812 171.89 11.268C171.594 11.716 171.17 12.06 170.618 12.3L172.502 15H170.414ZM170.378 9.648C170.378 9.176 170.226 8.816 169.922 8.568C169.618 8.312 169.174 8.184 168.59 8.184H167.006V11.112H168.59C169.174 11.112 169.618 10.984 169.922 10.728C170.226 10.472 170.378 10.112 170.378 9.648ZM185.648 15L185.636 9.96L183.164 14.112H182.288L179.828 10.068V15H178.004V6.6H179.612L182.756 11.82L185.852 6.6H187.448L187.472 15H185.648ZM195.357 13.2H191.457L190.713 15H188.721L192.465 6.6H194.385L198.141 15H196.101L195.357 13.2ZM194.745 11.724L193.413 8.508L192.081 11.724H194.745ZM207.077 6.6V15H205.481L201.293 9.9V15H199.373V6.6H200.981L205.157 11.7V6.6H207.077ZM213.156 15.144C211.956 15.144 211.02 14.812 210.348 14.148C209.684 13.484 209.352 12.536 209.352 11.304V6.6H211.296V11.232C211.296 12.736 211.92 13.488 213.168 13.488C213.776 13.488 214.24 13.308 214.56 12.948C214.88 12.58 215.04 12.008 215.04 11.232V6.6H216.96V11.304C216.96 12.536 216.624 13.484 215.952 14.148C215.288 14.812 214.356 15.144 213.156 15.144ZM222.001 15.144C221.337 15.144 220.693 15.056 220.069 14.88C219.453 14.696 218.957 14.46 218.581 14.172L219.241 12.708C219.601 12.972 220.029 13.184 220.525 13.344C221.021 13.504 221.517 13.584 222.013 13.584C222.565 13.584 222.973 13.504 223.237 13.344C223.501 13.176 223.633 12.956 223.633 12.684C223.633 12.484 223.553 12.32 223.393 12.192C223.241 12.056 223.041 11.948 222.793 11.868C222.553 11.788 222.225 11.7 221.809 11.604C221.169 11.452 220.645 11.3 220.237 11.148C219.829 10.996 219.477 10.752 219.181 10.416C218.893 10.08 218.749 9.632 218.749 9.072C218.749 8.584 218.881 8.144 219.145 7.752C219.409 7.352 219.805 7.036 220.333 6.804C220.869 6.572 221.521 6.456 222.289 6.456C222.825 6.456 223.349 6.52 223.861 6.648C224.373 6.776 224.821 6.96 225.205 7.2L224.605 8.676C223.829 8.236 223.053 8.016 222.277 8.016C221.733 8.016 221.329 8.104 221.065 8.28C220.809 8.456 220.681 8.688 220.681 8.976C220.681 9.264 220.829 9.48 221.125 9.624C221.429 9.76 221.889 9.896 222.505 10.032C223.145 10.184 223.669 10.336 224.077 10.488C224.485 10.64 224.833 10.88 225.121 11.208C225.417 11.536 225.565 11.98 225.565 12.54C225.565 13.02 225.429 13.46 225.157 13.86C224.893 14.252 224.493 14.564 223.957 14.796C223.421 15.028 222.769 15.144 222.001 15.144ZM227.253 6.6H229.197V15H227.253V6.6ZM237.083 13.2H233.183L232.439 15H230.447L234.191 6.6H236.111L239.867 15H237.827L237.083 13.2ZM236.471 11.724L235.139 8.508L233.807 11.724H236.471ZM244.857 6.6H248.673C249.585 6.6 250.389 6.776 251.085 7.128C251.789 7.472 252.333 7.96 252.717 8.592C253.109 9.224 253.305 9.96 253.305 10.8C253.305 11.64 253.109 12.376 252.717 13.008C252.333 13.64 251.789 14.132 251.085 14.484C250.389 14.828 249.585 15 248.673 15H244.857V6.6ZM248.577 13.404C249.417 13.404 250.085 13.172 250.581 12.708C251.085 12.236 251.337 11.6 251.337 10.8C251.337 10 251.085 9.368 250.581 8.904C250.085 8.432 249.417 8.196 248.577 8.196H246.801V13.404H248.577ZM260.546 13.2H256.646L255.902 15H253.91L257.654 6.6H259.574L263.33 15H261.29L260.546 13.2ZM259.934 11.724L258.602 8.508L257.27 11.724H259.934ZM264.561 6.6H266.505V13.416H270.717V15H264.561V6.6ZM277.766 13.2H273.866L273.122 15H271.13L274.874 6.6H276.794L280.55 15H278.51L277.766 13.2ZM277.154 11.724L275.822 8.508L274.49 11.724H277.154ZM289.425 15L289.413 9.96L286.941 14.112H286.065L283.605 10.068V15H281.781V6.6H283.389L286.533 11.82L289.629 6.6H291.225L291.249 15H289.425ZM300.121 15.144C299.457 15.144 298.813 15.056 298.189 14.88C297.573 14.696 297.077 14.46 296.701 14.172L297.361 12.708C297.721 12.972 298.149 13.184 298.645 13.344C299.141 13.504 299.637 13.584 300.133 13.584C300.685 13.584 301.093 13.504 301.357 13.344C301.621 13.176 301.753 12.956 301.753 12.684C301.753 12.484 301.673 12.32 301.513 12.192C301.361 12.056 301.161 11.948 300.913 11.868C300.673 11.788 300.345 11.7 299.929 11.604C299.289 11.452 298.765 11.3 298.357 11.148C297.949 10.996 297.597 10.752 297.301 10.416C297.013 10.08 296.869 9.632 296.869 9.072C296.869 8.584 297.001 8.144 297.265 7.752C297.529 7.352 297.925 7.036 298.453 6.804C298.989 6.572 299.641 6.456 300.409 6.456C300.945 6.456 301.469 6.52 301.981 6.648C302.493 6.776 302.941 6.96 303.325 7.2L302.725 8.676C301.949 8.236 301.173 8.016 300.397 8.016C299.853 8.016 299.449 8.104 299.185 8.28C298.929 8.456 298.801 8.688 298.801 8.976C298.801 9.264 298.949 9.48 299.245 9.624C299.549 9.76 300.009 9.896 300.625 10.032C301.265 10.184 301.789 10.336 302.197 10.488C302.605 10.64 302.953 10.88 303.241 11.208C303.537 11.536 303.685 11.98 303.685 12.54C303.685 13.02 303.549 13.46 303.277 13.86C303.013 14.252 302.613 14.564 302.077 14.796C301.541 15.028 300.889 15.144 300.121 15.144ZM311.877 13.44V15H305.373V6.6H311.721V8.16H307.305V9.984H311.205V11.496H307.305V13.44H311.877ZM321.488 6.6V15H319.544V11.556H315.728V15H313.784V6.6H315.728V9.912H319.544V6.6H321.488ZM329.367 13.2H325.467L324.723 15H322.731L326.475 6.6H328.395L332.151 15H330.111L329.367 13.2ZM328.755 11.724L327.423 8.508L326.091 11.724H328.755ZM338.735 15L337.115 12.66H337.019H335.327V15H333.383V6.6H337.019C337.763 6.6 338.407 6.724 338.951 6.972C339.503 7.22 339.927 7.572 340.223 8.028C340.519 8.484 340.667 9.024 340.667 9.648C340.667 10.272 340.515 10.812 340.211 11.268C339.915 11.716 339.491 12.06 338.939 12.3L340.823 15H338.735ZM338.699 9.648C338.699 9.176 338.547 8.816 338.243 8.568C337.939 8.312 337.495 8.184 336.911 8.184H335.327V11.112H336.911C337.495 11.112 337.939 10.984 338.243 10.728C338.547 10.472 338.699 10.112 338.699 9.648ZM342.567 6.6H344.511V15H342.567V6.6Z" fill="#2A6385"/>
<mask id="mask0" mask-type="alpha" maskUnits="userSpaceOnUse" x="33" y="37" width="143" height="206">
<path d="M104.48 37.5995C104.48 37.5995 33.2452 115.942 33.2452 171.371C33.2452 215.1 60.7694 242.637 104.48 242.637C148.19 242.637 175.714 215.1 175.714 171.371C175.714 115.942 104.48 37.5995 104.48 37.5995Z" fill="white"/>
</mask>
<g mask="url(#mask0)">
<path d="M-30.0433 252.303V82.3351C11.6285 80.7682 0.482513 83.8448 56.0914 100.619C90.7895 112.568 104.696 99.4327 120.539 99.4327C165.096 99.4327 176.189 123.802 208.56 106.707L218.538 298.955C198 328.244 155.696 386.821 150.786 386.821C145.876 386.821 40.3053 368.313 -11.866 359.059L-30.0433 252.303Z" fill="#2A6385"/>
</g>
<path d="M104.48 37.5995L101.89 35.2449C102.553 34.5154 103.494 34.0995 104.48 34.0995C105.466 34.0995 106.406 34.5154 107.069 35.2449L104.48 37.5995ZM104.48 37.5995C101.89 35.2449 101.889 35.2456 101.889 35.2467L101.885 35.2502L101.874 35.2628L101.832 35.3091C101.796 35.3494 101.742 35.4085 101.673 35.486C101.533 35.6409 101.329 35.8694 101.063 36.1684C100.532 36.7664 99.7568 37.6463 98.7725 38.7835C96.8041 41.0577 93.9983 44.3619 90.6341 48.4981C83.9088 56.7667 74.9363 68.3792 65.957 81.7479C56.9842 95.1071 47.9622 110.282 41.1734 125.673C34.4019 141.023 29.7452 156.824 29.7452 171.371C29.7452 193.98 36.8755 212.751 49.9957 225.877C63.1161 239.003 81.8794 246.137 104.48 246.137C127.08 246.137 145.843 239.003 158.964 225.877C172.084 212.751 179.214 193.98 179.214 171.371C179.214 156.824 174.558 141.023 167.786 125.673C160.997 110.282 151.975 95.1071 143.002 81.7479C134.023 68.3792 125.051 56.7667 118.325 48.4981C114.961 44.3619 112.155 41.0577 110.187 38.7835C109.203 37.6463 108.428 36.7664 107.896 36.1684C107.631 35.8694 107.426 35.6409 107.287 35.486C107.217 35.4085 107.164 35.3494 107.127 35.3091L107.086 35.2628L107.074 35.2502L107.071 35.2467C107.07 35.2456 107.069 35.2449 104.48 37.5995Z" stroke="#2A6385" stroke-width="7" stroke-linejoin="round"/>
<mask id="mask1" mask-type="alpha" maskUnits="userSpaceOnUse" x="233" y="37" width="143" height="206">
<path d="M304.48 37.5995C304.48 37.5995 233.245 115.942 233.245 171.371C233.245 215.1 260.769 242.637 304.48 242.637C348.19 242.637 375.714 215.1 375.714 171.371C375.714 115.942 304.48 37.5995 304.48 37.5995Z" fill="white"/>
</mask>
<g mask="url(#mask1)">
<path d="M212 346.182V176.214C253.672 174.647 205.858 181.629 261.467 198.404C296.165 210.353 348.056 187.648 363.854 186.456C393.499 184.219 407.056 203.523 444.42 201.314L460.581 392.834C440.043 422.123 397.739 480.7 392.829 480.7C387.919 480.7 282.349 462.192 230.177 452.938L212 346.182Z" fill="#2A6385"/>
</g>
<path d="M304.48 37.5995L301.89 35.2449C302.553 34.5154 303.494 34.0995 304.48 34.0995C305.466 34.0995 306.406 34.5154 307.069 35.2449L304.48 37.5995ZM304.48 37.5995C301.89 35.2449 301.889 35.2456 301.889 35.2467L301.885 35.2502L301.874 35.2628L301.832 35.3091C301.796 35.3494 301.742 35.4085 301.673 35.486C301.533 35.6409 301.329 35.8694 301.063 36.1684C300.532 36.7664 299.757 37.6463 298.772 38.7835C296.804 41.0577 293.998 44.3619 290.634 48.4981C283.909 56.7667 274.936 68.3792 265.957 81.7479C256.984 95.1071 247.962 110.282 241.173 125.673C234.402 141.023 229.745 156.824 229.745 171.371C229.745 193.98 236.875 212.751 249.996 225.877C263.116 239.003 281.879 246.137 304.48 246.137C327.08 246.137 345.843 239.003 358.964 225.877C372.084 212.751 379.214 193.98 379.214 171.371C379.214 156.824 374.558 141.023 367.786 125.673C360.997 110.282 351.975 95.1071 343.002 81.7479C334.023 68.3792 325.051 56.7667 318.325 48.4981C314.961 44.3619 312.155 41.0577 310.187 38.7835C309.203 37.6463 308.428 36.7664 307.896 36.1684C307.631 35.8694 307.426 35.6409 307.287 35.486C307.217 35.4085 307.164 35.3494 307.127 35.3091L307.086 35.2628L307.074 35.2502L307.071 35.2467C307.07 35.2456 307.069 35.2449 304.48 37.5995Z" stroke="#2A6385" stroke-width="7" stroke-linejoin="round"/>
<line y1="111.5" x2="409" y2="111.5" stroke="#FFAA34" stroke-dasharray="10 10"/>
</svg>
