<svg width="112" height="127" viewBox="0 0 112 127" fill="none" xmlns="http://www.w3.org/2000/svg">
<path opacity="0.24" fill-rule="evenodd" clip-rule="evenodd" d="M9.0753e-06 122.861C9.17301e-06 120.886 1.80297 119.285 4.02703 119.285C6.2511 119.285 8.05407 120.886 8.05407 122.861C8.05407 124.837 6.2511 126.438 4.02703 126.438C1.80297 126.438 8.97759e-06 124.837 9.0753e-06 122.861ZM28.1892 122.861C28.1892 120.886 29.9922 119.285 32.2163 119.285C34.4403 119.285 36.2433 120.886 36.2433 122.861C36.2433 124.837 34.4403 126.438 32.2163 126.438C29.9922 126.438 28.1892 124.837 28.1892 122.861ZM56.3785 122.861C56.3785 120.886 58.1814 119.285 60.4055 119.285C62.6295 119.285 64.4325 120.886 64.4325 122.861C64.4325 124.837 62.6295 126.438 60.4055 126.438C58.1814 126.438 56.3785 124.837 56.3785 122.861ZM84.5676 122.861C84.5676 120.886 86.3706 119.285 88.5947 119.285C90.8187 119.285 92.6217 120.886 92.6217 122.861C92.6217 124.837 90.8187 126.438 88.5947 126.438C86.3706 126.438 84.5676 124.837 84.5676 122.861ZM112.757 122.861C112.757 120.886 114.56 119.285 116.784 119.285C119.008 119.285 120.811 120.886 120.811 122.861C120.811 124.837 119.008 126.438 116.784 126.438C114.56 126.438 112.757 124.837 112.757 122.861ZM140.946 122.861C140.946 120.886 142.749 119.285 144.973 119.285C147.197 119.285 149 120.886 149 122.861C149 124.837 147.197 126.438 144.973 126.438C142.749 126.438 140.946 124.837 140.946 122.861ZM0 99.3604C9.77115e-08 97.3853 1.80296 95.7842 4.02702 95.7842C6.25109 95.7842 8.05406 97.3853 8.05406 99.3604C8.05406 101.336 6.25109 102.937 4.02702 102.937C1.80296 102.937 -9.77115e-08 101.336 0 99.3604ZM28.1892 99.3604C28.1892 97.3853 29.9922 95.7842 32.2163 95.7842C34.4403 95.7842 36.2433 97.3853 36.2433 99.3604C36.2433 101.336 34.4403 102.937 32.2163 102.937C29.9922 102.937 28.1892 101.336 28.1892 99.3604ZM56.3785 99.3604C56.3785 97.3853 58.1814 95.7842 60.4055 95.7842C62.6295 95.7842 64.4325 97.3853 64.4325 99.3604C64.4325 101.336 62.6295 102.937 60.4055 102.937C58.1814 102.937 56.3785 101.336 56.3785 99.3604ZM84.5676 99.3604C84.5676 97.3853 86.3706 95.7842 88.5947 95.7842C90.8187 95.7842 92.6217 97.3853 92.6217 99.3604C92.6217 101.336 90.8187 102.937 88.5947 102.937C86.3706 102.937 84.5676 101.336 84.5676 99.3604ZM112.757 99.3604C112.757 97.3853 114.56 95.7842 116.784 95.7842C119.008 95.7842 120.811 97.3853 120.811 99.3604C120.811 101.336 119.008 102.937 116.784 102.937C114.56 102.937 112.757 101.336 112.757 99.3604ZM140.946 99.3604C140.946 97.3853 142.749 95.7842 144.973 95.7842C147.197 95.7842 149 97.3853 149 99.3604C149 101.336 147.197 102.937 144.973 102.937C142.749 102.937 140.946 101.336 140.946 99.3604ZM1.16265e-06 75.8592C1.26037e-06 73.884 1.80296 72.2829 4.02702 72.2829C6.2511 72.2829 8.05406 73.884 8.05406 75.8592C8.05406 77.8343 6.25109 79.4355 4.02702 79.4355C1.80296 79.4355 1.06494e-06 77.8343 1.16265e-06 75.8592ZM28.1892 75.8592C28.1892 73.884 29.9922 72.2829 32.2163 72.2829C34.4403 72.2829 36.2433 73.884 36.2433 75.8592C36.2433 77.8343 34.4403 79.4355 32.2163 79.4355C29.9922 79.4355 28.1892 77.8343 28.1892 75.8592ZM56.3785 75.8592C56.3785 73.884 58.1814 72.2829 60.4055 72.2829C62.6295 72.2829 64.4325 73.884 64.4325 75.8592C64.4325 77.8343 62.6295 79.4355 60.4055 79.4355C58.1814 79.4355 56.3785 77.8343 56.3785 75.8592ZM84.5676 75.8592C84.5676 73.884 86.3706 72.2829 88.5947 72.2829C90.8187 72.2829 92.6217 73.884 92.6217 75.8592C92.6217 77.8343 90.8187 79.4355 88.5947 79.4355C86.3706 79.4355 84.5676 77.8343 84.5676 75.8592ZM112.757 75.8592C112.757 73.884 114.56 72.2829 116.784 72.2829C119.008 72.2829 120.811 73.884 120.811 75.8592C120.811 77.8343 119.008 79.4355 116.784 79.4355C114.56 79.4355 112.757 77.8343 112.757 75.8592ZM140.946 75.8592C140.946 73.884 142.749 72.2829 144.973 72.2829C147.197 72.2829 149 73.884 149 75.8592C149 77.8343 147.197 79.4355 144.973 79.4355C142.749 79.4355 140.946 77.8343 140.946 75.8592ZM2.37583e-06 51.3366C2.47354e-06 49.3615 1.80297 47.7604 4.02703 47.7604C6.2511 47.7604 8.05406 49.3615 8.05406 51.3366C8.05406 53.3117 6.2511 54.9128 4.02703 54.9128C1.80297 54.9128 2.27812e-06 53.3117 2.37583e-06 51.3366ZM28.1892 51.3366C28.1892 49.3615 29.9922 47.7604 32.2163 47.7604C34.4403 47.7604 36.2433 49.3615 36.2433 51.3366C36.2433 53.3117 34.4403 54.9128 32.2163 54.9128C29.9922 54.9128 28.1892 53.3117 28.1892 51.3366ZM56.3785 51.3366C56.3785 49.3615 58.1814 47.7604 60.4055 47.7604C62.6295 47.7604 64.4324 49.3615 64.4324 51.3366C64.4324 53.3117 62.6295 54.9128 60.4055 54.9128C58.1814 54.9128 56.3785 53.3117 56.3785 51.3366ZM84.5676 51.3366C84.5676 49.3615 86.3706 47.7604 88.5947 47.7604C90.8187 47.7604 92.6217 49.3615 92.6217 51.3366C92.6217 53.3117 90.8187 54.9128 88.5947 54.9128C86.3706 54.9128 84.5676 53.3117 84.5676 51.3366ZM112.757 51.3366C112.757 49.3615 114.56 47.7604 116.784 47.7604C119.008 47.7604 120.811 49.3615 120.811 51.3366C120.811 53.3117 119.008 54.9128 116.784 54.9128C114.56 54.9128 112.757 53.3117 112.757 51.3366ZM140.946 51.3366C140.946 49.3615 142.749 47.7604 144.973 47.7604C147.197 47.7604 149 49.3615 149 51.3366C149 53.3117 147.197 54.9128 144.973 54.9128C142.749 54.9128 140.946 53.3117 140.946 51.3366ZM3.53848e-06 27.8354C3.63619e-06 25.8603 1.80297 24.2592 4.02703 24.2592C6.2511 24.2592 8.05406 25.8603 8.05406 27.8354C8.05406 29.8105 6.2511 31.4116 4.02703 31.4116C1.80297 31.4116 3.44077e-06 29.8105 3.53848e-06 27.8354ZM28.1892 27.8354C28.1892 25.8603 29.9922 24.2592 32.2163 24.2592C34.4403 24.2592 36.2433 25.8603 36.2433 27.8354C36.2433 29.8105 34.4403 31.4116 32.2163 31.4116C29.9922 31.4116 28.1892 29.8105 28.1892 27.8354ZM56.3785 27.8354C56.3785 25.8603 58.1814 24.2592 60.4055 24.2592C62.6295 24.2592 64.4325 25.8603 64.4325 27.8354C64.4325 29.8105 62.6295 31.4116 60.4055 31.4116C58.1814 31.4116 56.3785 29.8105 56.3785 27.8354ZM84.5676 27.8354C84.5676 25.8603 86.3706 24.2592 88.5947 24.2592C90.8187 24.2592 92.6217 25.8603 92.6217 27.8354C92.6217 29.8105 90.8187 31.4116 88.5947 31.4116C86.3706 31.4116 84.5676 29.8105 84.5676 27.8354ZM112.757 27.8354C112.757 25.8603 114.56 24.2592 116.784 24.2592C119.008 24.2592 120.811 25.8603 120.811 27.8354C120.811 29.8105 119.008 31.4116 116.784 31.4116C114.56 31.4116 112.757 29.8105 112.757 27.8354ZM140.946 27.8354C140.946 25.8603 142.749 24.2592 144.973 24.2592C147.197 24.2592 149 25.8603 149 27.8354C149 29.8105 147.197 31.4116 144.973 31.4116C142.749 31.4116 140.946 29.8105 140.946 27.8354ZM4.70112e-06 4.33443C4.79883e-06 2.35939 1.80297 0.758301 4.02703 0.758301C6.2511 0.758301 8.05406 2.35939 8.05406 4.33443C8.05406 6.30948 6.2511 7.91057 4.02703 7.91057C1.80297 7.91057 4.60341e-06 6.30948 4.70112e-06 4.33443ZM28.1892 4.33443C28.1892 2.35939 29.9922 0.758301 32.2162 0.758301C34.4403 0.758301 36.2433 2.35939 36.2433 4.33443C36.2433 6.30948 34.4403 7.91057 32.2162 7.91057C29.9922 7.91057 28.1892 6.30948 28.1892 4.33443ZM56.3783 4.33443C56.3783 2.35939 58.1813 0.758301 60.4053 0.758301C62.6294 0.758301 64.4324 2.35939 64.4324 4.33443C64.4324 6.30948 62.6294 7.91057 60.4053 7.91057C58.1813 7.91057 56.3783 6.30948 56.3783 4.33443ZM84.5676 4.33443C84.5676 2.35939 86.3706 0.758301 88.5947 0.758301C90.8187 0.758301 92.6217 2.35939 92.6217 4.33443C92.6217 6.30948 90.8187 7.91057 88.5947 7.91057C86.3706 7.91057 84.5676 6.30948 84.5676 4.33443ZM112.757 4.33443C112.757 2.35939 114.56 0.758301 116.784 0.758301C119.008 0.758301 120.811 2.35939 120.811 4.33443C120.811 6.30948 119.008 7.91057 116.784 7.91057C114.56 7.91057 112.757 6.30948 112.757 4.33443ZM140.946 4.33443C140.946 2.35939 142.749 0.758301 144.973 0.758301C147.197 0.758301 149 2.35939 149 4.33443C149 6.30948 147.197 7.91057 144.973 7.91057C142.749 7.91057 140.946 6.30948 140.946 4.33443Z" fill="#FFAA34"/>
</svg>
