<svg width="220" height="222" viewBox="0 0 220 222" fill="none" xmlns="http://www.w3.org/2000/svg">
<path d="M214.562 110.909C214.562 169.177 167.861 216.382 110.287 216.382C52.7141 216.382 6.01238 169.177 6.01238 110.909C6.01238 52.6421 52.7141 5.43661 110.287 5.43661C167.861 5.43661 214.562 52.6421 214.562 110.909ZM110.287 218.819C169.234 218.819 217 170.495 217 110.909C217 51.3233 169.234 3 110.287 3C51.341 3 3.57465 51.3233 3.57465 110.909C3.57465 170.495 51.341 218.819 110.287 218.819Z" stroke="#2A6385" stroke-width="2"/>
<path d="M66.0076 208.095C80.4304 214.771 96.1548 218.088 112.018 217.802C127.882 217.515 143.478 213.632 157.656 206.44C171.833 199.248 184.228 188.93 193.925 176.249C203.622 163.569 210.372 148.85 213.677 133.18C216.982 117.511 216.758 101.291 213.019 85.7213C209.281 70.1513 202.126 55.6287 192.081 43.2271C182.037 30.8255 169.361 20.8619 154.99 14.073C140.618 7.28416 124.92 3.84352 109.055 4.00546L110.125 110.909L66.0076 208.095Z" fill="#2A6385"/>
<path d="M213.562 110.909C213.562 168.635 167.298 215.382 110.287 215.382C53.277 215.382 7.01238 168.635 7.01238 110.909C7.01238 53.1837 53.277 6.43661 110.287 6.43661C167.298 6.43661 213.562 53.1837 213.562 110.909ZM110.287 219.819C169.797 219.819 218 171.037 218 110.909C218 50.7817 169.797 2 110.287 2C50.7781 2 2.57465 50.7817 2.57465 110.909C2.57465 171.037 50.7781 219.819 110.287 219.819Z" fill="#2A6385" stroke="#2A6385" stroke-width="4"/>
<path d="M44.7344 106.32C48.3203 106.32 50.7461 103.918 50.7461 100.402C50.7461 97.0271 48.4023 94.824 45.543 94.824C43.832 94.824 42.5781 95.3748 41.8047 96.4177H41.6055L42.0977 91.2263H49.8672V88.9998H40.0586L39.1094 98.7615H41.5117C42.1328 97.5896 43.3164 96.8865 44.8164 96.8865C46.8086 96.8865 48.1797 98.3162 48.1797 100.449C48.1797 102.652 46.7969 104.129 44.7461 104.129C42.9062 104.129 41.5352 103.015 41.3477 101.328H38.8398C39.0039 104.269 41.3711 106.32 44.7344 106.32ZM61.9492 90.9099C62.8164 90.9099 63.543 90.1951 63.543 89.3279C63.543 88.449 62.8164 87.7341 61.9492 87.7341C61.0703 87.7341 60.3555 88.449 60.3555 89.3279C60.3555 90.1951 61.0703 90.9099 61.9492 90.9099ZM63.1797 93.1833H60.6719V106.449C60.6719 107.726 60.2031 108.242 58.8555 108.242C58.8203 108.242 58.5391 108.242 58.5039 108.242V110.258C58.5625 110.258 58.9727 110.269 59.0664 110.269C61.832 110.269 63.1797 109.074 63.1797 106.461V93.1833ZM70.4102 106.121C72.0859 106.121 73.4805 105.394 74.2422 104.105H74.4414V105.91H76.8672V97.2029C76.8672 94.531 75.0625 92.9373 71.8633 92.9373C68.9688 92.9373 66.9062 94.3318 66.6484 96.4763H69.0859C69.3672 95.5505 70.3398 95.0232 71.7461 95.0232C73.4688 95.0232 74.3594 95.8083 74.3594 97.2029V98.3162L70.9023 98.5271C67.8672 98.7146 66.1562 100.039 66.1562 102.324C66.1562 104.644 67.9492 106.121 70.4102 106.121ZM71.0547 104.094C69.6836 104.094 68.6875 103.402 68.6875 102.219C68.6875 101.058 69.4844 100.437 71.2422 100.32L74.3594 100.109V101.211C74.3594 102.851 72.9531 104.094 71.0547 104.094ZM80.4531 105.91H82.9727V98.0935C82.9727 96.4294 84.1328 95.1287 85.668 95.1287C87.168 95.1287 88.1289 96.031 88.1289 97.4841V105.91H90.6016V97.8591C90.6016 96.324 91.668 95.1287 93.2969 95.1287C94.9492 95.1287 95.7695 95.9841 95.7695 97.7419V105.91H98.2891V97.1326C98.2891 94.4841 96.7891 92.9373 94.2109 92.9373C92.4414 92.9373 90.9766 93.8396 90.332 95.2107H90.1328C89.5703 93.8396 88.3633 92.9373 86.6172 92.9373C84.918 92.9373 83.6289 93.781 83.0664 95.2107H82.8789V93.1833H80.4531V105.91Z" fill="#2A6385"/>
</svg>
