<svg width="427" height="336" viewBox="0 0 427 336" fill="none" xmlns="http://www.w3.org/2000/svg">
<path d="M109 67.653C110.414 67.653 111.771 67.0911 112.771 66.0909C113.771 65.0907 114.333 63.7342 114.333 62.3197V44.1864C114.333 42.7719 113.771 41.4153 112.771 40.4151C111.771 39.4149 110.414 38.853 109 38.853C107.585 38.853 106.229 39.4149 105.228 40.4151C104.228 41.4153 103.666 42.7719 103.666 44.1864V62.3197C103.666 63.7342 104.228 65.0907 105.228 66.0909C106.229 67.0911 107.585 67.653 109 67.653Z" fill="#2A6385"/>
<path d="M109 192.347C107.585 192.347 106.229 192.909 105.228 193.909C104.228 194.909 103.666 196.266 103.666 197.68V215.813C103.666 217.228 104.228 218.584 105.228 219.585C106.229 220.585 107.585 221.147 109 221.147C110.414 221.147 111.771 220.585 112.771 219.585C113.771 218.584 114.333 217.228 114.333 215.813V197.68C114.333 196.266 113.771 194.909 112.771 193.909C111.771 192.909 110.414 192.347 109 192.347Z" fill="#2A6385"/>
<path d="M57.3746 85.9464C58.3664 86.8479 59.6611 87.3429 61.0013 87.3331C61.7032 87.3371 62.399 87.2026 63.0488 86.9372C63.6986 86.6718 64.2896 86.2807 64.788 85.7864C65.2879 85.2906 65.6846 84.7007 65.9554 84.0508C66.2262 83.4009 66.3656 82.7038 66.3656 81.9997C66.3656 81.2957 66.2262 80.5986 65.9554 79.9487C65.6846 79.2988 65.2879 78.7089 64.788 78.2131L52.0946 65.5731C51.0744 64.6993 49.762 64.2428 48.4197 64.2946C47.0774 64.3465 45.8041 64.9029 44.8543 65.8527C43.9045 66.8026 43.348 68.0759 43.2962 69.4181C43.2443 70.7604 43.7009 72.0728 44.5746 73.0931L57.3746 85.9464Z" fill="#2A6385"/>
<path d="M160.626 174.053C160.129 173.556 159.538 173.162 158.889 172.892C158.239 172.623 157.543 172.485 156.839 172.485C156.136 172.485 155.44 172.623 154.79 172.892C154.14 173.162 153.55 173.556 153.053 174.053C152.555 174.551 152.161 175.141 151.892 175.791C151.623 176.44 151.484 177.137 151.484 177.84C151.484 178.543 151.623 179.24 151.892 179.889C152.161 180.539 152.555 181.129 153.053 181.627L165.906 194.427C166.4 194.931 166.989 195.332 167.639 195.606C168.289 195.881 168.987 196.024 169.693 196.027C171.099 196.007 172.441 195.432 173.426 194.427C174.419 193.427 174.977 192.076 174.977 190.667C174.977 189.258 174.419 187.906 173.426 186.907L160.626 174.053Z" fill="#2A6385"/>
<path d="M46.6531 130C46.6531 128.585 46.0912 127.229 45.091 126.229C44.0908 125.228 42.7343 124.667 41.3198 124.667H23.1865C21.772 124.667 20.4154 125.228 19.4152 126.229C18.415 127.229 17.8531 128.585 17.8531 130C17.8531 131.414 18.415 132.771 19.4152 133.771C20.4154 134.771 21.772 135.333 23.1865 135.333H41.3198C42.7343 135.333 44.0908 134.771 45.091 133.771C46.0912 132.771 46.6531 131.414 46.6531 130Z" fill="#2A6385"/>
<path d="M194.814 124.667H176.681C175.266 124.667 173.91 125.228 172.909 126.229C171.909 127.229 171.347 128.585 171.347 130C171.347 131.414 171.909 132.771 172.909 133.771C173.91 134.771 175.266 135.333 176.681 135.333H194.814C196.229 135.333 197.585 134.771 198.585 133.771C199.585 132.771 200.147 131.414 200.147 130C200.147 128.585 199.585 127.229 198.585 126.229C197.585 125.228 196.229 124.667 194.814 124.667Z" fill="#2A6385"/>
<path d="M57.3724 174.053L44.5725 186.907C43.8235 187.649 43.3117 188.598 43.1016 189.631C42.8916 190.665 42.9928 191.738 43.3924 192.714C43.792 193.69 44.472 194.526 45.3466 195.116C46.2212 195.705 47.251 196.022 48.3058 196.027C49.0114 196.024 49.7095 195.881 50.3595 195.606C51.0095 195.332 51.5985 194.931 52.0924 194.427L64.9458 181.627C65.9501 180.622 66.5143 179.26 66.5143 177.84C66.5143 176.42 65.9501 175.058 64.9458 174.053C63.9415 173.049 62.5794 172.485 61.1591 172.485C59.7388 172.485 58.3767 173.049 57.3724 174.053Z" fill="#2A6385"/>
<path d="M156.999 87.3332C157.701 87.3373 158.397 87.2027 159.047 86.9373C159.697 86.6719 160.288 86.2808 160.786 85.7865L173.586 72.9332C174.579 71.9339 175.137 70.5822 175.137 69.1732C175.137 67.7642 174.579 66.4125 173.586 65.4132C172.587 64.4199 171.235 63.8623 169.826 63.8623C168.417 63.8623 167.065 64.4199 166.066 65.4132L153.213 78.2132C152.713 78.709 152.316 79.2989 152.045 79.9488C151.774 80.5987 151.635 81.2958 151.635 81.9999C151.635 82.7039 151.774 83.401 152.045 84.051C152.316 84.7009 152.713 85.2907 153.213 85.7865C153.711 86.2808 154.302 86.6719 154.952 86.9373C155.602 87.2027 156.297 87.3373 156.999 87.3332Z" fill="#2A6385"/>
<path d="M109.72 75.3336C99.0061 75.196 88.4932 78.2474 79.5179 84.0997C70.5425 89.952 63.51 98.341 59.3143 108.2C55.1186 118.059 53.9493 128.943 55.955 139.469C57.9607 149.994 63.0507 159.686 70.5782 167.311C78.1056 174.936 87.7304 180.151 98.229 182.292C108.728 184.434 119.626 183.405 129.538 179.337C139.451 175.269 147.93 168.346 153.898 159.447C159.866 150.548 163.052 140.075 163.053 129.36C163.124 115.13 157.55 101.452 147.553 91.3241C137.555 81.1967 123.95 75.4463 109.72 75.3336ZM109.72 172.667C101.114 172.805 92.6613 170.378 85.4389 165.695C78.2166 161.013 72.5513 154.287 69.1645 146.374C65.7776 138.461 64.8225 129.719 66.4208 121.261C68.019 112.803 72.0983 105.013 78.1392 98.8814C84.18 92.7499 91.9091 88.5551 100.342 86.8311C108.775 85.1071 117.53 85.9319 125.493 89.2006C133.455 92.4693 140.265 98.0338 145.054 105.186C149.844 112.337 152.396 120.753 152.387 129.36C152.444 140.753 147.987 151.704 139.991 159.82C131.996 167.935 121.112 172.554 109.72 172.667Z" fill="#2A6385"/>
<path d="M374.999 252H284.999C275.377 251.939 266.118 248.324 259.001 241.849C251.884 235.374 247.412 226.497 246.444 216.924C245.476 207.351 248.081 197.758 253.759 189.989C259.436 182.221 267.784 176.826 277.199 174.84C279.789 162.759 286.444 151.932 296.053 144.165C305.662 136.398 317.644 132.161 329.999 132.161C342.355 132.161 354.336 136.398 363.945 144.165C373.554 151.932 380.209 162.759 382.799 174.84C392.214 176.826 400.562 182.221 406.24 189.989C411.917 197.758 414.522 207.351 413.554 216.924C412.587 226.497 408.114 235.374 400.997 241.849C393.88 248.324 384.621 251.939 374.999 252ZM329.999 144C319.761 144.011 309.879 147.76 302.211 154.544C294.543 161.328 289.617 170.68 288.359 180.84L287.999 186H282.839C275.678 186.287 268.924 189.406 264.063 194.672C259.203 199.938 256.633 206.92 256.919 214.08C257.205 221.241 260.325 227.995 265.591 232.856C270.857 237.717 277.838 240.287 284.999 240H374.999C382.16 240.287 389.141 237.717 394.407 232.856C399.673 227.995 402.793 221.241 403.079 214.08C403.365 206.92 400.796 199.938 395.935 194.672C391.074 189.406 384.32 186.287 377.159 186H371.999L371.399 181.08C370.201 170.917 365.333 161.541 357.709 154.713C350.086 147.886 340.233 144.076 329.999 144Z" fill="#2A6385"/>
<path d="M318.001 299.999C317.06 300.011 316.131 299.784 315.301 299.339C313.888 298.62 312.817 297.371 312.322 295.864C311.827 294.358 311.949 292.716 312.661 291.299L324.661 267.299C324.978 266.538 325.449 265.85 326.044 265.278C326.639 264.707 327.346 264.264 328.12 263.978C328.894 263.692 329.718 263.569 330.542 263.616C331.366 263.663 332.171 263.879 332.907 264.251C333.644 264.624 334.295 265.144 334.821 265.779C335.348 266.415 335.737 267.152 335.965 267.945C336.194 268.738 336.256 269.569 336.149 270.387C336.041 271.205 335.766 271.992 335.341 272.699L323.341 296.699C322.842 297.689 322.079 298.521 321.137 299.104C320.194 299.686 319.109 299.996 318.001 299.999Z" fill="#2A6385"/>
<path d="M354.001 299.999C353.06 300.011 352.131 299.784 351.301 299.339C349.888 298.62 348.817 297.371 348.322 295.864C347.827 294.358 347.949 292.716 348.661 291.299L360.661 267.299C360.978 266.538 361.449 265.85 362.044 265.278C362.639 264.707 363.346 264.264 364.12 263.978C364.894 263.692 365.718 263.569 366.542 263.616C367.366 263.663 368.171 263.879 368.907 264.251C369.643 264.624 370.295 265.144 370.821 265.779C371.347 266.415 371.737 267.152 371.965 267.945C372.194 268.738 372.256 269.569 372.149 270.387C372.041 271.205 371.766 271.992 371.341 272.699L359.341 296.699C358.842 297.689 358.079 298.521 357.137 299.104C356.194 299.686 355.109 299.996 354.001 299.999Z" fill="#2A6385"/>
<path d="M282.001 299.999C281.06 300.011 280.131 299.784 279.301 299.339C277.888 298.62 276.817 297.371 276.322 295.864C275.827 294.358 275.949 292.716 276.661 291.299L288.661 267.299C288.978 266.538 289.449 265.85 290.044 265.278C290.639 264.707 291.346 264.264 292.12 263.978C292.894 263.692 293.718 263.569 294.542 263.616C295.366 263.663 296.171 263.879 296.907 264.251C297.643 264.624 298.295 265.144 298.821 265.779C299.347 266.415 299.737 267.152 299.965 267.945C300.194 268.738 300.256 269.569 300.149 270.387C300.041 271.205 299.766 271.992 299.341 272.699L287.341 296.699C286.842 297.689 286.079 298.521 285.137 299.104C284.194 299.686 283.109 299.996 282.001 299.999Z" fill="#2A6385"/>
<path d="M79.0557 264V256.954H77.7764L75.5303 262.467H75.4473L73.2061 256.954H71.9268V264H72.9424V258.839H73.0107L75.0762 263.873H75.9062L77.9717 258.839H78.04V264H79.0557ZM85.1836 258.697H84.1338V261.808C84.1338 262.662 83.6699 263.18 82.8203 263.18C82.0488 263.18 81.7021 262.76 81.7021 261.881V258.697H80.6523V262.14C80.6523 263.385 81.3066 264.103 82.4834 264.103C83.2891 264.103 83.8311 263.761 84.0898 263.16H84.1729V264H85.1836V258.697ZM86.585 260.182C86.585 260.968 87.0537 261.417 88.0645 261.651L88.9922 261.871C89.5244 261.998 89.7734 262.213 89.7734 262.545C89.7734 262.979 89.3096 263.282 88.6553 263.282C88.0205 263.282 87.6299 263.023 87.498 262.608H86.4482C86.541 263.531 87.3662 264.103 88.6309 264.103C89.9004 264.103 90.833 263.434 90.833 262.447C90.833 261.676 90.3594 261.241 89.3486 261.007L88.4648 260.802C87.8887 260.665 87.6201 260.46 87.6201 260.133C87.6201 259.703 88.0645 259.415 88.6504 259.415C89.2461 259.415 89.627 259.674 89.7246 260.069H90.7305C90.6279 259.151 89.8467 258.595 88.6504 258.595C87.4492 258.595 86.585 259.259 86.585 260.182ZM92.6396 257.75C93.0059 257.75 93.3037 257.452 93.3037 257.091C93.3037 256.725 93.0059 256.427 92.6396 256.427C92.2734 256.427 91.9756 256.725 91.9756 257.091C91.9756 257.452 92.2734 257.75 92.6396 257.75ZM92.1172 264H93.1621V258.697H92.1172V264ZM94.7051 264H95.7549V260.743C95.7549 260.05 96.2383 259.508 96.8779 259.508C97.5029 259.508 97.9033 259.884 97.9033 260.489V264H98.9336V260.646C98.9336 260.006 99.3779 259.508 100.057 259.508C100.745 259.508 101.087 259.864 101.087 260.597V264H102.137V260.343C102.137 259.239 101.512 258.595 100.438 258.595C99.7002 258.595 99.0898 258.971 98.8213 259.542H98.7383C98.5039 258.971 98.001 258.595 97.2734 258.595C96.5654 258.595 96.0283 258.946 95.7939 259.542H95.7158V258.697H94.7051V264ZM107.562 264V261.651L108.353 260.753L110.716 264H112.083L109.124 260.011L111.849 256.954H110.555L107.64 260.284H107.562V256.954H106.468V264H107.562ZM116.199 262.579C116.004 263.009 115.569 263.243 114.935 263.243C114.095 263.243 113.553 262.638 113.519 261.676V261.627H117.273V261.266C117.273 259.605 116.38 258.595 114.9 258.595C113.401 258.595 112.449 259.674 112.449 261.358C112.449 263.053 113.382 264.103 114.905 264.103C116.121 264.103 116.98 263.517 117.21 262.579H116.199ZM114.896 259.449C115.672 259.449 116.18 260.011 116.204 260.87H113.519C113.577 260.016 114.119 259.449 114.896 259.449ZM118.533 264H119.583V260.743C119.583 260.05 120.066 259.508 120.706 259.508C121.331 259.508 121.731 259.884 121.731 260.489V264H122.762V260.646C122.762 260.006 123.206 259.508 123.885 259.508C124.573 259.508 124.915 259.864 124.915 260.597V264H125.965V260.343C125.965 259.239 125.34 258.595 124.266 258.595C123.528 258.595 122.918 258.971 122.649 259.542H122.566C122.332 258.971 121.829 258.595 121.102 258.595C120.394 258.595 119.856 258.946 119.622 259.542H119.544V258.697H118.533V264ZM128.909 264.088C129.607 264.088 130.188 263.785 130.506 263.248H130.589V264H131.6V260.372C131.6 259.259 130.848 258.595 129.515 258.595C128.309 258.595 127.449 259.176 127.342 260.069H128.357C128.475 259.684 128.88 259.464 129.466 259.464C130.184 259.464 130.555 259.791 130.555 260.372V260.836L129.114 260.924C127.85 261.002 127.137 261.554 127.137 262.506C127.137 263.473 127.884 264.088 128.909 264.088ZM129.178 263.243C128.606 263.243 128.191 262.955 128.191 262.462C128.191 261.979 128.523 261.72 129.256 261.671L130.555 261.583V262.042C130.555 262.726 129.969 263.243 129.178 263.243ZM133.094 264H134.144V260.831C134.144 260.084 134.705 259.571 135.501 259.571C135.687 259.571 135.999 259.605 136.087 259.63V258.644C135.975 258.619 135.774 258.604 135.618 258.604C134.925 258.604 134.334 258.98 134.183 259.503H134.104V258.697H133.094V264ZM138.528 264.088C139.227 264.088 139.808 263.785 140.125 263.248H140.208V264H141.219V260.372C141.219 259.259 140.467 258.595 139.134 258.595C137.928 258.595 137.068 259.176 136.961 260.069H137.977C138.094 259.684 138.499 259.464 139.085 259.464C139.803 259.464 140.174 259.791 140.174 260.372V260.836L138.733 260.924C137.469 261.002 136.756 261.554 136.756 262.506C136.756 263.473 137.503 264.088 138.528 264.088ZM138.797 263.243C138.226 263.243 137.811 262.955 137.811 262.462C137.811 261.979 138.143 261.72 138.875 261.671L140.174 261.583V262.042C140.174 262.726 139.588 263.243 138.797 263.243ZM147.195 258.697H146.146V261.808C146.146 262.662 145.682 263.18 144.832 263.18C144.061 263.18 143.714 262.76 143.714 261.881V258.697H142.664V262.14C142.664 263.385 143.318 264.103 144.495 264.103C145.301 264.103 145.843 263.761 146.102 263.16H146.185V264H147.195V258.697Z" fill="#2A6385"/>
<path d="M307.326 105V97.9541H306.047L303.801 103.467H303.718L301.477 97.9541H300.197V105H301.213V99.8389H301.281L303.347 104.873H304.177L306.242 99.8389H306.311V105H307.326ZM313.454 99.6973H312.404V102.808C312.404 103.662 311.94 104.18 311.091 104.18C310.319 104.18 309.973 103.76 309.973 102.881V99.6973H308.923V103.14C308.923 104.385 309.577 105.103 310.754 105.103C311.56 105.103 312.102 104.761 312.36 104.16H312.443V105H313.454V99.6973ZM314.855 101.182C314.855 101.968 315.324 102.417 316.335 102.651L317.263 102.871C317.795 102.998 318.044 103.213 318.044 103.545C318.044 103.979 317.58 104.282 316.926 104.282C316.291 104.282 315.9 104.023 315.769 103.608H314.719C314.812 104.531 315.637 105.103 316.901 105.103C318.171 105.103 319.104 104.434 319.104 103.447C319.104 102.676 318.63 102.241 317.619 102.007L316.735 101.802C316.159 101.665 315.891 101.46 315.891 101.133C315.891 100.703 316.335 100.415 316.921 100.415C317.517 100.415 317.897 100.674 317.995 101.069H319.001C318.898 100.151 318.117 99.5947 316.921 99.5947C315.72 99.5947 314.855 100.259 314.855 101.182ZM320.91 98.75C321.276 98.75 321.574 98.4521 321.574 98.0908C321.574 97.7246 321.276 97.4268 320.91 97.4268C320.544 97.4268 320.246 97.7246 320.246 98.0908C320.246 98.4521 320.544 98.75 320.91 98.75ZM320.388 105H321.433V99.6973H320.388V105ZM322.976 105H324.025V101.743C324.025 101.05 324.509 100.508 325.148 100.508C325.773 100.508 326.174 100.884 326.174 101.489V105H327.204V101.646C327.204 101.006 327.648 100.508 328.327 100.508C329.016 100.508 329.357 100.864 329.357 101.597V105H330.407V101.343C330.407 100.239 329.782 99.5947 328.708 99.5947C327.971 99.5947 327.36 99.9707 327.092 100.542H327.009C326.774 99.9707 326.271 99.5947 325.544 99.5947C324.836 99.5947 324.299 99.9463 324.064 100.542H323.986V99.6973H322.976V105ZM340.539 105V97.9541H339.45V100.933H335.832V97.9541H334.738V105H335.832V101.88H339.45V105H340.539ZM346.667 99.6973H345.617V102.808C345.617 103.662 345.153 104.18 344.304 104.18C343.532 104.18 343.186 103.76 343.186 102.881V99.6973H342.136V103.14C342.136 104.385 342.79 105.103 343.967 105.103C344.772 105.103 345.314 104.761 345.573 104.16H345.656V105H346.667V99.6973ZM348.742 98.75C349.104 98.75 349.406 98.4521 349.406 98.0908C349.406 97.7246 349.104 97.4268 348.742 97.4268C348.376 97.4268 348.078 97.7246 348.078 98.0908C348.078 98.4521 348.376 98.75 348.742 98.75ZM349.255 99.6973H348.21V105.225C348.21 105.757 348.015 105.972 347.453 105.972C347.438 105.972 347.321 105.972 347.307 105.972V106.812C347.331 106.812 347.502 106.816 347.541 106.816C348.693 106.816 349.255 106.318 349.255 105.229V99.6973ZM352.268 105.088C352.966 105.088 353.547 104.785 353.864 104.248H353.947V105H354.958V101.372C354.958 100.259 354.206 99.5947 352.873 99.5947C351.667 99.5947 350.808 100.176 350.7 101.069H351.716C351.833 100.684 352.238 100.464 352.824 100.464C353.542 100.464 353.913 100.791 353.913 101.372V101.836L352.473 101.924C351.208 102.002 350.495 102.554 350.495 103.506C350.495 104.473 351.242 105.088 352.268 105.088ZM352.536 104.243C351.965 104.243 351.55 103.955 351.55 103.462C351.55 102.979 351.882 102.72 352.614 102.671L353.913 102.583V103.042C353.913 103.726 353.327 104.243 352.536 104.243ZM356.452 105H357.502V101.89C357.502 101.035 357.995 100.508 358.771 100.508C359.548 100.508 359.919 100.938 359.919 101.816V105H360.969V101.567C360.969 100.303 360.314 99.5947 359.128 99.5947C358.327 99.5947 357.8 99.9512 357.541 100.537H357.463V99.6973H356.452V105Z" fill="#2A6385"/>
</svg>
