<svg width="197" height="184" viewBox="0 0 197 184" fill="none" xmlns="http://www.w3.org/2000/svg">
<g opacity="0.4">
<mask id="mask0" mask-type="alpha" maskUnits="userSpaceOnUse" x="0" y="0" width="197" height="184">
<path fill-rule="evenodd" clip-rule="evenodd" d="M3.90174e-06 58.227L69.3179 5.42462L71.4498 7.73108L2.13189 60.5334L3.90174e-06 58.227Z" fill="#FFAA34"/>
<path fill-rule="evenodd" clip-rule="evenodd" d="M-1.29215e-05 75.2213L97.5729 0.895933L99.7048 3.20239L2.13188 77.5278L-1.29215e-05 75.2213Z" fill="#FFAA34"/>
<path fill-rule="evenodd" clip-rule="evenodd" d="M5.5651e-06 92.2154L116.48 3.48761L118.612 5.79407L2.1319 94.5219L5.5651e-06 92.2154Z" fill="#FFAA34"/>
<path fill-rule="evenodd" clip-rule="evenodd" d="M-4.34425e-05 109.21L133.07 7.84478L135.202 10.1512L2.13185 111.516L-4.34425e-05 109.21Z" fill="#FFAA34"/>
<path fill-rule="evenodd" clip-rule="evenodd" d="M4.09751 123.083L146.16 14.8679L148.292 17.1743L6.2294 125.389L4.09751 123.083Z" fill="#FFAA34"/>
<path fill-rule="evenodd" clip-rule="evenodd" d="M9.62265 135.868L158.774 22.2538L160.906 24.5603L11.7545 138.175L9.62265 135.868Z" fill="#FFAA34"/>
<path fill-rule="evenodd" clip-rule="evenodd" d="M17.8955 146.561L169.052 31.419L171.183 33.7255L20.0274 148.867L17.8955 146.561Z" fill="#FFAA34"/>
<path fill-rule="evenodd" clip-rule="evenodd" d="M27.1902 156.475L178.089 41.5295L180.221 43.8359L29.3221 158.782L27.1902 156.475Z" fill="#FFAA34"/>
<path fill-rule="evenodd" clip-rule="evenodd" d="M39.2247 165.324L186.002 53.5182L188.134 55.8247L41.3566 167.631L39.2247 165.324Z" fill="#FFAA34"/>
<path fill-rule="evenodd" clip-rule="evenodd" d="M52.0788 172.527L191.308 66.4706L193.44 68.7771L54.2107 174.834L52.0788 172.527Z" fill="#FFAA34"/>
<path fill-rule="evenodd" clip-rule="evenodd" d="M67.1783 178.019L194.523 81.0157L196.655 83.3221L69.3102 180.326L67.1783 178.019Z" fill="#FFAA34"/>
<path fill-rule="evenodd" clip-rule="evenodd" d="M85.9616 180.706L194.355 98.1382L196.487 100.445L88.0935 183.012L85.9616 180.706Z" fill="#FFAA34"/>
<path fill-rule="evenodd" clip-rule="evenodd" d="M109.13 180.052L189.412 118.897L191.544 121.204L111.262 182.358L109.13 180.052Z" fill="#FFAA34"/>
</mask>
<g mask="url(#mask0)">
<path d="M193.403 92.2376C193.403 140.719 150.11 180.02 96.7054 180.02C43.3011 180.02 0.00826645 140.719 0.00826645 92.2376C0.00826645 43.7566 43.3011 4.45508 96.7054 4.45508C150.11 4.45508 193.403 43.7566 193.403 92.2376Z" fill="#FFAA34"/>
<path fill-rule="evenodd" clip-rule="evenodd" d="M96.7054 167.224C142.325 167.224 179.307 133.651 179.307 92.2376C179.307 50.8238 142.325 17.2513 96.7054 17.2513C51.0859 17.2513 14.104 50.8238 14.104 92.2376C14.104 133.651 51.0859 167.224 96.7054 167.224ZM96.7054 180.02C150.11 180.02 193.403 140.719 193.403 92.2376C193.403 43.7566 150.11 4.45508 96.7054 4.45508C43.301 4.45508 0.00826645 43.7566 0.00826645 92.2376C0.00826645 140.719 43.301 180.02 96.7054 180.02Z" fill="#FFAA34"/>
</g>
</g>
</svg>
