<svg width="199" height="211" viewBox="0 0 199 211" fill="none" xmlns="http://www.w3.org/2000/svg">
<g opacity="0.24">
<mask id="mask0" mask-type="alpha" maskUnits="userSpaceOnUse" x="0" y="0" width="199" height="211">
<path fill-rule="evenodd" clip-rule="evenodd" d="M6.9335e-05 66.4726L67.4355 6.80325L69.5674 9.48242L2.13196 69.1518L6.9335e-05 66.4726Z" fill="#124E77"/>
<path fill-rule="evenodd" clip-rule="evenodd" d="M-0.000101356 86.213L95.4272 1.77541L97.5591 4.45459L2.13179 88.8922L-0.000101356 86.213Z" fill="#124E77"/>
<path fill-rule="evenodd" clip-rule="evenodd" d="M0.00011768 105.954L118.696 0.927514L120.828 3.60669L2.13201 108.633L0.00011768 105.954Z" fill="#124E77"/>
<path fill-rule="evenodd" clip-rule="evenodd" d="M-3.66729e-05 125.694L132.548 8.41042L134.68 11.0896L2.13185 128.373L-3.66729e-05 125.694Z" fill="#124E77"/>
<path fill-rule="evenodd" clip-rule="evenodd" d="M-5.40202e-05 145.435L147.513 14.9092L149.645 17.5884L2.13184 148.114L-5.40202e-05 145.435Z" fill="#124E77"/>
<path fill-rule="evenodd" clip-rule="evenodd" d="M9.3944 156.863L160.863 22.8377L162.995 25.5168L11.5263 159.542L9.3944 156.863Z" fill="#124E77"/>
<path fill-rule="evenodd" clip-rule="evenodd" d="M17.0051 169.869L170.367 34.1682L172.499 36.8474L19.137 172.548L17.0051 169.869Z" fill="#124E77"/>
<path fill-rule="evenodd" clip-rule="evenodd" d="M26.5674 181.149L180.415 45.0183L182.547 47.6975L28.6992 183.828L26.5674 181.149Z" fill="#124E77"/>
<path fill-rule="evenodd" clip-rule="evenodd" d="M38.6125 191.418L187.022 60.0999L189.154 62.7791L40.7444 194.097L38.6125 191.418Z" fill="#124E77"/>
<path fill-rule="evenodd" clip-rule="evenodd" d="M52.0109 199.303L193.737 73.8989L195.869 76.5781L54.1428 201.983L52.0109 199.303Z" fill="#124E77"/>
<path fill-rule="evenodd" clip-rule="evenodd" d="M66.3489 206.357L196.757 90.9673L198.889 93.6465L68.4808 209.036L66.3489 206.357Z" fill="#124E77"/>
<path fill-rule="evenodd" clip-rule="evenodd" d="M87.1542 207.688L195.186 112.098L197.318 114.777L89.2861 210.367L87.1542 207.688Z" fill="#124E77"/>
<path fill-rule="evenodd" clip-rule="evenodd" d="M110.639 206.649L189.527 136.845L191.659 139.524L112.771 209.328L110.639 206.649Z" fill="#124E77"/>
</mask>
<g mask="url(#mask0)">
<path d="M193.403 105.979C193.403 162.294 150.11 207.947 96.7054 207.947C43.3011 207.947 0.00830078 162.294 0.00830078 105.979C0.00830078 49.6638 43.3011 4.01123 96.7054 4.01123C150.11 4.01123 193.403 49.6638 193.403 105.979Z" fill="#2A6385"/>
<path fill-rule="evenodd" clip-rule="evenodd" d="M96.7054 193.083C142.325 193.083 179.307 154.085 179.307 105.979C179.307 57.873 142.325 18.8752 96.7054 18.8752C51.0859 18.8752 14.104 57.873 14.104 105.979C14.104 154.085 51.0859 193.083 96.7054 193.083ZM96.7054 207.947C150.11 207.947 193.403 162.294 193.403 105.979C193.403 49.6638 150.11 4.01123 96.7054 4.01123C43.3011 4.01123 0.00830078 49.6638 0.00830078 105.979C0.00830078 162.294 43.3011 207.947 96.7054 207.947Z" fill="#2A6385"/>
</g>
</g>
</svg>
