<svg width="72" height="256" viewBox="0 0 72 256" fill="none" xmlns="http://www.w3.org/2000/svg">
<path opacity="0.24" fill-rule="evenodd" clip-rule="evenodd" d="M104.927 0C103.23 0 101.854 1.44824 101.854 3.23474C101.854 5.02124 103.23 6.46948 104.927 6.46948C106.624 6.46948 108 5.02124 108 3.23474C108 1.44824 106.624 0 104.927 0ZM104.927 22.6437C103.23 22.6437 101.854 24.0919 101.854 25.8784C101.854 27.6649 103.23 29.1132 104.927 29.1132C106.624 29.1132 108 27.6649 108 25.8784C108 24.0919 106.624 22.6437 104.927 22.6437ZM104.927 45.2872C103.23 45.2872 101.854 46.7355 101.854 48.522C101.854 50.3086 103.23 51.7568 104.927 51.7568C106.624 51.7568 108 50.3086 108 48.522C108 46.7355 106.624 45.2872 104.927 45.2872ZM104.927 67.9309C103.23 67.9309 101.854 69.3792 101.854 71.1657C101.854 72.9523 103.23 74.4006 104.927 74.4006C106.624 74.4006 108 72.9523 108 71.1657C108 69.3792 106.624 67.9309 104.927 67.9309ZM104.927 90.5748C103.23 90.5748 101.854 92.0231 101.854 93.8097C101.854 95.5962 103.23 97.0445 104.927 97.0445C106.624 97.0445 108 95.5962 108 93.8097C108 92.0231 106.624 90.5748 104.927 90.5748ZM104.927 113.219C103.23 113.219 101.854 114.667 101.854 116.453C101.854 118.24 103.23 119.688 104.927 119.688C106.624 119.688 108 118.24 108 116.453C108 114.667 106.624 113.219 104.927 113.219ZM84.7316 0C83.0344 0 81.6585 1.44824 81.6585 3.23474C81.6585 5.02124 83.0344 6.46948 84.7316 6.46948C86.4289 6.46948 87.8047 5.02124 87.8047 3.23474C87.8047 1.44824 86.4289 0 84.7316 0ZM84.7316 22.6437C83.0344 22.6437 81.6585 24.0919 81.6585 25.8784C81.6585 27.6649 83.0344 29.1132 84.7316 29.1132C86.4289 29.1132 87.8047 27.6649 87.8047 25.8784C87.8047 24.0919 86.4289 22.6437 84.7316 22.6437ZM84.7316 45.2872C83.0344 45.2872 81.6585 46.7355 81.6585 48.522C81.6585 50.3086 83.0344 51.7568 84.7316 51.7568C86.4289 51.7568 87.8047 50.3086 87.8047 48.522C87.8047 46.7355 86.4289 45.2872 84.7316 45.2872ZM84.7316 67.9309C83.0344 67.9309 81.6585 69.3792 81.6585 71.1657C81.6585 72.9523 83.0344 74.4006 84.7316 74.4006C86.4289 74.4006 87.8047 72.9523 87.8047 71.1657C87.8047 69.3792 86.4289 67.9309 84.7316 67.9309ZM84.7316 90.5748C83.0344 90.5748 81.6585 92.0231 81.6585 93.8097C81.6585 95.5962 83.0344 97.0445 84.7316 97.0445C86.4289 97.0445 87.8047 95.5962 87.8047 93.8097C87.8047 92.0231 86.4289 90.5748 84.7316 90.5748ZM84.7316 113.219C83.0344 113.219 81.6585 114.667 81.6585 116.453C81.6585 118.24 83.0344 119.688 84.7316 119.688C86.4289 119.688 87.8047 118.24 87.8047 116.453C87.8047 114.667 86.4289 113.219 84.7316 113.219ZM64.5366 0C62.8393 0 61.4634 1.44824 61.4634 3.23474C61.4634 5.02124 62.8393 6.46948 64.5366 6.46948C66.2338 6.46948 67.6097 5.02124 67.6097 3.23474C67.6097 1.44824 66.2338 0 64.5366 0ZM64.5366 22.6437C62.8393 22.6437 61.4634 24.0919 61.4634 25.8784C61.4634 27.6649 62.8393 29.1132 64.5366 29.1132C66.2338 29.1132 67.6097 27.6649 67.6097 25.8784C67.6097 24.0919 66.2338 22.6437 64.5366 22.6437ZM64.5366 45.2872C62.8393 45.2872 61.4634 46.7355 61.4634 48.522C61.4634 50.3086 62.8393 51.7568 64.5366 51.7568C66.2338 51.7568 67.6097 50.3086 67.6097 48.522C67.6097 46.7355 66.2338 45.2872 64.5366 45.2872ZM64.5366 67.9309C62.8393 67.9309 61.4634 69.3792 61.4634 71.1657C61.4634 72.9523 62.8393 74.4006 64.5366 74.4006C66.2338 74.4006 67.6097 72.9523 67.6097 71.1657C67.6097 69.3792 66.2338 67.9309 64.5366 67.9309ZM64.5366 90.5748C62.8393 90.5748 61.4634 92.0231 61.4634 93.8097C61.4634 95.5962 62.8393 97.0445 64.5366 97.0445C66.2338 97.0445 67.6097 95.5962 67.6097 93.8097C67.6097 92.0231 66.2338 90.5748 64.5366 90.5748ZM64.5366 113.219C62.8393 113.219 61.4634 114.667 61.4634 116.453C61.4634 118.24 62.8393 119.688 64.5366 119.688C66.2338 119.688 67.6097 118.24 67.6097 116.453C67.6097 114.667 66.2338 113.219 64.5366 113.219ZM43.4634 0C41.7661 0 40.3902 1.44824 40.3902 3.23474C40.3902 5.02124 41.7661 6.46948 43.4634 6.46948C45.1607 6.46948 46.5366 5.02124 46.5366 3.23474C46.5366 1.44824 45.1607 0 43.4634 0ZM43.4634 22.6437C41.7661 22.6437 40.3902 24.0919 40.3902 25.8784C40.3902 27.6649 41.7661 29.1132 43.4634 29.1132C45.1607 29.1132 46.5366 27.6649 46.5366 25.8784C46.5366 24.0919 45.1607 22.6437 43.4634 22.6437ZM43.4634 45.2872C41.7661 45.2872 40.3902 46.7355 40.3902 48.522C40.3902 50.3086 41.7661 51.7568 43.4634 51.7568C45.1607 51.7568 46.5366 50.3086 46.5366 48.522C46.5366 46.7355 45.1607 45.2872 43.4634 45.2872ZM43.4634 67.9309C41.7661 67.9309 40.3902 69.3792 40.3902 71.1657C40.3902 72.9523 41.7661 74.4006 43.4634 74.4006C45.1607 74.4006 46.5366 72.9523 46.5366 71.1657C46.5366 69.3792 45.1607 67.9309 43.4634 67.9309ZM43.4634 90.5748C41.7661 90.5748 40.3902 92.0231 40.3902 93.8097C40.3902 95.5962 41.7661 97.0445 43.4634 97.0445C45.1607 97.0445 46.5366 95.5962 46.5366 93.8097C46.5366 92.0231 45.1607 90.5748 43.4634 90.5748ZM43.4634 113.219C41.7661 113.219 40.3902 114.667 40.3902 116.453C40.3902 118.24 41.7661 119.688 43.4634 119.688C45.1607 119.688 46.5366 118.24 46.5366 116.453C46.5366 114.667 45.1607 113.219 43.4634 113.219ZM23.2682 0C21.5709 0 20.195 1.44824 20.195 3.23474C20.195 5.02124 21.5709 6.46948 23.2682 6.46948C24.9655 6.46948 26.3414 5.02124 26.3414 3.23474C26.3414 1.44824 24.9655 0 23.2682 0ZM23.2682 22.6437C21.5709 22.6437 20.195 24.0919 20.195 25.8784C20.195 27.6649 21.5709 29.1132 23.2682 29.1132C24.9655 29.1132 26.3414 27.6649 26.3414 25.8784C26.3414 24.0919 24.9655 22.6437 23.2682 22.6437ZM23.2682 45.2872C21.5709 45.2872 20.195 46.7355 20.195 48.522C20.195 50.3086 21.5709 51.7568 23.2682 51.7568C24.9655 51.7568 26.3414 50.3086 26.3414 48.522C26.3414 46.7355 24.9655 45.2872 23.2682 45.2872ZM23.2682 67.9309C21.5709 67.9309 20.195 69.3792 20.195 71.1657C20.195 72.9523 21.5709 74.4006 23.2682 74.4006C24.9655 74.4006 26.3414 72.9523 26.3414 71.1657C26.3414 69.3792 24.9655 67.9309 23.2682 67.9309ZM23.2682 90.5748C21.5709 90.5748 20.195 92.0231 20.195 93.8097C20.195 95.5962 21.5709 97.0445 23.2682 97.0445C24.9655 97.0445 26.3414 95.5962 26.3414 93.8097C26.3414 92.0231 24.9655 90.5748 23.2682 90.5748ZM23.2684 113.219C21.5712 113.219 20.1952 114.667 20.1952 116.453C20.1952 118.24 21.5712 119.688 23.2684 119.688C24.9657 119.688 26.3416 118.24 26.3416 116.453C26.3416 114.667 24.9657 113.219 23.2684 113.219ZM3.07325 0C1.37596 0 4.05885e-05 1.44824 4.05885e-05 3.23474C4.05885e-05 5.02124 1.37596 6.46948 3.07325 6.46948C4.77053 6.46948 6.14645 5.02124 6.14645 3.23474C6.14645 1.44824 4.77053 0 3.07325 0ZM3.07325 22.6437C1.37596 22.6437 4.05885e-05 24.0919 4.05885e-05 25.8784C4.05885e-05 27.6649 1.37596 29.1132 3.07325 29.1132C4.77053 29.1132 6.14645 27.6649 6.14645 25.8784C6.14645 24.0919 4.77053 22.6437 3.07325 22.6437ZM3.07325 45.2872C1.37596 45.2872 4.05885e-05 46.7355 4.05885e-05 48.522C4.05885e-05 50.3086 1.37596 51.7568 3.07325 51.7568C4.77053 51.7568 6.14645 50.3086 6.14645 48.522C6.14645 46.7355 4.77053 45.2872 3.07325 45.2872ZM3.07325 67.9309C1.37596 67.9309 4.05885e-05 69.3792 4.05885e-05 71.1657C4.05885e-05 72.9523 1.37596 74.4006 3.07325 74.4006C4.77053 74.4006 6.14645 72.9523 6.14645 71.1657C6.14645 69.3792 4.77053 67.9309 3.07325 67.9309ZM3.07325 90.5748C1.37596 90.5748 4.05885e-05 92.0231 4.05885e-05 93.8097C4.05885e-05 95.5962 1.37596 97.0445 3.07325 97.0445C4.77053 97.0445 6.14645 95.5962 6.14645 93.8097C6.14645 92.0231 4.77053 90.5748 3.07325 90.5748ZM3.07313 113.217C1.37589 113.217 0 114.666 0 116.452C0 118.239 1.37589 119.687 3.07313 119.687C4.77038 119.687 6.14627 118.239 6.14627 116.452C6.14627 114.666 4.77038 113.217 3.07313 113.217ZM104.927 136.312C103.229 136.312 101.854 137.76 101.854 139.546C101.854 141.333 103.229 142.781 104.927 142.781C106.624 142.781 108 141.333 108 139.546C108 137.76 106.624 136.312 104.927 136.312ZM104.927 158.955C103.229 158.955 101.854 160.404 101.854 162.19C101.854 163.977 103.229 165.425 104.927 165.425C106.624 165.425 108 163.977 108 162.19C108 160.404 106.624 158.955 104.927 158.955ZM104.927 181.599C103.229 181.599 101.854 183.047 101.854 184.834C101.854 186.62 103.229 188.069 104.927 188.069C106.624 188.069 108 186.62 108 184.834C108 183.047 106.624 181.599 104.927 181.599ZM104.927 204.243C103.229 204.243 101.854 205.691 101.854 207.478C101.854 209.264 103.229 210.712 104.927 210.712C106.624 210.712 108 209.264 108 207.478C108 205.691 106.624 204.243 104.927 204.243ZM104.927 226.887C103.229 226.887 101.854 228.335 101.854 230.122C101.854 231.908 103.229 233.356 104.927 233.356C106.624 233.356 108 231.908 108 230.122C108 228.335 106.624 226.887 104.927 226.887ZM104.927 249.53C103.229 249.53 101.854 250.979 101.854 252.765C101.854 254.552 103.229 256 104.927 256C106.624 256 108 254.552 108 252.765C108 250.979 106.624 249.53 104.927 249.53ZM84.7316 136.312C83.0343 136.312 81.6584 137.76 81.6584 139.546C81.6584 141.333 83.0343 142.781 84.7316 142.781C86.4288 142.781 87.8048 141.333 87.8048 139.546C87.8048 137.76 86.4288 136.312 84.7316 136.312ZM84.7316 158.955C83.0343 158.955 81.6584 160.404 81.6584 162.19C81.6584 163.977 83.0343 165.425 84.7316 165.425C86.4288 165.425 87.8048 163.977 87.8048 162.19C87.8048 160.404 86.4288 158.955 84.7316 158.955ZM84.7316 181.599C83.0343 181.599 81.6584 183.047 81.6584 184.834C81.6584 186.62 83.0343 188.069 84.7316 188.069C86.4288 188.069 87.8048 186.62 87.8048 184.834C87.8048 183.047 86.4288 181.599 84.7316 181.599ZM84.7316 204.243C83.0343 204.243 81.6584 205.691 81.6584 207.478C81.6584 209.264 83.0343 210.712 84.7316 210.712C86.4288 210.712 87.8048 209.264 87.8048 207.478C87.8048 205.691 86.4288 204.243 84.7316 204.243ZM84.7316 226.887C83.0343 226.887 81.6584 228.335 81.6584 230.122C81.6584 231.908 83.0343 233.356 84.7316 233.356C86.4288 233.356 87.8048 231.908 87.8048 230.122C87.8048 228.335 86.4288 226.887 84.7316 226.887ZM84.7316 249.53C83.0343 249.53 81.6584 250.979 81.6584 252.765C81.6584 254.552 83.0343 256 84.7316 256C86.4288 256 87.8048 254.552 87.8048 252.765C87.8048 250.979 86.4288 249.53 84.7316 249.53ZM64.5365 136.312C62.8392 136.312 61.4632 137.76 61.4632 139.546C61.4632 141.333 62.8392 142.781 64.5365 142.781C66.2337 142.781 67.6097 141.333 67.6097 139.546C67.6097 137.76 66.2337 136.312 64.5365 136.312ZM64.5365 158.955C62.8392 158.955 61.4632 160.404 61.4632 162.19C61.4632 163.977 62.8392 165.425 64.5365 165.425C66.2337 165.425 67.6097 163.977 67.6097 162.19C67.6097 160.404 66.2337 158.955 64.5365 158.955ZM64.5365 181.599C62.8392 181.599 61.4632 183.047 61.4632 184.834C61.4632 186.62 62.8392 188.069 64.5365 188.069C66.2337 188.069 67.6097 186.62 67.6097 184.834C67.6097 183.047 66.2337 181.599 64.5365 181.599ZM64.5365 204.243C62.8392 204.243 61.4632 205.691 61.4632 207.478C61.4632 209.264 62.8392 210.712 64.5365 210.712C66.2337 210.712 67.6097 209.264 67.6097 207.478C67.6097 205.691 66.2337 204.243 64.5365 204.243ZM64.5365 226.887C62.8392 226.887 61.4632 228.335 61.4632 230.122C61.4632 231.908 62.8392 233.356 64.5365 233.356C66.2337 233.356 67.6097 231.908 67.6097 230.122C67.6097 228.335 66.2337 226.887 64.5365 226.887ZM64.5365 249.53C62.8392 249.53 61.4632 250.979 61.4632 252.765C61.4632 254.552 62.8392 256 64.5365 256C66.2337 256 67.6097 254.552 67.6097 252.765C67.6097 250.979 66.2337 249.53 64.5365 249.53ZM43.4633 136.312C41.7661 136.312 40.3901 137.76 40.3901 139.546C40.3901 141.333 41.7661 142.781 43.4633 142.781C45.1606 142.781 46.5365 141.333 46.5365 139.546C46.5365 137.76 45.1606 136.312 43.4633 136.312ZM43.4633 158.955C41.7661 158.955 40.3901 160.404 40.3901 162.19C40.3901 163.977 41.7661 165.425 43.4633 165.425C45.1606 165.425 46.5365 163.977 46.5365 162.19C46.5365 160.404 45.1606 158.955 43.4633 158.955ZM43.4633 181.599C41.7661 181.599 40.3901 183.047 40.3901 184.834C40.3901 186.62 41.7661 188.069 43.4633 188.069C45.1606 188.069 46.5365 186.62 46.5365 184.834C46.5365 183.047 45.1606 181.599 43.4633 181.599ZM43.4633 204.243C41.7661 204.243 40.3901 205.691 40.3901 207.478C40.3901 209.264 41.7661 210.712 43.4633 210.712C45.1606 210.712 46.5365 209.264 46.5365 207.478C46.5365 205.691 45.1606 204.243 43.4633 204.243ZM43.4633 226.887C41.7661 226.887 40.3901 228.335 40.3901 230.122C40.3901 231.908 41.7661 233.356 43.4633 233.356C45.1606 233.356 46.5365 231.908 46.5365 230.122C46.5365 228.335 45.1606 226.887 43.4633 226.887ZM43.4633 249.53C41.7661 249.53 40.3901 250.979 40.3901 252.765C40.3901 254.552 41.7661 256 43.4633 256C45.1606 256 46.5365 254.552 46.5365 252.765C46.5365 250.979 45.1606 249.53 43.4633 249.53ZM23.2682 136.312C21.5709 136.312 20.1949 137.76 20.1949 139.546C20.1949 141.333 21.5709 142.781 23.2682 142.781C24.9654 142.781 26.3414 141.333 26.3414 139.546C26.3414 137.76 24.9654 136.312 23.2682 136.312ZM23.2682 158.955C21.5709 158.955 20.1949 160.404 20.1949 162.19C20.1949 163.977 21.5709 165.425 23.2682 165.425C24.9654 165.425 26.3414 163.977 26.3414 162.19C26.3414 160.404 24.9654 158.955 23.2682 158.955ZM23.2682 181.599C21.5709 181.599 20.1949 183.047 20.1949 184.834C20.1949 186.62 21.5709 188.069 23.2682 188.069C24.9654 188.069 26.3414 186.62 26.3414 184.834C26.3414 183.047 24.9654 181.599 23.2682 181.599ZM23.2682 204.243C21.5709 204.243 20.1949 205.691 20.1949 207.478C20.1949 209.264 21.5709 210.712 23.2682 210.712C24.9654 210.712 26.3414 209.264 26.3414 207.478C26.3414 205.691 24.9654 204.243 23.2682 204.243ZM23.2682 226.887C21.5709 226.887 20.1949 228.335 20.1949 230.122C20.1949 231.908 21.5709 233.356 23.2682 233.356C24.9654 233.356 26.3414 231.908 26.3414 230.122C26.3414 228.335 24.9654 226.887 23.2682 226.887ZM23.2684 249.53C21.5711 249.53 20.1952 250.979 20.1952 252.765C20.1952 254.552 21.5711 256 23.2684 256C24.9657 256 26.3416 254.552 26.3416 252.765C26.3416 250.979 24.9657 249.53 23.2684 249.53ZM3.07313 136.312C1.37589 136.312 0 137.76 0 139.546C0 141.333 1.37589 142.781 3.07313 142.781C4.77038 142.781 6.14627 141.333 6.14627 139.546C6.14627 137.76 4.77038 136.312 3.07313 136.312ZM3.07313 158.955C1.37589 158.955 0 160.404 0 162.19C0 163.977 1.37589 165.425 3.07313 165.425C4.77038 165.425 6.14627 163.977 6.14627 162.19C6.14627 160.404 4.77038 158.955 3.07313 158.955ZM3.07313 181.599C1.37589 181.599 0 183.047 0 184.834C0 186.62 1.37589 188.069 3.07313 188.069C4.77038 188.069 6.14627 186.62 6.14627 184.834C6.14627 183.047 4.77038 181.599 3.07313 181.599ZM3.07313 204.243C1.37589 204.243 0 205.691 0 207.478C0 209.264 1.37589 210.712 3.07313 210.712C4.77038 210.712 6.14627 209.264 6.14627 207.478C6.14627 205.691 4.77038 204.243 3.07313 204.243ZM3.07313 226.887C1.37589 226.887 0 228.335 0 230.122C0 231.908 1.37589 233.356 3.07313 233.356C4.77038 233.356 6.14627 231.908 6.14627 230.122C6.14627 228.335 4.77038 226.887 3.07313 226.887ZM3.07313 249.53C1.37589 249.53 0 250.979 0 252.765C0 254.552 1.37589 256 3.07313 256C4.77038 256 6.14627 254.552 6.14627 252.765C6.14627 250.979 4.77038 249.53 3.07313 249.53Z" fill="#FFAA34"/>
</svg>
