<svg width="208" height="423" viewBox="0 0 208 423" fill="none" xmlns="http://www.w3.org/2000/svg">
<g opacity="0.24">
<mask id="mask0" mask-type="alpha" maskUnits="userSpaceOnUse" x="0" y="0" width="208" height="423">
<path fill-rule="evenodd" clip-rule="evenodd" d="M1.16888e-05 181.473L205.092 2.3805e-05L207.224 2.6792L2.1319 184.152L1.16888e-05 181.473Z" fill="#124E77"/>
<path fill-rule="evenodd" clip-rule="evenodd" d="M5.11938e-06 201.213L205.092 19.7404L207.224 22.4196L2.1319 203.892L5.11938e-06 201.213Z" fill="#124E77"/>
<path fill-rule="evenodd" clip-rule="evenodd" d="M1.16888e-05 220.954L205.092 39.4809L207.224 42.16L2.1319 223.633L1.16888e-05 220.954Z" fill="#124E77"/>
<path fill-rule="evenodd" clip-rule="evenodd" d="M1.9353e-06 240.694L205.092 59.2216L207.224 61.9008L2.13189 243.373L1.9353e-06 240.694Z" fill="#124E77"/>
<path fill-rule="evenodd" clip-rule="evenodd" d="M1.16888e-05 260.435L205.092 78.9619L207.224 81.6411L2.1319 263.114L1.16888e-05 260.435Z" fill="#124E77"/>
<path fill-rule="evenodd" clip-rule="evenodd" d="M1.16888e-05 280.175L205.092 98.7025L207.224 101.382L2.1319 282.854L1.16888e-05 280.175Z" fill="#124E77"/>
<path fill-rule="evenodd" clip-rule="evenodd" d="M1.16888e-05 299.916L205.092 118.443L207.224 121.122L2.1319 302.595L1.16888e-05 299.916Z" fill="#124E77"/>
<path fill-rule="evenodd" clip-rule="evenodd" d="M1.16888e-05 319.656L205.092 138.184L207.224 140.863L2.1319 322.336L1.16888e-05 319.656Z" fill="#124E77"/>
<path fill-rule="evenodd" clip-rule="evenodd" d="M1.16888e-05 340.584L205.092 159.111L207.224 161.791L2.1319 343.263L1.16888e-05 340.584Z" fill="#124E77"/>
<path fill-rule="evenodd" clip-rule="evenodd" d="M5.11938e-06 360.325L205.092 178.852L207.224 181.531L2.1319 363.004L5.11938e-06 360.325Z" fill="#124E77"/>
<path fill-rule="evenodd" clip-rule="evenodd" d="M1.16888e-05 380.065L205.092 198.592L207.224 201.271L2.1319 382.744L1.16888e-05 380.065Z" fill="#124E77"/>
<path fill-rule="evenodd" clip-rule="evenodd" d="M1.16888e-05 399.806L205.092 218.333L207.224 221.012L2.1319 402.485L1.16888e-05 399.806Z" fill="#124E77"/>
<path fill-rule="evenodd" clip-rule="evenodd" d="M-7.81816e-06 419.546L205.092 238.074L207.224 240.753L2.13188 422.225L-7.81816e-06 419.546Z" fill="#124E77"/>
</mask>
<g mask="url(#mask0)">
<path d="M193.403 220.979C193.403 277.295 150.11 322.947 96.7054 322.947C43.3011 322.947 0.00830078 277.295 0.00830078 220.979C0.00830078 164.664 43.3011 119.011 96.7054 119.011C150.11 119.011 193.403 164.664 193.403 220.979Z" fill="#0E3C58"/>
<path fill-rule="evenodd" clip-rule="evenodd" d="M96.7054 308.083C142.325 308.083 179.307 269.085 179.307 220.979C179.307 172.873 142.325 133.875 96.7054 133.875C51.0859 133.875 14.104 172.873 14.104 220.979C14.104 269.085 51.0859 308.083 96.7054 308.083ZM96.7054 322.947C150.11 322.947 193.403 277.295 193.403 220.979C193.403 164.664 150.11 119.011 96.7054 119.011C43.3011 119.011 0.00830078 164.664 0.00830078 220.979C0.00830078 277.295 43.3011 322.947 96.7054 322.947Z" fill="#0E3C58"/>
</g>
</g>
</svg>
