<svg width="19" height="19" viewBox="0 0 19 19" fill="none" xmlns="http://www.w3.org/2000/svg">
<path d="M9.50011 4.60949C6.83996 4.60949 4.69308 6.75636 4.69308 9.41652C4.69308 12.0767 6.83996 14.2235 9.50011 14.2235C12.1603 14.2235 14.3071 12.0767 14.3071 9.41652C14.3071 6.75636 12.1603 4.60949 9.50011 4.60949ZM9.50011 12.5407C7.7798 12.5407 6.37589 11.1368 6.37589 9.41652C6.37589 7.6962 7.7798 6.2923 9.50011 6.2923C11.2204 6.2923 12.6243 7.6962 12.6243 9.41652C12.6243 11.1368 11.2204 12.5407 9.50011 12.5407ZM14.504 3.2923C13.8829 3.2923 13.3814 3.79386 13.3814 4.41496C13.3814 5.03605 13.8829 5.53761 14.504 5.53761C15.1251 5.53761 15.6267 5.03839 15.6267 4.41496C15.6269 4.26747 15.5979 4.1214 15.5416 3.98511C15.4852 3.84882 15.4026 3.72499 15.2983 3.6207C15.194 3.51642 15.0702 3.43373 14.9339 3.37738C14.7976 3.32103 14.6515 3.29211 14.504 3.2923ZM18.8704 9.41652C18.8704 8.12277 18.8821 6.84074 18.8095 5.54933C18.7368 4.04933 18.3946 2.71808 17.2978 1.6212C16.1986 0.521986 14.8696 0.182142 13.3696 0.109486C12.0759 0.0368299 10.7939 0.0485487 9.50245 0.0485487C8.2087 0.0485487 6.92667 0.0368299 5.63527 0.109486C4.13527 0.182142 2.80402 0.52433 1.70714 1.6212C0.607924 2.72042 0.26808 4.04933 0.195424 5.54933C0.122767 6.84308 0.134486 8.12511 0.134486 9.41652C0.134486 10.7079 0.122767 11.9923 0.195424 13.2837C0.26808 14.7837 0.610268 16.115 1.70714 17.2118C2.80636 18.311 4.13527 18.6509 5.63527 18.7235C6.92902 18.7962 8.21105 18.7845 9.50245 18.7845C10.7962 18.7845 12.0782 18.7962 13.3696 18.7235C14.8696 18.6509 16.2009 18.3087 17.2978 17.2118C18.397 16.1126 18.7368 14.7837 18.8095 13.2837C18.8845 11.9923 18.8704 10.7103 18.8704 9.41652ZM16.8079 14.9431C16.6368 15.3696 16.4306 15.6884 16.1001 16.0165C15.7696 16.347 15.4532 16.5532 15.0267 16.7243C13.7939 17.2142 10.8665 17.104 9.50011 17.104C8.13371 17.104 5.20402 17.2142 3.97121 16.7267C3.54464 16.5556 3.22589 16.3493 2.89777 16.0189C2.5673 15.6884 2.36105 15.372 2.18996 14.9454C1.70246 13.7103 1.81261 10.7829 1.81261 9.41652C1.81261 8.05011 1.70246 5.12042 2.18996 3.88761C2.36105 3.46105 2.5673 3.1423 2.89777 2.81417C3.22824 2.48605 3.54464 2.27746 3.97121 2.10636C5.20402 1.61886 8.13371 1.72902 9.50011 1.72902C10.8665 1.72902 13.7962 1.61886 15.029 2.10636C15.4556 2.27746 15.7743 2.48371 16.1025 2.81417C16.4329 3.14464 16.6392 3.46105 16.8103 3.88761C17.2978 5.12042 17.1876 8.05011 17.1876 9.41652C17.1876 10.7829 17.2978 13.7103 16.8079 14.9431Z" fill="white"/>
</svg>
