<svg width="523" height="149" viewBox="0 0 523 149" fill="none" xmlns="http://www.w3.org/2000/svg">
<mask id="path-1-inside-1" fill="white">
<path d="M77.9956 18.0649L76.3066 18.7651L76.194 21.9017L77.9111 22.8259L77.8548 24.7023L78.9527 24.9263L79.4031 26.9708L80.6416 29.0992L80.529 29.5193L80.0223 31.2276L71.8309 31.2836L70.9864 30.2754L68.1152 29.5193L67.8337 29.6873L68.6782 30.1354L68.7063 30.8355L67.1863 30.9476L66.5951 29.1272L65.6662 28.8472L63.7802 30.6395L65.0187 34.5603L64.315 35.4845L62.5698 35.7365L62.2601 38.4251L63.8365 41.8978L63.5831 46.7428L63.8928 47.695H64.3431L65.5817 49.0393L66.1729 48.9553L67.7211 50.8037L66.6795 51.5038L66.5951 52.26L63.9491 53.4922L63.7239 55.4806L61.8942 57.413L62.1757 58.6453L61.669 59.1494L62.1194 61.2778L60.74 61.8099L57.897 61.9499L57.6436 61.1658L55.7858 61.0818L55.6169 60.4376L54.5753 60.1576L54.6598 58.9533L52.0982 57.7491L50.55 57.6931L49.0299 56.6009L47.735 56.3208L45.7646 54.0523L44.2445 53.4082L40.191 53.0721L31.9151 54.7805L27.6927 54.2483L21.725 55.1725L20.5991 55.9847L18.6286 55.4526L17.6715 55.7887L15.9545 54.2483L15.0818 54.1084L14.6596 54.9765L14.1247 55.0045L14.3218 54.2764L12.7173 53.2121L9.48011 52.54L8.57931 52.7361L8.01633 53.9403L7.08739 54.7244L5.93326 54.4444L5.51104 51.6438L4.91988 50.8597H4.46953L4.27246 50.1315L7.03108 50.3276L7.96002 49.0673L10.212 47.443L9.8742 46.2387L12.2106 45.1185L13.8151 48.6752L13.3084 48.8152L13.1114 49.4594L14.5188 50.3836L15.4196 51.8679L15.5603 53.1001L16.433 53.8003L17.0241 53.6882L18.4879 51.9239L18.882 49.1513L21.8377 46.7428L22.0347 45.6226L23.0481 45.2305L23.9489 44.0543L24.5682 42.0659L24.3148 39.8254L25.8349 37.1929L26.9608 36.3247L27.3268 37.6689L26.8201 38.3411L27.9742 39.2373L28.9313 39.4053L31.8025 38.8172L33.773 36.1286L34.2515 34.5043L34.4767 25.8785L36.1938 19.5773L37.2916 18.9051L37.2072 17.1967L39.3184 15.8805L40.0784 14.7603L42.2741 12.9679L42.7808 10.5314L42.0207 10.6714L44.4697 8.31893L46.5528 8.01086L48.1291 9.83122L48.0728 13.444L50.9441 14.9843L51.6759 15.0683L53.8153 14.0881L54.5472 13.276L54.885 11.9037L55.5324 11.4276L57.9814 12.2397L58.3192 12.7999L59.1355 13.0519L60.2615 11.9037L61.0215 12.6318L61.9223 12.7158L61.669 13.1359L62.3164 14.5922L63.6957 15.3204L64.7654 15.1243L66.8203 15.7685L68.8752 14.2842L70.2545 15.1523L72.8724 14.6762L73.4635 14.2281L74.6739 14.9283L76.0533 14.5082L77.3763 15.7965L77.123 16.1325L77.9956 18.0649Z"/>
</mask>
<path d="M77.9956 18.0649L76.3066 18.7651L76.194 21.9017L77.9111 22.8259L77.8548 24.7023L78.9527 24.9263L79.4031 26.9708L80.6416 29.0992L80.529 29.5193L80.0223 31.2276L71.8309 31.2836L70.9864 30.2754L68.1152 29.5193L67.8337 29.6873L68.6782 30.1354L68.7063 30.8355L67.1863 30.9476L66.5951 29.1272L65.6662 28.8472L63.7802 30.6395L65.0187 34.5603L64.315 35.4845L62.5698 35.7365L62.2601 38.4251L63.8365 41.8978L63.5831 46.7428L63.8928 47.695H64.3431L65.5817 49.0393L66.1729 48.9553L67.7211 50.8037L66.6795 51.5038L66.5951 52.26L63.9491 53.4922L63.7239 55.4806L61.8942 57.413L62.1757 58.6453L61.669 59.1494L62.1194 61.2778L60.74 61.8099L57.897 61.9499L57.6436 61.1658L55.7858 61.0818L55.6169 60.4376L54.5753 60.1576L54.6598 58.9533L52.0982 57.7491L50.55 57.6931L49.0299 56.6009L47.735 56.3208L45.7646 54.0523L44.2445 53.4082L40.191 53.0721L31.9151 54.7805L27.6927 54.2483L21.725 55.1725L20.5991 55.9847L18.6286 55.4526L17.6715 55.7887L15.9545 54.2483L15.0818 54.1084L14.6596 54.9765L14.1247 55.0045L14.3218 54.2764L12.7173 53.2121L9.48011 52.54L8.57931 52.7361L8.01633 53.9403L7.08739 54.7244L5.93326 54.4444L5.51104 51.6438L4.91988 50.8597H4.46953L4.27246 50.1315L7.03108 50.3276L7.96002 49.0673L10.212 47.443L9.8742 46.2387L12.2106 45.1185L13.8151 48.6752L13.3084 48.8152L13.1114 49.4594L14.5188 50.3836L15.4196 51.8679L15.5603 53.1001L16.433 53.8003L17.0241 53.6882L18.4879 51.9239L18.882 49.1513L21.8377 46.7428L22.0347 45.6226L23.0481 45.2305L23.9489 44.0543L24.5682 42.0659L24.3148 39.8254L25.8349 37.1929L26.9608 36.3247L27.3268 37.6689L26.8201 38.3411L27.9742 39.2373L28.9313 39.4053L31.8025 38.8172L33.773 36.1286L34.2515 34.5043L34.4767 25.8785L36.1938 19.5773L37.2916 18.9051L37.2072 17.1967L39.3184 15.8805L40.0784 14.7603L42.2741 12.9679L42.7808 10.5314L42.0207 10.6714L44.4697 8.31893L46.5528 8.01086L48.1291 9.83122L48.0728 13.444L50.9441 14.9843L51.6759 15.0683L53.8153 14.0881L54.5472 13.276L54.885 11.9037L55.5324 11.4276L57.9814 12.2397L58.3192 12.7999L59.1355 13.0519L60.2615 11.9037L61.0215 12.6318L61.9223 12.7158L61.669 13.1359L62.3164 14.5922L63.6957 15.3204L64.7654 15.1243L66.8203 15.7685L68.8752 14.2842L70.2545 15.1523L72.8724 14.6762L73.4635 14.2281L74.6739 14.9283L76.0533 14.5082L77.3763 15.7965L77.123 16.1325L77.9956 18.0649Z" fill="white" stroke="black" stroke-width="2" mask="url(#path-1-inside-1)"/>
<mask id="path-2-inside-2" fill="white">
<path d="M96.1921 10.6785L98.3447 12.9217L99.5188 13.146L105.669 11.744L108.213 12.4731L110.673 15.1088L114.084 20.8849L118.584 22.6234L121.548 22.9879L123.952 25.6237L125.126 24.6703L125.741 25.0629L127.111 24.9788L130.773 22.7636L132.506 22.8197L132.842 23.9974L134.547 23.0721L134.966 23.8291L134.184 23.8011L134.407 25.2031L137.426 26.2686L141.396 28.5398L145.897 29.9137L148.692 28.1753L149.867 26.8574L149.671 25.7919L148.692 24.8386L149.727 25.0068L150.482 25.7919L154.228 25.7078L155.989 26.9696L156.213 25.5956L156.604 25.3993L157.415 26.5209L157.862 28.0351L157.526 28.5117L158.309 30.839L162.055 35.045L165.857 37.3162L166.276 40.681L166.025 42.2792L167.059 47.4666L168.876 50.6911L170.526 51.1117L171.308 50.1584L172.65 50.8874L172.874 52.4857L176.145 53.2708L178.745 51.981L178.884 50.9435L178.018 50.635L178.661 49.878L179.975 49.7939L179.779 53.9157L178.213 56.2991L177.515 56.6075L176.313 58.2338L176.76 59.6358L176.62 61.4583L178.437 62.4958L178.325 63.5053L177.57 64.1502L177.85 65.0194L177.375 66.0568L177.515 67.0943L176.732 67.8234L174.887 67.9636L173.545 69.5899L171.923 69.7581L170.973 68.8889L170.023 68.9169L167.283 70.2628L167.227 71.8611L168.01 72.6182V74.0482L166.696 76.3194L166.947 78.6186L167.451 78.5626L168.038 79.2355L171.308 78.9831L172.734 80.3291L173.042 81.675L174.579 83.3293L174.216 84.6191L174.495 85.8528L175.334 86.8903L176.285 89.526L176.061 90.9841L175.25 92.2179L177.179 94.2647L178.549 94.9657L176.648 96.1715L175.194 95.3303L173.126 95.162L171.812 96.0312L171.7 96.4238L172.622 97.4052L172.231 97.7697L171.225 97.1528L170.861 95.7228L167.926 95.6107L165.354 96.1995L164.236 97.2931L164.012 100.433L162.754 101.331L161.021 102.004H156.296L143.8 99.8447L139.495 98.3866L135.414 97.8819L132.506 98.0782L132.003 97.7978L131.724 96.4799L130.466 95.6948L129.096 95.106L124.902 94.6573L123.98 92.6104L120.569 90.171L114.475 87.9558L113.469 87.0866L109.806 86.3856L102.622 85.8528L97.0028 84.3668L70.529 82.5162L68.0969 81.8152L66.7271 80.4973L64.3229 79.7122L62.7854 80.2449L62.7294 79.2635L61.4155 76.2913L61.4435 74.0482L63.0369 71.4965L65.497 70.9638L64.8261 69.5058L65.1057 68.4683L66.4755 67.2906L67.7334 66.8139L69.4947 64.4306L69.299 61.879L67.8732 60.4489L64.4347 60.0283L63.1208 60.505L62.2542 61.4023L61.8069 59.2713L62.3101 58.7666L62.0306 57.5328L63.8476 55.5981L64.0713 53.6073L66.6991 52.3735L66.783 51.6164L67.8174 50.9154L66.2798 49.0648L65.6927 49.1489L64.4627 47.803H64.0154L63.7079 46.8497L63.9595 41.9989L62.394 38.5219L62.7015 35.8301L64.4347 35.5777L65.1336 34.6524L63.9036 30.7269L65.7766 28.9324L66.6991 29.2127L67.2862 31.0353L68.7958 30.9232L68.7678 30.2222L67.9292 29.7736L68.2087 29.6053L71.0602 30.3624L71.8988 31.3718L80.0339 31.3157L80.5371 29.6053L80.6489 29.1847L82.1026 29.0445L81.4317 30.9512L81.7671 31.3718L84.2831 30.6708L86.6593 32.0448L87.1625 31.9046L87.7496 29.2408L87.1625 28.2033L87.0227 26.6331L88.784 26.1564L89.9301 23.745L90.0978 18.1651L91.1322 17.9969L91.6354 17.2959L90.9365 16.1463L92.1106 15.3612L91.6634 14.7443L91.1881 14.9966L91.0483 14.0433L91.915 13.3142L92.2225 11.4637L91.7472 10.8187L90.9365 11.015V10.7627L92.6138 9.61304L96.1921 10.6785Z"/>
</mask>
<path d="M96.1921 10.6785L98.3447 12.9217L99.5188 13.146L105.669 11.744L108.213 12.4731L110.673 15.1088L114.084 20.8849L118.584 22.6234L121.548 22.9879L123.952 25.6237L125.126 24.6703L125.741 25.0629L127.111 24.9788L130.773 22.7636L132.506 22.8197L132.842 23.9974L134.547 23.0721L134.966 23.8291L134.184 23.8011L134.407 25.2031L137.426 26.2686L141.396 28.5398L145.897 29.9137L148.692 28.1753L149.867 26.8574L149.671 25.7919L148.692 24.8386L149.727 25.0068L150.482 25.7919L154.228 25.7078L155.989 26.9696L156.213 25.5956L156.604 25.3993L157.415 26.5209L157.862 28.0351L157.526 28.5117L158.309 30.839L162.055 35.045L165.857 37.3162L166.276 40.681L166.025 42.2792L167.059 47.4666L168.876 50.6911L170.526 51.1117L171.308 50.1584L172.65 50.8874L172.874 52.4857L176.145 53.2708L178.745 51.981L178.884 50.9435L178.018 50.635L178.661 49.878L179.975 49.7939L179.779 53.9157L178.213 56.2991L177.515 56.6075L176.313 58.2338L176.76 59.6358L176.62 61.4583L178.437 62.4958L178.325 63.5053L177.57 64.1502L177.85 65.0194L177.375 66.0568L177.515 67.0943L176.732 67.8234L174.887 67.9636L173.545 69.5899L171.923 69.7581L170.973 68.8889L170.023 68.9169L167.283 70.2628L167.227 71.8611L168.01 72.6182V74.0482L166.696 76.3194L166.947 78.6186L167.451 78.5626L168.038 79.2355L171.308 78.9831L172.734 80.3291L173.042 81.675L174.579 83.3293L174.216 84.6191L174.495 85.8528L175.334 86.8903L176.285 89.526L176.061 90.9841L175.25 92.2179L177.179 94.2647L178.549 94.9657L176.648 96.1715L175.194 95.3303L173.126 95.162L171.812 96.0312L171.7 96.4238L172.622 97.4052L172.231 97.7697L171.225 97.1528L170.861 95.7228L167.926 95.6107L165.354 96.1995L164.236 97.2931L164.012 100.433L162.754 101.331L161.021 102.004H156.296L143.8 99.8447L139.495 98.3866L135.414 97.8819L132.506 98.0782L132.003 97.7978L131.724 96.4799L130.466 95.6948L129.096 95.106L124.902 94.6573L123.98 92.6104L120.569 90.171L114.475 87.9558L113.469 87.0866L109.806 86.3856L102.622 85.8528L97.0028 84.3668L70.529 82.5162L68.0969 81.8152L66.7271 80.4973L64.3229 79.7122L62.7854 80.2449L62.7294 79.2635L61.4155 76.2913L61.4435 74.0482L63.0369 71.4965L65.497 70.9638L64.8261 69.5058L65.1057 68.4683L66.4755 67.2906L67.7334 66.8139L69.4947 64.4306L69.299 61.879L67.8732 60.4489L64.4347 60.0283L63.1208 60.505L62.2542 61.4023L61.8069 59.2713L62.3101 58.7666L62.0306 57.5328L63.8476 55.5981L64.0713 53.6073L66.6991 52.3735L66.783 51.6164L67.8174 50.9154L66.2798 49.0648L65.6927 49.1489L64.4627 47.803H64.0154L63.7079 46.8497L63.9595 41.9989L62.394 38.5219L62.7015 35.8301L64.4347 35.5777L65.1336 34.6524L63.9036 30.7269L65.7766 28.9324L66.6991 29.2127L67.2862 31.0353L68.7958 30.9232L68.7678 30.2222L67.9292 29.7736L68.2087 29.6053L71.0602 30.3624L71.8988 31.3718L80.0339 31.3157L80.5371 29.6053L80.6489 29.1847L82.1026 29.0445L81.4317 30.9512L81.7671 31.3718L84.2831 30.6708L86.6593 32.0448L87.1625 31.9046L87.7496 29.2408L87.1625 28.2033L87.0227 26.6331L88.784 26.1564L89.9301 23.745L90.0978 18.1651L91.1322 17.9969L91.6354 17.2959L90.9365 16.1463L92.1106 15.3612L91.6634 14.7443L91.1881 14.9966L91.0483 14.0433L91.915 13.3142L92.2225 11.4637L91.7472 10.8187L90.9365 11.015V10.7627L92.6138 9.61304L96.1921 10.6785Z" fill="#FFAA34" stroke="black" stroke-width="2" mask="url(#path-2-inside-2)"/>
<mask id="path-3-inside-3" fill="white">
<path d="M396.851 132.715L398.669 133.08L401.074 132.94L402.417 133.78L401.941 134.818L399.116 135.49L396.375 135.63L395.116 135.098L395.2 133.64L396.179 133.248L396.403 132.491L396.851 132.715V132.715ZM516.066 67.633L517.577 68.1375L517.381 68.8662L518.024 69.4268L519.479 69.595L519.758 70.1836H520.486L520.961 69.7912V68.7541L522.108 68.2496L522.08 67.6049L522.835 67.2406L522.08 71.585L521.241 72.2296L519.031 72.3978L515.395 70.604L514.919 69.6791L515.702 68.4458L515.255 67.1845L515.646 66.5118L516.066 67.633V67.633ZM449.493 70.9684L448.71 71.1365L446.752 70.604L444.542 69.0624L443.647 67.3246L444.291 65.727L446.668 64.9983L448.039 65.9513L450.109 70.1836L449.493 70.9684V70.9684ZM510.164 60.822L511.758 61.747L512.206 62.784L510.668 62.2235L509.045 62.6159L507.703 62.1113L507.535 61.1584L506.752 61.0743L506.444 60.3175L507.171 59.3925L510.164 60.822V60.822ZM430.641 56.6738L435.563 59.2244L436.459 61.3826L434.864 61.3265L433.857 62.2235L432.375 62.756L428.934 62.9802L427.983 63.765L426.724 63.1764L426.137 63.5408L427.815 64.3256L428.99 65.643L433.018 65.8672L433.661 67.717L429.186 67.1845L427.396 65.8672L427.648 64.9703L426.445 64.4377L424.85 65.699L424.487 66.4838L424.375 66.9603L425.074 67.2686L425.382 68.1655L425.074 68.8102L415.032 67.6049L413.354 68.67L412.767 68.4178L411.144 68.7261L409.969 70.0434L408.795 73.4349L406.892 74.6962L406.305 74.2197L406.669 73.9674L406.445 73.4909L404.319 73.0705L395.564 72.7622L394.725 73.2387L391.172 73.3508L390.333 71.9774L389.382 72.1456L389.326 71.5009L389.914 70.7722L388.963 69.9313L387.9 71.1926L388.375 72.2577L389.438 73.2107L386.837 73.4629L376.907 71.0244L375.536 70.2396L371.368 69.9874L370.25 70.6881L368.403 70.7441L367.145 69.7351L367.788 67.1004H367.005L366.278 65.1945L366.865 63.8771L368.543 64.2976L371.984 61.4387L373.662 58.9441L373.55 57.9911L376.515 56.9261L380.963 56.87L382.865 56.4496L387.452 57.0382L403.088 56.87L406.417 57.3465L416.095 56.6458L419.312 56.8139L426.501 55.7489L430.641 56.6738V56.6738ZM492.905 54.0671L499.087 54.5156L501.773 55.4405L505.94 57.7949L506.612 59.0282L505.381 60.7099L504.178 59.9812L502.919 60.0652L501.717 58.86L498.863 59.3085L497.94 58.2434L496.794 58.4116L496.514 58.804L495.115 58.6358L495.311 59.2805L497.297 60.2054L498.36 61.747L495.115 62.1113L494.36 61.0463L493.856 61.0743L493.213 61.4387L493.297 62.5037L492.57 62.728L490.696 60.9341L492.01 59.4206L491.143 59.7009L488.794 59.4766L488.402 58.6078L488.906 56.87L490.304 56.6177L490.975 55.6928L491.003 55.1883L489.801 54.5436L490.052 54.2634L490.975 53.8149L492.905 54.0671V54.0671ZM321.187 51.2363L322.586 51.3764L324.907 52.5256L326.67 52.5816L329.271 51.937L331.229 50.8158L332.46 50.956L335.677 56.2814L336.767 57.0942L339.313 57.4306L341.802 57.2904L344.683 56.0852L345.998 56.4215L349.634 55.7208L353.131 56.1973L353.83 55.8049L355.313 56.2253L356.963 57.4866L358.809 57.851L359.844 56.5617L359.201 55.7489L359.984 55.2443L359.844 54.2914L360.963 55.2443L361.299 55.0482L361.355 55.917L362.138 57.0101L362.949 56.9821L363.536 57.7669L363.173 58.5237L362.557 58.2714L362.501 59.0282L363.396 61.8591L365.103 63.1204L365.354 64.6619L364.292 65.8952L363.872 68.1094L366.054 70.0995L366.166 71.1646L365.354 71.6691V72.4819L366.11 72.9864L367.872 73.0985L368.347 72.0054L370.613 71.7532L371.62 72.51L372.711 74.5L374.669 76.0696L374.613 77.471L373.998 78.1998L374.557 78.4801L374.11 81.7594L374.277 85.319L373.242 85.4872L374.194 87.1689L375.508 87.5893L375.9 88.206L375.508 90.6164L376.068 90.7566L376.767 92.13L378.977 92.9148L379.648 92.4103L380.683 93.5594L382.026 94.2041L383.145 93.7276L384.403 94.0359L386.473 96.3903L390.473 98.4364L392.459 98.044L394.333 98.3523L395.984 100.314L397.074 99.6977L397.802 99.8939L399.228 99.3333L400.291 98.2402L401.941 98.072L406.557 96.2221L408.879 96.8668L410.277 96.6986L414.613 97.9319L416.711 96.7547L418.557 98.072L419.2 98.016L420.599 97.5956L421.801 96.138L423.424 95.3813L426.948 96.2502L429.941 93.1951L432.347 91.9899L433.913 93.0829L435.563 96.5305L436.011 96.7266L440.487 97.063L442.305 96.1941L444.682 98.4364L449.018 99.1652L451.787 100.847L453.046 102.613V105.191L450.864 107.125L451.423 110.769L451.395 113.908L450.221 116.122L449.969 118.281L449.102 120.13L449.381 122.205L448.347 124.419L447.172 130.641L447.032 132.267L448.207 134.621L447.591 136.471L448.235 137.06L448.71 136.808L449.214 134.397L448.962 132.856L449.298 132.659L449.857 133.276L449.801 134.677L450.361 136.135L450.025 137.732L451.06 140.395L452.402 142.021L453.745 140.956L455.479 142.637L458.221 143.086L459.871 145.608L459.172 147.795L458.221 148.552L456.263 149L451.703 147.458L448.71 147.542L447.368 147.206L447.2 146.561L448.458 145.945L448.794 145.02L448.347 143.422L446.64 141.684L443.228 140.143L441.717 140.283L441.298 140.788L441.41 142.105L440.962 142.385L435.536 140.956L432.571 141.797L431.843 141.292V140.003L431.032 139.666L430.277 140.115L430.193 140.703L428.487 140.844L427.843 140.143L428.878 139.863L428.934 139.134L428.151 138.209H427.34L426.445 139.162L424.822 138.237L422.473 137.845L422.529 136.695L421.69 137.648L421.242 137.564L421.298 135.182L420.738 134.874L418.892 135.518L418.445 136.275L417.801 136.527L417.186 136.219L416.794 136.583L416.543 136.415L417.018 135.21L416.655 134.509L415.62 135.294L415.06 134.818L414.585 135.154L412.375 132.575L411.172 132.127L410.053 132.295L410.221 131.959L409.746 131.622L408.99 132.043L407.536 131.846L405.354 130.809L405.298 129.66L404.263 129.212L402.585 129.38L400.907 130.389L399.088 127.39L398.277 126.689L396.039 125.204L393.438 124.559L391.005 124.391L383.508 125.652L380.655 127.334L379.704 129.044L378.249 130.221L368.04 131.622L368.264 133.024L367.173 133.388L363.788 131.622L360.795 130.697L355.173 130.221L353.886 129.436H352.599L350.278 127.726L348.152 127.11L346.502 127.979L344.795 127.726L343.201 126.857L336.124 126.605L334.837 126.353L334.054 125.484L332.74 124.923L330.977 124.643L330.698 124.979L331.005 125.596H328.823L326.837 123.942L326.222 123.886L325.886 124.587L324.068 124.111L323.928 123.662L322.782 123.942L323.033 126.913L322.166 127.418L321.243 127.306L321.551 126.381L320.935 125.288L319.984 125.316L319.761 125.764L320.32 126.745L319.257 126.773L318.977 127.362L320.068 128.287L320.264 128.959L318.865 129.324L317.998 129.268L317.551 128.483L315.453 128.259L315.845 127.698L315.649 126.773H315.033L314.921 127.138L313.998 126.885L313.579 127.39L312.796 127.194L312.74 126.157L311.873 125.96L311.201 127.25L307.593 126.381L307.117 124.195L306.194 123.634L304.348 124.671L297.355 123.186L295.901 124.167L292.432 124.475L290.111 122.849L289.999 121.896L289.216 121.84L288.992 123.102L286.195 123.41L280.712 121.588L280.376 119.29L281.076 116.739L283.034 114.16L286.558 115.085L288.908 113.376L290.446 114.244L291.677 112.283L291.481 109.312L292.264 108.779L292.153 107.938L292.656 107.434L294.446 106.985L294.642 107.77L295.817 107.602L296.572 108.527L297.411 108.274L299.145 106.368L299.649 104.407L300.516 103.734L298.894 100.062L299.173 98.4924L296.488 98.6046L294.166 96.6986L294.446 95.6335L294.25 93.4754L294.754 91.7375L292.964 90.5604L292.432 88.318L292.516 86.5242L291.761 85.5993L290.922 82.7404L292.208 80.0216L292.041 78.6482L292.46 77.471L291.957 77.1347L292.488 75.1446L292.74 74.7803L293.663 75.0606L294.782 74.6962L295.034 74.1916L295.621 74.2758L296.908 75.8454L300.152 77.0226L302.222 78.424L305.411 79.1808L306.11 80.0216L307.229 80.386L307.481 79.6292L306.642 79.2088L307.089 77.6672H305.803L306.81 75.1727L307.397 74.5841L307.817 74.8643L308.432 74.3598L308.712 74.6121L311.369 73.2107L313.271 71.2487L315.089 67.661L314.921 66.2596L315.509 65.3346L314.921 62.812L315.453 61.5508L312.712 59.6729L313.551 58.2154L314.67 57.7669L315.341 53.9831L317.215 53.7308L317.635 53.1422L317.523 51.4324L317.97 50.9279L318.474 51.3484L319.033 50.3954L320.124 51.1522L321.187 51.2363V51.2363ZM367.816 0.840824L368.907 1.12113L368.879 1.96199L369.634 3.4475L369.131 5.74583L367.005 6.83894L365.243 6.69883L364.767 6.30643L363.76 6.78291H362.445L361.634 5.32542L362.389 2.83087L363.285 2.69072L363.48 1.65368L364.459 1.03704L365.271 0.700715L366.361 0.952962L366.977 0L367.816 0.840824V0.840824Z"/>
</mask>
<path d="M396.851 132.715L398.669 133.08L401.074 132.94L402.417 133.78L401.941 134.818L399.116 135.49L396.375 135.63L395.116 135.098L395.2 133.64L396.179 133.248L396.403 132.491L396.851 132.715V132.715ZM516.066 67.633L517.577 68.1375L517.381 68.8662L518.024 69.4268L519.479 69.595L519.758 70.1836H520.486L520.961 69.7912V68.7541L522.108 68.2496L522.08 67.6049L522.835 67.2406L522.08 71.585L521.241 72.2296L519.031 72.3978L515.395 70.604L514.919 69.6791L515.702 68.4458L515.255 67.1845L515.646 66.5118L516.066 67.633V67.633ZM449.493 70.9684L448.71 71.1365L446.752 70.604L444.542 69.0624L443.647 67.3246L444.291 65.727L446.668 64.9983L448.039 65.9513L450.109 70.1836L449.493 70.9684V70.9684ZM510.164 60.822L511.758 61.747L512.206 62.784L510.668 62.2235L509.045 62.6159L507.703 62.1113L507.535 61.1584L506.752 61.0743L506.444 60.3175L507.171 59.3925L510.164 60.822V60.822ZM430.641 56.6738L435.563 59.2244L436.459 61.3826L434.864 61.3265L433.857 62.2235L432.375 62.756L428.934 62.9802L427.983 63.765L426.724 63.1764L426.137 63.5408L427.815 64.3256L428.99 65.643L433.018 65.8672L433.661 67.717L429.186 67.1845L427.396 65.8672L427.648 64.9703L426.445 64.4377L424.85 65.699L424.487 66.4838L424.375 66.9603L425.074 67.2686L425.382 68.1655L425.074 68.8102L415.032 67.6049L413.354 68.67L412.767 68.4178L411.144 68.7261L409.969 70.0434L408.795 73.4349L406.892 74.6962L406.305 74.2197L406.669 73.9674L406.445 73.4909L404.319 73.0705L395.564 72.7622L394.725 73.2387L391.172 73.3508L390.333 71.9774L389.382 72.1456L389.326 71.5009L389.914 70.7722L388.963 69.9313L387.9 71.1926L388.375 72.2577L389.438 73.2107L386.837 73.4629L376.907 71.0244L375.536 70.2396L371.368 69.9874L370.25 70.6881L368.403 70.7441L367.145 69.7351L367.788 67.1004H367.005L366.278 65.1945L366.865 63.8771L368.543 64.2976L371.984 61.4387L373.662 58.9441L373.55 57.9911L376.515 56.9261L380.963 56.87L382.865 56.4496L387.452 57.0382L403.088 56.87L406.417 57.3465L416.095 56.6458L419.312 56.8139L426.501 55.7489L430.641 56.6738V56.6738ZM492.905 54.0671L499.087 54.5156L501.773 55.4405L505.94 57.7949L506.612 59.0282L505.381 60.7099L504.178 59.9812L502.919 60.0652L501.717 58.86L498.863 59.3085L497.94 58.2434L496.794 58.4116L496.514 58.804L495.115 58.6358L495.311 59.2805L497.297 60.2054L498.36 61.747L495.115 62.1113L494.36 61.0463L493.856 61.0743L493.213 61.4387L493.297 62.5037L492.57 62.728L490.696 60.9341L492.01 59.4206L491.143 59.7009L488.794 59.4766L488.402 58.6078L488.906 56.87L490.304 56.6177L490.975 55.6928L491.003 55.1883L489.801 54.5436L490.052 54.2634L490.975 53.8149L492.905 54.0671V54.0671ZM321.187 51.2363L322.586 51.3764L324.907 52.5256L326.67 52.5816L329.271 51.937L331.229 50.8158L332.46 50.956L335.677 56.2814L336.767 57.0942L339.313 57.4306L341.802 57.2904L344.683 56.0852L345.998 56.4215L349.634 55.7208L353.131 56.1973L353.83 55.8049L355.313 56.2253L356.963 57.4866L358.809 57.851L359.844 56.5617L359.201 55.7489L359.984 55.2443L359.844 54.2914L360.963 55.2443L361.299 55.0482L361.355 55.917L362.138 57.0101L362.949 56.9821L363.536 57.7669L363.173 58.5237L362.557 58.2714L362.501 59.0282L363.396 61.8591L365.103 63.1204L365.354 64.6619L364.292 65.8952L363.872 68.1094L366.054 70.0995L366.166 71.1646L365.354 71.6691V72.4819L366.11 72.9864L367.872 73.0985L368.347 72.0054L370.613 71.7532L371.62 72.51L372.711 74.5L374.669 76.0696L374.613 77.471L373.998 78.1998L374.557 78.4801L374.11 81.7594L374.277 85.319L373.242 85.4872L374.194 87.1689L375.508 87.5893L375.9 88.206L375.508 90.6164L376.068 90.7566L376.767 92.13L378.977 92.9148L379.648 92.4103L380.683 93.5594L382.026 94.2041L383.145 93.7276L384.403 94.0359L386.473 96.3903L390.473 98.4364L392.459 98.044L394.333 98.3523L395.984 100.314L397.074 99.6977L397.802 99.8939L399.228 99.3333L400.291 98.2402L401.941 98.072L406.557 96.2221L408.879 96.8668L410.277 96.6986L414.613 97.9319L416.711 96.7547L418.557 98.072L419.2 98.016L420.599 97.5956L421.801 96.138L423.424 95.3813L426.948 96.2502L429.941 93.1951L432.347 91.9899L433.913 93.0829L435.563 96.5305L436.011 96.7266L440.487 97.063L442.305 96.1941L444.682 98.4364L449.018 99.1652L451.787 100.847L453.046 102.613V105.191L450.864 107.125L451.423 110.769L451.395 113.908L450.221 116.122L449.969 118.281L449.102 120.13L449.381 122.205L448.347 124.419L447.172 130.641L447.032 132.267L448.207 134.621L447.591 136.471L448.235 137.06L448.71 136.808L449.214 134.397L448.962 132.856L449.298 132.659L449.857 133.276L449.801 134.677L450.361 136.135L450.025 137.732L451.06 140.395L452.402 142.021L453.745 140.956L455.479 142.637L458.221 143.086L459.871 145.608L459.172 147.795L458.221 148.552L456.263 149L451.703 147.458L448.71 147.542L447.368 147.206L447.2 146.561L448.458 145.945L448.794 145.02L448.347 143.422L446.64 141.684L443.228 140.143L441.717 140.283L441.298 140.788L441.41 142.105L440.962 142.385L435.536 140.956L432.571 141.797L431.843 141.292V140.003L431.032 139.666L430.277 140.115L430.193 140.703L428.487 140.844L427.843 140.143L428.878 139.863L428.934 139.134L428.151 138.209H427.34L426.445 139.162L424.822 138.237L422.473 137.845L422.529 136.695L421.69 137.648L421.242 137.564L421.298 135.182L420.738 134.874L418.892 135.518L418.445 136.275L417.801 136.527L417.186 136.219L416.794 136.583L416.543 136.415L417.018 135.21L416.655 134.509L415.62 135.294L415.06 134.818L414.585 135.154L412.375 132.575L411.172 132.127L410.053 132.295L410.221 131.959L409.746 131.622L408.99 132.043L407.536 131.846L405.354 130.809L405.298 129.66L404.263 129.212L402.585 129.38L400.907 130.389L399.088 127.39L398.277 126.689L396.039 125.204L393.438 124.559L391.005 124.391L383.508 125.652L380.655 127.334L379.704 129.044L378.249 130.221L368.04 131.622L368.264 133.024L367.173 133.388L363.788 131.622L360.795 130.697L355.173 130.221L353.886 129.436H352.599L350.278 127.726L348.152 127.11L346.502 127.979L344.795 127.726L343.201 126.857L336.124 126.605L334.837 126.353L334.054 125.484L332.74 124.923L330.977 124.643L330.698 124.979L331.005 125.596H328.823L326.837 123.942L326.222 123.886L325.886 124.587L324.068 124.111L323.928 123.662L322.782 123.942L323.033 126.913L322.166 127.418L321.243 127.306L321.551 126.381L320.935 125.288L319.984 125.316L319.761 125.764L320.32 126.745L319.257 126.773L318.977 127.362L320.068 128.287L320.264 128.959L318.865 129.324L317.998 129.268L317.551 128.483L315.453 128.259L315.845 127.698L315.649 126.773H315.033L314.921 127.138L313.998 126.885L313.579 127.39L312.796 127.194L312.74 126.157L311.873 125.96L311.201 127.25L307.593 126.381L307.117 124.195L306.194 123.634L304.348 124.671L297.355 123.186L295.901 124.167L292.432 124.475L290.111 122.849L289.999 121.896L289.216 121.84L288.992 123.102L286.195 123.41L280.712 121.588L280.376 119.29L281.076 116.739L283.034 114.16L286.558 115.085L288.908 113.376L290.446 114.244L291.677 112.283L291.481 109.312L292.264 108.779L292.153 107.938L292.656 107.434L294.446 106.985L294.642 107.77L295.817 107.602L296.572 108.527L297.411 108.274L299.145 106.368L299.649 104.407L300.516 103.734L298.894 100.062L299.173 98.4924L296.488 98.6046L294.166 96.6986L294.446 95.6335L294.25 93.4754L294.754 91.7375L292.964 90.5604L292.432 88.318L292.516 86.5242L291.761 85.5993L290.922 82.7404L292.208 80.0216L292.041 78.6482L292.46 77.471L291.957 77.1347L292.488 75.1446L292.74 74.7803L293.663 75.0606L294.782 74.6962L295.034 74.1916L295.621 74.2758L296.908 75.8454L300.152 77.0226L302.222 78.424L305.411 79.1808L306.11 80.0216L307.229 80.386L307.481 79.6292L306.642 79.2088L307.089 77.6672H305.803L306.81 75.1727L307.397 74.5841L307.817 74.8643L308.432 74.3598L308.712 74.6121L311.369 73.2107L313.271 71.2487L315.089 67.661L314.921 66.2596L315.509 65.3346L314.921 62.812L315.453 61.5508L312.712 59.6729L313.551 58.2154L314.67 57.7669L315.341 53.9831L317.215 53.7308L317.635 53.1422L317.523 51.4324L317.97 50.9279L318.474 51.3484L319.033 50.3954L320.124 51.1522L321.187 51.2363V51.2363ZM367.816 0.840824L368.907 1.12113L368.879 1.96199L369.634 3.4475L369.131 5.74583L367.005 6.83894L365.243 6.69883L364.767 6.30643L363.76 6.78291H362.445L361.634 5.32542L362.389 2.83087L363.285 2.69072L363.48 1.65368L364.459 1.03704L365.271 0.700715L366.361 0.952962L366.977 0L367.816 0.840824V0.840824Z" fill="white" stroke="black" stroke-width="2" mask="url(#path-3-inside-3)"/>
<path d="M6.35571 40.7196L6.27171 40.8801L6.30999 41.0572L6.71935 42.9504L6.04716 44.3359L4.45419 44.9163L4.43082 44.9248L4.51099 43.8412L4.53044 43.5782L4.32438 43.4136L3.60427 42.8385L3.64804 41.9071L3.67647 41.302L3.07694 41.3888L2.46016 41.4781L3.65538 40.5602L4.87369 40.8452L5.48759 40.9888V40.3584V40.1451L6.3322 40.18L6.48649 40.1864L6.61751 40.1047L6.70671 40.049L6.35571 40.7196ZM83.6915 20.0889L83.8726 20.1236L84.0329 20.0324L85.9669 18.9312L89.2042 18.7203L89.0566 23.6594L88.0571 25.7848L86.4976 26.2047L86.0855 26.3156L86.1304 26.74L86.2976 28.3218L86.3083 28.4239L86.3585 28.5135L86.851 29.3931L86.3666 31.6146L86.3489 31.6205L84.1771 30.3514L83.9938 30.2442L83.7893 30.3018L81.6904 30.8928L82.2516 29.281L82.5134 28.5291L81.7224 28.6199L80.5732 28.7517L79.549 26.9584L79.1195 24.9718L79.0508 24.6542L78.7326 24.588L78.0564 24.4474L78.0996 23.0023L78.1088 22.6962L77.8403 22.5489L76.408 21.7635L76.4752 19.222L77.6575 18.7026L78.5723 19.0967L78.7701 18.6375L78.6761 19.1286L83.6915 20.0889Z" fill="white" stroke="black"/>
<mask id="path-5-inside-4" fill="white">
<path d="M318.828 50.6979L318.268 51.65L317.763 51.23L317.315 51.734L317.427 53.442L317.007 54.03L315.157 54.282L314.485 58.0622L313.364 58.5101L312.524 59.9662L315.27 61.8422L314.737 63.0743L315.326 65.6223L314.737 66.5183L314.905 67.9464L313.084 71.5025L311.151 73.4905L308.489 74.8906L308.209 74.6386L307.592 75.1426L307.172 74.8626L306.583 75.4226L305.603 77.9147H306.892L306.415 79.4547L307.256 79.8747L307.004 80.6307L305.883 80.2667L305.182 79.4267L301.988 78.6707L299.915 77.2706L296.664 76.0946L295.375 74.5266L294.787 74.4426L294.535 74.9466L293.414 75.3106L292.517 75.0306L292.265 75.3946L291.733 77.3826L292.209 77.7186L291.789 78.8947L291.957 80.2667L290.668 82.9548L291.509 85.8389L292.265 86.7349L292.181 88.5269L292.713 90.7669L294.507 91.943L294.002 93.6791L294.199 95.8631L293.918 96.8991L296.244 98.8312L298.934 98.6912L298.654 100.287L300.279 103.927L299.41 104.599L298.906 106.559L297.169 108.491L296.328 108.715L295.571 107.819L294.423 107.987L294.199 107.175L292.433 107.651L291.929 108.155L292.041 108.967L291.256 109.527L291.481 112.468L290.22 114.428L288.679 113.56L286.325 115.268L282.766 114.344L280.833 116.92L280.133 119.468L280.469 121.764L277.134 120.952L277.247 119.552L276.91 119.412L276.406 119.916L276.182 119.608L276.854 117.9L276.238 117.872L275.341 118.936L274.697 118.432L274.837 116.332L273.24 111.824L273.884 110.283L273.828 107.203L274.641 104.851L274.781 102.359L273.968 101.883L273.296 102.639L272.259 101.351L271.362 100.987L270.886 101.603L269.737 101.743L269.205 100.819L268.532 101.463L268.14 101.071L265.058 101.715L264.469 100.763L263.825 100.511L262.816 101.155L261.611 100.035L260.715 99.8672L258.445 88.9749L251.748 94.2391L250.151 96.3951L249.423 96.0032L249.507 94.3511L248.946 93.8751L248.134 94.2111L244.603 93.847L242.894 94.2951L242.39 95.4991L243.286 96.2831L242.95 98.7472L241.997 100.175L241.269 100.455L240.708 101.631L239.588 102.303L238.719 105.887L237.094 105.803L232.359 104.067L222.215 101.295L212.857 99.8112L211.568 99.3072L208.233 100.035L206.944 99.0832L207.421 97.6831L202.181 96.5072L193.551 95.8631L191.393 96.1991L189.74 97.1791L189.292 98.0192L189.04 99.0832L189.572 99.7552L190.357 99.5033L190.693 99.9513L190.161 100.623L179.765 98.3832L178.364 98.6352L177.888 97.7952L178.392 97.0392L177.692 96.8151L178.532 95.9471L179.821 95.7512L180.326 95.0791H181.446V94.6591L180.83 94.4071L178.504 95.2471L177.131 94.5471L175.198 92.5031L176.01 91.271L176.235 89.8149L175.282 87.1829L174.441 86.1468L174.161 84.9148L174.525 83.6268L172.984 81.9748L172.676 80.6307L171.247 79.2867L167.969 79.5387L167.38 78.8667L166.876 78.9227L166.624 76.6266L167.941 74.3586V72.9305L167.156 72.1745L167.212 70.5784L169.958 69.2344L170.911 69.2064L171.863 70.0745L173.489 69.9065L174.834 68.2824L176.683 68.1424L177.467 67.4144L177.327 66.3783L177.804 65.3423L177.524 64.4743L178.28 63.8303L178.392 62.8223L176.571 61.7862L176.711 59.9662L176.263 58.5661L177.467 56.9421L178.168 56.6341L179.737 54.2541L179.933 50.1379L180.213 50.8099L179.933 51.538L180.746 51.6779L181.446 52.938L186.014 54.2541L186.686 53.134L187.667 53.078L189.6 51.762L190.441 51.958L191.393 50.8659L191.786 53.358L193.635 55.094H196.073L197.362 55.8781L200.78 56.3821L202.91 56.3541L204.647 55.7941L205.824 56.0181L208.598 55.2901L211.484 53.694L213.417 51.874L216.107 54.7301L220.254 55.2061L230.761 58.5941L233.227 58.3421L235.02 58.8181L237.15 58.6501L243.679 56.4941L244.771 55.7381L245.024 55.0381L247.153 55.7101L248.554 58.0061L250.992 58.9021L251.916 59.6582L254.747 60.5262L257.913 59.8262L258.249 60.4702L259.958 59.8262L259.93 58.6222L261.247 56.7181L261.892 54.6461L263.545 53.302L264.609 51.146L263.068 51.0339L262.648 50.3899L263.769 50.5859L263.068 49.2979L264.077 49.0739L264.806 49.5219L265.954 48.6819L267.72 46.3298L267.524 44.0338L268.196 43.8097L268.448 41.6257L268.14 41.1497L269.681 39.4137L268.868 38.5176L269.653 38.2096L271.614 35.8296L274.613 34.7935H275.986L276.966 34.0095L280.441 33.6455L282.851 34.2335L284.167 33.7855L287.222 34.7655L290.108 43.4177L291.929 45.8258L294.815 46.4698L296.776 47.5059L303.249 48.1499L307.172 46.4418L307.676 45.0698L309.049 44.3138L309.862 44.9018L310.926 44.6498L312.888 45.4618L318.828 50.6979Z"/>
</mask>
<path d="M318.828 50.6979L318.268 51.65L317.763 51.23L317.315 51.734L317.427 53.442L317.007 54.03L315.157 54.282L314.485 58.0622L313.364 58.5101L312.524 59.9662L315.27 61.8422L314.737 63.0743L315.326 65.6223L314.737 66.5183L314.905 67.9464L313.084 71.5025L311.151 73.4905L308.489 74.8906L308.209 74.6386L307.592 75.1426L307.172 74.8626L306.583 75.4226L305.603 77.9147H306.892L306.415 79.4547L307.256 79.8747L307.004 80.6307L305.883 80.2667L305.182 79.4267L301.988 78.6707L299.915 77.2706L296.664 76.0946L295.375 74.5266L294.787 74.4426L294.535 74.9466L293.414 75.3106L292.517 75.0306L292.265 75.3946L291.733 77.3826L292.209 77.7186L291.789 78.8947L291.957 80.2667L290.668 82.9548L291.509 85.8389L292.265 86.7349L292.181 88.5269L292.713 90.7669L294.507 91.943L294.002 93.6791L294.199 95.8631L293.918 96.8991L296.244 98.8312L298.934 98.6912L298.654 100.287L300.279 103.927L299.41 104.599L298.906 106.559L297.169 108.491L296.328 108.715L295.571 107.819L294.423 107.987L294.199 107.175L292.433 107.651L291.929 108.155L292.041 108.967L291.256 109.527L291.481 112.468L290.22 114.428L288.679 113.56L286.325 115.268L282.766 114.344L280.833 116.92L280.133 119.468L280.469 121.764L277.134 120.952L277.247 119.552L276.91 119.412L276.406 119.916L276.182 119.608L276.854 117.9L276.238 117.872L275.341 118.936L274.697 118.432L274.837 116.332L273.24 111.824L273.884 110.283L273.828 107.203L274.641 104.851L274.781 102.359L273.968 101.883L273.296 102.639L272.259 101.351L271.362 100.987L270.886 101.603L269.737 101.743L269.205 100.819L268.532 101.463L268.14 101.071L265.058 101.715L264.469 100.763L263.825 100.511L262.816 101.155L261.611 100.035L260.715 99.8672L258.445 88.9749L251.748 94.2391L250.151 96.3951L249.423 96.0032L249.507 94.3511L248.946 93.8751L248.134 94.2111L244.603 93.847L242.894 94.2951L242.39 95.4991L243.286 96.2831L242.95 98.7472L241.997 100.175L241.269 100.455L240.708 101.631L239.588 102.303L238.719 105.887L237.094 105.803L232.359 104.067L222.215 101.295L212.857 99.8112L211.568 99.3072L208.233 100.035L206.944 99.0832L207.421 97.6831L202.181 96.5072L193.551 95.8631L191.393 96.1991L189.74 97.1791L189.292 98.0192L189.04 99.0832L189.572 99.7552L190.357 99.5033L190.693 99.9513L190.161 100.623L179.765 98.3832L178.364 98.6352L177.888 97.7952L178.392 97.0392L177.692 96.8151L178.532 95.9471L179.821 95.7512L180.326 95.0791H181.446V94.6591L180.83 94.4071L178.504 95.2471L177.131 94.5471L175.198 92.5031L176.01 91.271L176.235 89.8149L175.282 87.1829L174.441 86.1468L174.161 84.9148L174.525 83.6268L172.984 81.9748L172.676 80.6307L171.247 79.2867L167.969 79.5387L167.38 78.8667L166.876 78.9227L166.624 76.6266L167.941 74.3586V72.9305L167.156 72.1745L167.212 70.5784L169.958 69.2344L170.911 69.2064L171.863 70.0745L173.489 69.9065L174.834 68.2824L176.683 68.1424L177.467 67.4144L177.327 66.3783L177.804 65.3423L177.524 64.4743L178.28 63.8303L178.392 62.8223L176.571 61.7862L176.711 59.9662L176.263 58.5661L177.467 56.9421L178.168 56.6341L179.737 54.2541L179.933 50.1379L180.213 50.8099L179.933 51.538L180.746 51.6779L181.446 52.938L186.014 54.2541L186.686 53.134L187.667 53.078L189.6 51.762L190.441 51.958L191.393 50.8659L191.786 53.358L193.635 55.094H196.073L197.362 55.8781L200.78 56.3821L202.91 56.3541L204.647 55.7941L205.824 56.0181L208.598 55.2901L211.484 53.694L213.417 51.874L216.107 54.7301L220.254 55.2061L230.761 58.5941L233.227 58.3421L235.02 58.8181L237.15 58.6501L243.679 56.4941L244.771 55.7381L245.024 55.0381L247.153 55.7101L248.554 58.0061L250.992 58.9021L251.916 59.6582L254.747 60.5262L257.913 59.8262L258.249 60.4702L259.958 59.8262L259.93 58.6222L261.247 56.7181L261.892 54.6461L263.545 53.302L264.609 51.146L263.068 51.0339L262.648 50.3899L263.769 50.5859L263.068 49.2979L264.077 49.0739L264.806 49.5219L265.954 48.6819L267.72 46.3298L267.524 44.0338L268.196 43.8097L268.448 41.6257L268.14 41.1497L269.681 39.4137L268.868 38.5176L269.653 38.2096L271.614 35.8296L274.613 34.7935H275.986L276.966 34.0095L280.441 33.6455L282.851 34.2335L284.167 33.7855L287.222 34.7655L290.108 43.4177L291.929 45.8258L294.815 46.4698L296.776 47.5059L303.249 48.1499L307.172 46.4418L307.676 45.0698L309.049 44.3138L309.862 44.9018L310.926 44.6498L312.888 45.4618L318.828 50.6979Z" fill="white" stroke="black" stroke-width="2" mask="url(#path-5-inside-4)"/>
<path d="M239.214 105.765L239.225 105.717L240.043 102.329L240.982 101.763L241.111 101.685L241.176 101.549L241.649 100.551L242.19 100.342L242.338 100.285L242.426 100.152L243.376 98.7213L243.44 98.6257L243.455 98.512L243.791 96.0428L243.827 95.7769L243.625 95.5998L243.001 95.051L243.27 94.4039L244.648 94.0411L248.079 94.3965L248.206 94.4096L248.323 94.3609L248.85 94.1418L248.989 94.2601L248.917 95.6697L248.901 95.9848L249.179 96.1348L249.906 96.5276L250.288 96.7342L250.546 96.3845L252.099 94.2781L258.092 89.5461L260.191 99.6685L260.259 99.9964L260.588 100.058L261.34 100.2L262.436 101.223L262.72 101.488L263.047 101.279L263.838 100.771L264.088 100.869L264.587 101.681L264.772 101.98L265.116 101.908L267.925 101.319L268.125 101.519L268.472 101.867L268.826 101.527L269.035 101.325L269.247 101.696L269.412 101.984L269.742 101.943L270.888 101.803L271.096 101.778L271.223 101.612L271.466 101.296L271.888 101.468L272.841 102.658L273.212 103.121L273.605 102.676L274.003 102.227L274.196 102.341L274.077 104.464L273.289 106.756L273.26 106.839L273.262 106.927L273.316 109.909L272.713 111.356L272.639 111.533L272.703 111.714L274.262 116.135L274.129 118.137L274.112 118.4L274.319 118.563L274.962 119.068L275.343 119.367L275.654 118.996L275.76 118.87L275.644 119.166L275.545 119.42L275.705 119.642L275.928 119.95L276.074 120.151L271.457 119.947L255.256 114.025L254.256 113.217L253.606 111.963L253.51 111.779L253.313 111.717L247.847 109.99L240.954 106.418L240.927 106.404L240.899 106.394L239.214 105.765ZM276.527 120.171L276.607 120.091L276.6 120.174L276.527 120.171Z" fill="white" stroke="black"/>
<g opacity="0.15" filter="url(#filter0_f)">
<path d="M125.153 77.6859C132.731 77.6859 138.874 71.5428 138.874 63.9649C138.874 56.387 132.731 50.2439 125.153 50.2439C117.575 50.2439 111.432 56.387 111.432 63.9649C111.432 71.5428 117.575 77.6859 125.153 77.6859Z" fill="black"/>
</g>
<path d="M125.823 76.0386C132.488 76.0386 137.89 70.6359 137.89 63.9712C137.89 57.3066 132.488 51.9038 125.823 51.9038C119.158 51.9038 113.756 57.3066 113.756 63.9712C113.756 70.6359 119.158 76.0386 125.823 76.0386Z" fill="white"/>
<path fill-rule="evenodd" clip-rule="evenodd" d="M139.551 63.9712C139.551 71.5525 133.405 77.6984 125.823 77.6984C118.242 77.6984 112.096 71.5525 112.096 63.9712C112.096 56.3899 118.242 50.244 125.823 50.244C133.405 50.244 139.551 56.3899 139.551 63.9712ZM137.891 63.9712C137.891 70.6359 132.488 76.0386 125.823 76.0386C119.159 76.0386 113.756 70.6359 113.756 63.9712C113.756 57.3066 119.159 51.9038 125.823 51.9038C132.488 51.9038 137.891 57.3066 137.891 63.9712Z" fill="#2A6385"/>
<path fill-rule="evenodd" clip-rule="evenodd" d="M139.551 63.9712C139.551 71.5525 133.405 77.6984 125.823 77.6984C118.242 77.6984 112.096 71.5525 112.096 63.9712C112.096 56.3899 118.242 50.244 125.823 50.244C133.405 50.244 139.551 56.3899 139.551 63.9712ZM137.891 63.9712C137.891 70.6359 132.488 76.0386 125.823 76.0386C119.159 76.0386 113.756 70.6359 113.756 63.9712C113.756 57.3066 119.159 51.9038 125.823 51.9038C132.488 51.9038 137.891 57.3066 137.891 63.9712Z" fill="white" fill-opacity="0.25"/>
<path d="M130.144 59.0345C130.96 59.0345 131.622 58.3726 131.622 57.5562C131.622 56.7398 130.96 56.078 130.144 56.078C129.328 56.078 128.666 56.7398 128.666 57.5562C128.666 58.3726 129.328 59.0345 130.144 59.0345Z" fill="#2A6385"/>
<path fill-rule="evenodd" clip-rule="evenodd" d="M120.297 65.0272C120.038 68.1671 122.433 71.3628 125.959 71.2913C130.647 71.1951 133.57 64.6359 128.882 61.0152C127.927 60.2772 127.254 59.0137 127.154 57.9536C127.037 56.7281 127.348 56.0527 126.411 56.5827C125.711 56.9808 125.134 57.4952 124.564 57.9536C121.914 60.0893 120.505 62.5001 120.297 65.0272Z" fill="#2A6385"/>
<defs>
<filter id="filter0_f" x="99.4321" y="38.2439" width="51.442" height="51.442" filterUnits="userSpaceOnUse" color-interpolation-filters="sRGB">
<feFlood flood-opacity="0" result="BackgroundImageFix"/>
<feBlend mode="normal" in="SourceGraphic" in2="BackgroundImageFix" result="shape"/>
<feGaussianBlur stdDeviation="6" result="effect1_foregroundBlur"/>
</filter>
</defs>
</svg>
