<svg width="54" height="43" viewBox="0 0 54 43" fill="none" xmlns="http://www.w3.org/2000/svg">
<path d="M27 12.0607C22.5264 12.0607 18.9 16.2602 18.9 21.4412C18.9 26.6215 22.5264 30.8218 27 30.8218C31.4719 30.8218 35.1 26.6231 35.1 21.4412C35.1 16.2602 31.4736 12.0607 27 12.0607ZM30.375 26.1315C30.375 26.5017 30.0729 26.8015 29.7 26.8015H24.3C23.9271 26.8015 23.625 26.5017 23.625 26.1315V24.7914C23.625 24.4212 23.9271 24.1214 24.3 24.1214H25.65V19.478L25.6103 19.504C25.5366 19.5528 25.4539 19.5868 25.367 19.6039C25.28 19.6209 25.1906 19.6208 25.1037 19.6036C25.0167 19.5863 24.9341 19.5522 24.8605 19.5032C24.7869 19.4542 24.7237 19.3913 24.6746 19.3181L23.9254 18.2033C23.8762 18.1301 23.842 18.048 23.8248 17.9617C23.8076 17.8754 23.8077 17.7866 23.8251 17.7003C23.8425 17.614 23.8768 17.532 23.9262 17.459C23.9755 17.3859 24.0389 17.3232 24.1127 17.2744L25.4062 16.4185C25.7387 16.1984 26.1295 16.0809 26.5292 16.0809H27.675C28.0479 16.0809 28.35 16.3808 28.35 16.751V24.1214H29.7C30.0729 24.1214 30.375 24.4212 30.375 24.7914V26.1315ZM51.3 5.36035H2.7C1.20909 5.36035 0 6.56055 0 8.0405V34.842C0 36.3219 1.20909 37.5221 2.7 37.5221H51.3C52.7909 37.5221 54 36.3219 54 34.842V8.0405C54 6.56055 52.7909 5.36035 51.3 5.36035ZM49.95 28.1416C46.9673 28.1416 44.55 30.5412 44.55 33.5019H9.45C9.45 30.5412 7.03266 28.1416 4.05 28.1416V14.7409C7.03266 14.7409 9.45 12.3413 9.45 9.38057H44.55C44.55 12.3413 46.9673 14.7409 49.95 14.7409V28.1416Z" fill="#2A6385"/>
</svg>
