<svg width="64" height="64" viewBox="0 0 64 64" fill="none" xmlns="http://www.w3.org/2000/svg">
<path d="M44 31.9999C47.68 31.9999 50.64 29.0133 50.64 25.3333C50.64 21.6533 47.68 18.6666 44 18.6666C42.2319 18.6666 40.5362 19.369 39.286 20.6192C38.0358 21.8694 37.3334 23.5651 37.3334 25.3333C37.3334 27.1014 38.0358 28.7971 39.286 30.0473C40.5362 31.2975 42.2319 31.9999 44 31.9999ZM24 29.3333C28.4267 29.3333 31.9734 25.7599 31.9734 21.3333C31.9734 16.9066 28.4267 13.3333 24 13.3333C19.5734 13.3333 16 16.9066 16 21.3333C16 25.7599 19.5734 29.3333 24 29.3333ZM44 37.3333C39.12 37.3333 29.3334 39.7866 29.3334 44.6666V50.6666H58.6667V44.6666C58.6667 39.7866 48.88 37.3333 44 37.3333ZM24 34.6666C17.7867 34.6666 5.33337 37.7866 5.33337 43.9999V50.6666H24V44.6666C24 42.3999 24.88 38.4266 30.32 35.4133C28 34.9333 25.76 34.6666 24 34.6666Z" fill="#2A6385"/>
</svg>
