<svg width="64" height="64" viewBox="0 0 64 64" fill="none" xmlns="http://www.w3.org/2000/svg">
<path d="M32 58.6666C17.272 58.6666 5.33337 46.7279 5.33337 31.9999C5.33337 17.2719 17.272 5.33325 32 5.33325C46.728 5.33325 58.6667 17.2719 58.6667 31.9999C58.6667 46.7279 46.728 58.6666 32 58.6666ZM32 53.3333C37.658 53.3333 43.0842 51.0856 47.085 47.0849C51.0858 43.0841 53.3334 37.6579 53.3334 31.9999C53.3334 26.342 51.0858 20.9158 47.085 16.915C43.0842 12.9142 37.658 10.6666 32 10.6666C26.3421 10.6666 20.9159 12.9142 16.9151 16.915C12.9143 20.9158 10.6667 26.342 10.6667 31.9999C10.6667 37.6579 12.9143 43.0841 16.9151 47.0849C20.9159 51.0856 26.3421 53.3333 32 53.3333ZM32 50.6666C29.5487 50.6666 27.1214 50.1838 24.8566 49.2457C22.5919 48.3076 20.5341 46.9326 18.8007 45.1992C17.0674 43.4659 15.6924 41.4081 14.7543 39.1433C13.8162 36.8786 13.3334 34.4513 13.3334 31.9999C13.3334 29.5486 13.8162 27.1212 14.7543 24.8565C15.6924 22.5917 17.0674 20.534 18.8007 18.8006C20.5341 17.0672 22.5919 15.6923 24.8566 14.7542C27.1214 13.8161 29.5487 13.3333 32 13.3333C36.9507 13.3333 41.6987 15.2999 45.1994 18.8006C48.7 22.3013 50.6667 27.0492 50.6667 31.9999C50.6667 36.9506 48.7 41.6986 45.1994 45.1992C41.6987 48.6999 36.9507 50.6666 32 50.6666ZM32 45.3333C35.5363 45.3333 38.9276 43.9285 41.4281 41.428C43.9286 38.9275 45.3334 35.5361 45.3334 31.9999C45.3334 28.4637 43.9286 25.0723 41.4281 22.5718C38.9276 20.0713 35.5363 18.6666 32 18.6666C28.4638 18.6666 25.0724 20.0713 22.572 22.5718C20.0715 25.0723 18.6667 28.4637 18.6667 31.9999C18.6667 35.5361 20.0715 38.9275 22.572 41.428C25.0724 43.9285 28.4638 45.3333 32 45.3333ZM32 42.6666C29.1711 42.6666 26.458 41.5428 24.4576 39.5424C22.4572 37.542 21.3334 34.8289 21.3334 31.9999C21.3334 29.1709 22.4572 26.4578 24.4576 24.4574C26.458 22.4571 29.1711 21.3333 32 21.3333C34.829 21.3333 37.5421 22.4571 39.5425 24.4574C41.5429 26.4578 42.6667 29.1709 42.6667 31.9999C42.6667 34.8289 41.5429 37.542 39.5425 39.5424C37.5421 41.5428 34.829 42.6666 32 42.6666ZM32 37.3333C33.4145 37.3333 34.7711 36.7713 35.7713 35.7712C36.7715 34.771 37.3334 33.4144 37.3334 31.9999C37.3334 30.5854 36.7715 29.2289 35.7713 28.2287C34.7711 27.2285 33.4145 26.6666 32 26.6666C30.5856 26.6666 29.229 27.2285 28.2288 28.2287C27.2286 29.2289 26.6667 30.5854 26.6667 31.9999C26.6667 33.4144 27.2286 34.771 28.2288 35.7712C29.229 36.7713 30.5856 37.3333 32 37.3333ZM32 34.6666C31.2928 34.6666 30.6145 34.3856 30.1144 33.8855C29.6143 33.3854 29.3334 32.7072 29.3334 31.9999C29.3334 31.2927 29.6143 30.6144 30.1144 30.1143C30.6145 29.6142 31.2928 29.3333 32 29.3333C32.7073 29.3333 33.3856 29.6142 33.8857 30.1143C34.3858 30.6144 34.6667 31.2927 34.6667 31.9999C34.6667 32.7072 34.3858 33.3854 33.8857 33.8855C33.3856 34.3856 32.7073 34.6666 32 34.6666Z" fill="#2A6385"/>
</svg>
