<svg width="32" height="32" viewBox="0 0 32 32" fill="none" xmlns="http://www.w3.org/2000/svg">
<path d="M16 6C12.234 6 8.906 6.39 6.875 6.688C5.195 6.934 3.84 8.199 3.531 9.875C3.27 11.301 3 13.387 3 16C3 18.613 3.27 20.7 3.531 22.125C3.84 23.801 5.195 25.07 6.875 25.313C8.915 25.609 12.254 26 16 26C19.746 26 23.086 25.61 25.125 25.312C26.805 25.07 28.16 23.801 28.469 22.125C28.73 20.695 29 18.605 29 16C29 13.395 28.734 11.305 28.469 9.875C28.16 8.199 26.805 6.934 25.125 6.687C23.094 6.391 19.765 6 16 6ZM16 8C19.633 8 22.879 8.371 24.844 8.656C25.2524 8.71437 25.632 8.89971 25.9292 9.18578C26.2264 9.47186 26.4261 9.84416 26.5 10.25C26.742 11.57 27 13.527 27 16C27 18.469 26.742 20.43 26.5 21.75C26.4274 22.1564 26.2281 22.5294 25.9307 22.8157C25.6332 23.102 25.2529 23.2869 24.844 23.344C22.87 23.629 19.609 24 16 24C12.39 24 9.125 23.629 7.156 23.344C6.74741 23.2862 6.36745 23.1011 6.07014 22.8149C5.77284 22.5287 5.57333 22.1561 5.5 21.75C5.258 20.43 5 18.477 5 16C5 13.52 5.258 11.57 5.5 10.25C5.57333 9.84391 5.77284 9.47129 6.07014 9.18511C6.36745 8.89894 6.74741 8.71379 7.156 8.656C9.117 8.371 12.367 8 16 8ZM13 10.281V21.72L14.5 20.876L21.5 16.876L23 16L21.5 15.125L14.5 11.125L13 10.281ZM15 13.719L18.969 16L15 18.281V13.719Z" fill="white"/>
</svg>
